<svg width="24" height="24" viewBox="0 0 24 24" fill="none" xmlns="http://www.w3.org/2000/svg">
<g id="Icon">
<path id="Vector" d="M15.935 10.3125C15.935 8.82066 15.3425 7.38992 14.2878 6.33502C13.2331 5.28013 11.8026 4.6875 10.3111 4.6875C8.81952 4.6875 7.38906 5.28013 6.33437 6.33502C5.27969 7.38992 4.68717 8.82066 4.68717 10.3125C4.68717 11.8043 5.27969 13.2351 6.33437 14.29C7.38906 15.3449 8.81952 15.9375 10.3111 15.9375C11.8026 15.9375 13.2331 15.3449 14.2878 14.29C15.3425 13.2351 15.935 11.8043 15.935 10.3125ZM14.8489 16.0465C13.6046 17.0344 12.0264 17.625 10.3111 17.625C6.27241 17.625 3 14.352 3 10.3125C3 6.27305 6.27241 3 10.3111 3C14.3497 3 17.6221 6.27305 17.6221 10.3125C17.6221 12.0281 17.0316 13.6066 16.0439 14.8512L20.4025 19.2105L21 19.8082L19.8049 21L19.2074 20.4023L14.8489 16.043V16.0465Z" fill="black"/>
</g>
</svg>
