<svg width="225" height="40" viewBox="0 0 225 40" fill="none" xmlns="http://www.w3.org/2000/svg">
<g clip-path="url(#clip0_44067_6995)">
<rect x="0.602539" width="224.398" height="40" rx="20" fill="#01D6FF"/>
<path d="M31.9227 24.598C31.2787 24.598 30.7001 24.486 30.1867 24.262C29.6827 24.0287 29.2861 23.7113 28.9967 23.31C28.7074 22.8993 28.5581 22.428 28.5487 21.896H29.9067C29.9534 22.3533 30.1401 22.7407 30.4667 23.058C30.8027 23.366 31.2881 23.52 31.9227 23.52C32.5294 23.52 33.0054 23.3707 33.3507 23.072C33.7054 22.764 33.8827 22.372 33.8827 21.896C33.8827 21.5227 33.7801 21.2193 33.5747 20.986C33.3694 20.7527 33.1127 20.5753 32.8047 20.454C32.4967 20.3327 32.0814 20.202 31.5587 20.062C30.9147 19.894 30.3967 19.726 30.0047 19.558C29.6221 19.39 29.2907 19.1287 29.0107 18.774C28.7401 18.41 28.6047 17.9247 28.6047 17.318C28.6047 16.786 28.7401 16.3147 29.0107 15.904C29.2814 15.4933 29.6594 15.176 30.1447 14.952C30.6394 14.728 31.2041 14.616 31.8387 14.616C32.7534 14.616 33.5001 14.8447 34.0787 15.302C34.6667 15.7593 34.9981 16.366 35.0727 17.122H33.6727C33.6261 16.7487 33.4301 16.422 33.0847 16.142C32.7394 15.8527 32.2821 15.708 31.7127 15.708C31.1807 15.708 30.7467 15.848 30.4107 16.128C30.0747 16.3987 29.9067 16.7813 29.9067 17.276C29.9067 17.6307 30.0047 17.92 30.2007 18.144C30.4061 18.368 30.6534 18.5407 30.9427 18.662C31.2414 18.774 31.6567 18.9047 32.1887 19.054C32.8327 19.2313 33.3507 19.4087 33.7427 19.586C34.1347 19.754 34.4707 20.02 34.7507 20.384C35.0307 20.7387 35.1707 21.224 35.1707 21.84C35.1707 22.316 35.0447 22.764 34.7927 23.184C34.5407 23.604 34.1674 23.9447 33.6727 24.206C33.1781 24.4673 32.5947 24.598 31.9227 24.598ZM40.8535 16.688C41.4322 16.688 41.9549 16.814 42.4215 17.066C42.8882 17.3087 43.2522 17.6773 43.5135 18.172C43.7842 18.6667 43.9195 19.2687 43.9195 19.978V24.5H42.6595V20.16C42.6595 19.3947 42.4682 18.8113 42.0855 18.41C41.7029 17.9993 41.1802 17.794 40.5175 17.794C39.8455 17.794 39.3089 18.004 38.9075 18.424C38.5155 18.844 38.3195 19.4553 38.3195 20.258V24.5H37.0455V14.14H38.3195V17.92C38.5715 17.528 38.9169 17.2247 39.3555 17.01C39.8035 16.7953 40.3029 16.688 40.8535 16.688ZM49.3466 24.626C48.6279 24.626 47.9746 24.4627 47.3866 24.136C46.8079 23.8093 46.3506 23.3473 46.0146 22.75C45.6879 22.1433 45.5246 21.4433 45.5246 20.65C45.5246 19.866 45.6926 19.1753 46.0286 18.578C46.3739 17.9713 46.8406 17.5093 47.4286 17.192C48.0166 16.8653 48.6746 16.702 49.4026 16.702C50.1306 16.702 50.7886 16.8653 51.3766 17.192C51.9646 17.5093 52.4266 17.9667 52.7626 18.564C53.1079 19.1613 53.2806 19.8567 53.2806 20.65C53.2806 21.4433 53.1033 22.1433 52.7486 22.75C52.4033 23.3473 51.9319 23.8093 51.3346 24.136C50.7373 24.4627 50.0746 24.626 49.3466 24.626ZM49.3466 23.506C49.8039 23.506 50.2333 23.3987 50.6346 23.184C51.0359 22.9693 51.3579 22.6473 51.6006 22.218C51.8526 21.7887 51.9786 21.266 51.9786 20.65C51.9786 20.034 51.8573 19.5113 51.6146 19.082C51.3719 18.6527 51.0546 18.3353 50.6626 18.13C50.2706 17.9153 49.8459 17.808 49.3886 17.808C48.9219 17.808 48.4926 17.9153 48.1006 18.13C47.7179 18.3353 47.4099 18.6527 47.1766 19.082C46.9433 19.5113 46.8266 20.034 46.8266 20.65C46.8266 21.2753 46.9386 21.8027 47.1626 22.232C47.3959 22.6613 47.7039 22.9833 48.0866 23.198C48.4693 23.4033 48.8893 23.506 49.3466 23.506ZM56.2297 18.242C56.4817 17.8033 56.855 17.4393 57.3497 17.15C57.8537 16.8513 58.437 16.702 59.0997 16.702C59.781 16.702 60.397 16.8653 60.9477 17.192C61.5077 17.5187 61.9464 17.9807 62.2637 18.578C62.581 19.166 62.7397 19.852 62.7397 20.636C62.7397 21.4107 62.581 22.1013 62.2637 22.708C61.9464 23.3147 61.5077 23.786 60.9477 24.122C60.397 24.458 59.781 24.626 59.0997 24.626C58.4464 24.626 57.8677 24.4813 57.3637 24.192C56.869 23.8933 56.491 23.5247 56.2297 23.086V28.14H54.9557V16.828H56.2297V18.242ZM61.4377 20.636C61.4377 20.0573 61.321 19.5533 61.0877 19.124C60.8544 18.6947 60.537 18.368 60.1357 18.144C59.7437 17.92 59.3097 17.808 58.8337 17.808C58.367 17.808 57.933 17.9247 57.5317 18.158C57.1397 18.382 56.8224 18.7133 56.5797 19.152C56.3464 19.5813 56.2297 20.0807 56.2297 20.65C56.2297 21.2287 56.3464 21.7373 56.5797 22.176C56.8224 22.6053 57.1397 22.9367 57.5317 23.17C57.933 23.394 58.367 23.506 58.8337 23.506C59.3097 23.506 59.7437 23.394 60.1357 23.17C60.537 22.9367 60.8544 22.6053 61.0877 22.176C61.321 21.7373 61.4377 21.224 61.4377 20.636ZM71.187 14.742C72.251 14.742 73.1704 14.9427 73.945 15.344C74.729 15.736 75.3264 16.3007 75.737 17.038C76.157 17.7753 76.367 18.6433 76.367 19.642C76.367 20.6407 76.157 21.5087 75.737 22.246C75.3264 22.974 74.729 23.534 73.945 23.926C73.1704 24.3087 72.251 24.5 71.187 24.5H68.149V14.742H71.187ZM71.187 23.45C72.447 23.45 73.4084 23.1187 74.071 22.456C74.7337 21.784 75.065 20.846 75.065 19.642C75.065 18.4287 74.729 17.4813 74.057 16.8C73.3944 16.1187 72.4377 15.778 71.187 15.778H69.423V23.45H71.187ZM85.0475 20.37C85.0475 20.6127 85.0335 20.8693 85.0055 21.14H78.8735C78.9201 21.896 79.1768 22.4887 79.6435 22.918C80.1195 23.338 80.6935 23.548 81.3655 23.548C81.9161 23.548 82.3735 23.422 82.7375 23.17C83.1108 22.9087 83.3721 22.5633 83.5215 22.134H84.8935C84.6881 22.8713 84.2775 23.4733 83.6615 23.94C83.0455 24.3973 82.2801 24.626 81.3655 24.626C80.6375 24.626 79.9841 24.4627 79.4055 24.136C78.8361 23.8093 78.3881 23.3473 78.0615 22.75C77.7348 22.1433 77.5715 21.4433 77.5715 20.65C77.5715 19.8567 77.7301 19.1613 78.0475 18.564C78.3648 17.9667 78.8081 17.5093 79.3775 17.192C79.9561 16.8653 80.6188 16.702 81.3655 16.702C82.0935 16.702 82.7375 16.8607 83.2975 17.178C83.8575 17.4953 84.2868 17.934 84.5855 18.494C84.8935 19.0447 85.0475 19.67 85.0475 20.37ZM83.7315 20.104C83.7315 19.6187 83.6241 19.2033 83.4095 18.858C83.1948 18.5033 82.9008 18.2373 82.5275 18.06C82.1635 17.8733 81.7575 17.78 81.3095 17.78C80.6655 17.78 80.1148 17.9853 79.6575 18.396C79.2095 18.8067 78.9528 19.376 78.8875 20.104H83.7315ZM88.0031 14.14V24.5H86.7291V14.14H88.0031ZM90.8324 15.582C90.5898 15.582 90.3844 15.498 90.2164 15.33C90.0484 15.162 89.9644 14.9567 89.9644 14.714C89.9644 14.4713 90.0484 14.266 90.2164 14.098C90.3844 13.93 90.5898 13.846 90.8324 13.846C91.0658 13.846 91.2618 13.93 91.4204 14.098C91.5884 14.266 91.6724 14.4713 91.6724 14.714C91.6724 14.9567 91.5884 15.162 91.4204 15.33C91.2618 15.498 91.0658 15.582 90.8324 15.582ZM91.4484 16.828V24.5H90.1744V16.828H91.4484ZM96.4757 23.324L98.8557 16.828H100.214L97.2037 24.5H95.7197L92.7097 16.828H94.0817L96.4757 23.324ZM108.467 20.37C108.467 20.6127 108.453 20.8693 108.425 21.14H102.293C102.34 21.896 102.597 22.4887 103.063 22.918C103.539 23.338 104.113 23.548 104.785 23.548C105.336 23.548 105.793 23.422 106.157 23.17C106.531 22.9087 106.792 22.5633 106.941 22.134H108.313C108.108 22.8713 107.697 23.4733 107.081 23.94C106.465 24.3973 105.7 24.626 104.785 24.626C104.057 24.626 103.404 24.4627 102.825 24.136C102.256 23.8093 101.808 23.3473 101.481 22.75C101.155 22.1433 100.991 21.4433 100.991 20.65C100.991 19.8567 101.15 19.1613 101.467 18.564C101.785 17.9667 102.228 17.5093 102.797 17.192C103.376 16.8653 104.039 16.702 104.785 16.702C105.513 16.702 106.157 16.8607 106.717 17.178C107.277 17.4953 107.707 17.934 108.005 18.494C108.313 19.0447 108.467 19.67 108.467 20.37ZM107.151 20.104C107.151 19.6187 107.044 19.2033 106.829 18.858C106.615 18.5033 106.321 18.2373 105.947 18.06C105.583 17.8733 105.177 17.78 104.729 17.78C104.085 17.78 103.535 17.9853 103.077 18.396C102.629 18.8067 102.373 19.376 102.307 20.104H107.151ZM111.423 18.074C111.647 17.6353 111.964 17.2947 112.375 17.052C112.795 16.8093 113.304 16.688 113.901 16.688V18.004H113.565C112.137 18.004 111.423 18.7787 111.423 20.328V24.5H110.149V16.828H111.423V18.074ZM121.98 16.828L117.36 28.112H116.044L117.556 24.416L114.462 16.828H115.876L118.284 23.044L120.664 16.828H121.98ZM126.517 20.636C126.517 19.852 126.675 19.166 126.993 18.578C127.31 17.9807 127.744 17.5187 128.295 17.192C128.855 16.8653 129.475 16.702 130.157 16.702C130.829 16.702 131.412 16.8467 131.907 17.136C132.401 17.4253 132.77 17.7893 133.013 18.228V16.828H134.301V24.5H133.013V23.072C132.761 23.52 132.383 23.8933 131.879 24.192C131.384 24.4813 130.805 24.626 130.143 24.626C129.461 24.626 128.845 24.458 128.295 24.122C127.744 23.786 127.31 23.3147 126.993 22.708C126.675 22.1013 126.517 21.4107 126.517 20.636ZM133.013 20.65C133.013 20.0713 132.896 19.5673 132.663 19.138C132.429 18.7087 132.112 18.382 131.711 18.158C131.319 17.9247 130.885 17.808 130.409 17.808C129.933 17.808 129.499 17.92 129.107 18.144C128.715 18.368 128.402 18.6947 128.169 19.124C127.935 19.5533 127.819 20.0573 127.819 20.636C127.819 21.224 127.935 21.7373 128.169 22.176C128.402 22.6053 128.715 22.9367 129.107 23.17C129.499 23.394 129.933 23.506 130.409 23.506C130.885 23.506 131.319 23.394 131.711 23.17C132.112 22.9367 132.429 22.6053 132.663 22.176C132.896 21.7373 133.013 21.2287 133.013 20.65ZM138.008 17.878V22.4C138.008 22.7733 138.087 23.0393 138.246 23.198C138.404 23.3473 138.68 23.422 139.072 23.422H140.01V24.5H138.862C138.152 24.5 137.62 24.3367 137.266 24.01C136.911 23.6833 136.734 23.1467 136.734 22.4V17.878H135.74V16.828H136.734V14.896H138.008V16.828H140.01V17.878H138.008Z" fill="black"/>
<path fill-rule="evenodd" clip-rule="evenodd" d="M187.244 10.0573C187.016 10.7413 188.018 11.7254 190.175 12.5933C192.331 13.4613 193.721 13.2293 193.96 12.5174C194.2 11.8054 193.266 10.7654 191.109 10.0134C188.953 9.26135 187.483 9.37736 187.248 10.0893M147.69 25.1053L143.99 14.2334H149.153L150.85 21.7613L152.547 14.2334H156.47L152.78 25.1054L147.69 25.1053ZM171.027 25.1053H176.069V14.2333H171.027L171.027 25.1053ZM177.144 11.5053C177.144 10.7413 175.831 10.1333 173.518 10.1333C171.206 10.1333 169.972 10.7653 169.972 11.5053C169.972 12.2454 171.234 12.8734 173.518 12.8734C175.802 12.8734 177.144 12.2414 177.144 11.5053ZM163.112 13.8533C166.814 13.8533 169.418 15.9093 169.418 19.6333C169.418 23.3573 166.814 25.4653 163.112 25.4653C159.41 25.4653 156.712 23.2653 156.712 19.6133C156.712 15.9613 159.336 13.8373 163.112 13.8373V13.8533ZM163.036 16.0573C162.341 16.0573 161.722 17.3294 161.722 19.6294C161.722 21.9294 162.353 23.1294 163.036 23.1294C163.72 23.1294 164.422 21.9093 164.422 19.6294C164.422 17.3494 163.791 16.0613 163.036 16.0613V16.0573ZM191.329 23.2053C190.558 23.2053 189.943 21.9373 189.943 19.6333C189.943 17.3293 190.57 16.1373 191.329 16.1373C192.088 16.1373 192.714 17.3533 192.714 19.6333C192.714 21.9133 192.024 23.2053 191.329 23.2053ZM193.333 14.2294L193.05 15.9814C192.62 14.6583 191.356 13.7878 189.967 13.8573C187.04 13.8573 185.111 16.1333 185.111 19.6294C185.111 23.1254 187.016 25.4653 189.943 25.4653C191.358 25.5395 192.641 24.6379 193.05 23.2814L193.361 25.1014H197.99V14.2334H193.333V14.2294ZM178.453 25.1014H183.546V10.8654H178.454V25.1014H178.453Z" fill="#004740"/>
</g>
<defs>
<clipPath id="clip0_44067_6995">
<rect x="0.602539" width="224.398" height="40" rx="20" fill="white"/>
</clipPath>
</defs>
</svg>
