<svg width="25" height="24" viewBox="0 0 25 24" fill="none" xmlns="http://www.w3.org/2000/svg">
<mask id="mask0_6108_17398" style="mask-type:alpha" maskUnits="userSpaceOnUse" x="0" y="0" width="25" height="24">
<rect x="0.989502" width="24" height="24" fill="#D9D9D9"/>
</mask>
<g mask="url(#mask0_6108_17398)">
<path d="M12.9895 12C11.8895 12 10.9478 11.6083 10.1645 10.825C9.38117 10.0417 8.9895 9.1 8.9895 8C8.9895 6.9 9.38117 5.95833 10.1645 5.175C10.9478 4.39167 11.8895 4 12.9895 4C14.0895 4 15.0312 4.39167 15.8145 5.175C16.5978 5.95833 16.9895 6.9 16.9895 8C16.9895 9.1 16.5978 10.0417 15.8145 10.825C15.0312 11.6083 14.0895 12 12.9895 12ZM4.9895 20V17.2C4.9895 16.6333 5.13534 16.1125 5.427 15.6375C5.71867 15.1625 6.10617 14.8 6.5895 14.55C7.62284 14.0333 8.67284 13.6458 9.7395 13.3875C10.8062 13.1292 11.8895 13 12.9895 13C14.0895 13 15.1728 13.1292 16.2395 13.3875C17.3062 13.6458 18.3562 14.0333 19.3895 14.55C19.8728 14.8 20.2603 15.1625 20.552 15.6375C20.8437 16.1125 20.9895 16.6333 20.9895 17.2V20H4.9895ZM6.9895 18H18.9895V17.2C18.9895 17.0167 18.9437 16.85 18.852 16.7C18.7603 16.55 18.6395 16.4333 18.4895 16.35C17.5895 15.9 16.6812 15.5625 15.7645 15.3375C14.8478 15.1125 13.9228 15 12.9895 15C12.0562 15 11.1312 15.1125 10.2145 15.3375C9.29784 15.5625 8.3895 15.9 7.4895 16.35C7.3395 16.4333 7.21867 16.55 7.127 16.7C7.03534 16.85 6.9895 17.0167 6.9895 17.2V18ZM12.9895 10C13.5395 10 14.0103 9.80417 14.402 9.4125C14.7937 9.02083 14.9895 8.55 14.9895 8C14.9895 7.45 14.7937 6.97917 14.402 6.5875C14.0103 6.19583 13.5395 6 12.9895 6C12.4395 6 11.9687 6.19583 11.577 6.5875C11.1853 6.97917 10.9895 7.45 10.9895 8C10.9895 8.55 11.1853 9.02083 11.577 9.4125C11.9687 9.80417 12.4395 10 12.9895 10Z" fill="white"/>
</g>
</svg>
