<svg width="106" height="105" viewBox="0 0 106 105" fill="none" xmlns="http://www.w3.org/2000/svg">
<circle cx="53" cy="52.5" r="52.5" fill="#35A131"/>
<g clip-path="url(#clip0_4543_32243)">
<path d="M63.5 47.5C63.5 43.5218 61.9196 39.7064 59.1066 36.8934C56.2936 34.0804 52.4782 32.5 48.5 32.5C44.5218 32.5 40.7064 34.0804 37.8934 36.8934C35.0804 39.7064 33.5 43.5218 33.5 47.5C33.5 51.4782 35.0804 55.2936 37.8934 58.1066C40.7064 60.9196 44.5218 62.5 48.5 62.5C52.4782 62.5 56.2936 60.9196 59.1066 58.1066C61.9196 55.2936 63.5 51.4782 63.5 47.5ZM60.6031 62.7906C57.2844 65.425 53.075 67 48.5 67C37.7281 67 29 58.2719 29 47.5C29 36.7281 37.7281 28 48.5 28C59.2719 28 68 36.7281 68 47.5C68 52.075 66.425 56.2844 63.7906 59.6031L76.3438 72.1562C77.225 73.0375 77.225 74.4625 76.3438 75.3344C75.4625 76.2062 74.0375 76.2156 73.1656 75.3344L60.6031 62.7906Z" fill="white"/>
</g>
<defs>
<clipPath id="clip0_4543_32243">
<rect width="48" height="48" fill="white" transform="translate(29 28)"/>
</clipPath>
</defs>
</svg>
