<svg width="220" height="189" viewBox="0 0 220 189" fill="none" xmlns="http://www.w3.org/2000/svg">
<g id="Image">
<path id="Vector" d="M153.287 3.21265H107.873C103.44 3.21265 99.8469 6.79885 99.8469 11.2226V112.251C99.8469 116.675 103.44 120.261 107.873 120.261H153.287C157.72 120.261 161.313 116.675 161.313 112.251V11.2226C161.313 6.79885 157.72 3.21265 153.287 3.21265Z" fill="#FFBB01"/>
<path id="Vector_2" d="M40.7414 119.332C33.8666 112.473 29.1844 103.733 27.2868 94.2178C25.3892 84.7028 26.3616 74.8399 30.0809 65.8765C33.8002 56.913 40.0994 49.2517 48.1818 43.8614C56.2641 38.4712 65.7667 35.5941 75.4875 35.5941C85.2084 35.5941 94.7109 38.4712 102.793 43.8614C110.876 49.2517 117.175 56.913 120.894 65.8765C124.613 74.8399 125.586 84.7028 123.688 94.2178C121.791 103.733 117.108 112.473 110.234 119.332H40.7414Z" fill="#FF6A39"/>
<path id="Vector_3" d="M144.097 40.3793H222.949C224.085 40.3793 225.174 40.8295 225.977 41.631C226.78 42.4325 227.231 43.5195 227.231 44.6529V117.915H139.815V44.6529C139.815 43.5195 140.266 42.4325 141.069 41.631C141.872 40.8295 142.962 40.3793 144.097 40.3793Z" fill="#FF3B48"/>
<path id="Vector_4" d="M75.4847 35.6054C75.4847 35.6054 58.2462 36.8875 48.4096 27.0582C40.4572 19.1214 39.8455 6.30055 39.8455 1.75829C39.8517 1.29601 40.0377 0.854224 40.3641 0.526172C40.6905 0.198119 41.1319 0.00945783 41.595 0C46.1952 0 58.9925 0.64715 66.945 8.54726C76.7693 18.401 75.4847 35.6054 75.4847 35.6054Z" fill="#23B574"/>
<path id="Vector_5" d="M246.025 84.6417H5.81141C4.27013 84.6417 2.79198 85.2528 1.70212 86.3405C0.612272 87.4282 0 88.9034 0 90.4416L0 107.097C0.00324035 108.633 0.616943 110.105 1.70644 111.19C2.79594 112.275 4.27225 112.884 5.81141 112.884H15.1464C15.6488 112.886 16.1333 113.071 16.5093 113.403C16.8853 113.736 17.1271 114.194 17.1896 114.691L26.7447 190.921C27.469 196.688 30.2776 201.993 34.6433 205.839C39.0091 209.686 44.6316 211.81 50.4553 211.813H201.369C207.199 211.822 212.832 209.703 217.206 205.855C221.58 202.007 224.393 196.695 225.116 190.921L234.671 114.691C234.736 114.193 234.98 113.735 235.359 113.402C235.737 113.07 236.223 112.886 236.726 112.884H246.061C247.601 112.884 249.077 112.275 250.166 111.19C251.256 110.105 251.87 108.633 251.873 107.097V90.4416C251.873 89.6769 251.721 88.9197 251.427 88.2136C251.133 87.5075 250.701 86.8665 250.158 86.3275C249.614 85.7884 248.969 85.362 248.26 85.0727C247.551 84.7833 246.791 84.6369 246.025 84.6417ZM85.1892 181.934C85.2341 183.159 85.0312 184.381 84.5924 185.526C84.1537 186.671 83.4882 187.716 82.6357 188.598C81.7831 189.481 80.7611 190.183 79.6306 190.662C78.5002 191.142 77.2844 191.389 76.0561 191.389C74.8278 191.389 73.6121 191.142 72.4816 190.662C71.3511 190.183 70.3291 189.481 69.4766 188.598C68.6241 187.716 67.9585 186.671 67.5198 185.526C67.081 184.381 66.8781 183.159 66.923 181.934V137.671C67.0096 135.312 68.0097 133.077 69.713 131.438C71.4164 129.8 73.6901 128.884 76.0561 128.884C78.4221 128.884 80.6959 129.8 82.3992 131.438C84.1025 133.077 85.1027 135.312 85.1892 137.671V181.934ZM135.045 181.934C135.09 183.159 134.887 184.381 134.448 185.526C134.01 186.671 133.344 187.716 132.491 188.598C131.639 189.481 130.617 190.183 129.486 190.662C128.356 191.142 127.14 191.389 125.912 191.389C124.684 191.389 123.468 191.142 122.337 190.662C121.207 190.183 120.185 189.481 119.332 188.598C118.48 187.716 117.814 186.671 117.376 185.526C116.937 184.381 116.734 183.159 116.779 181.934V137.671C116.865 135.312 117.866 133.077 119.569 131.438C121.272 129.8 123.546 128.884 125.912 128.884C128.278 128.884 130.552 129.8 132.255 131.438C133.958 133.077 134.958 135.312 135.045 137.671V181.934ZM184.913 181.934C184.958 183.159 184.755 184.381 184.316 185.526C183.878 186.671 183.212 187.716 182.36 188.598C181.507 189.481 180.485 190.183 179.354 190.662C178.224 191.142 177.008 191.389 175.78 191.389C174.552 191.389 173.336 191.142 172.205 190.662C171.075 190.183 170.053 189.481 169.2 188.598C168.348 187.716 167.682 186.671 167.244 185.526C166.805 184.381 166.602 183.159 166.647 181.934V137.671C166.733 135.312 167.734 133.077 169.437 131.438C171.14 129.8 173.414 128.884 175.78 128.884C178.146 128.884 180.42 129.8 182.123 131.438C183.826 133.077 184.827 135.312 184.913 137.671V181.934Z" fill="#23B574"/>
<path id="Vector_6" d="M213.191 26.476C217.816 21.8601 217.816 14.3763 213.191 9.76046C208.566 5.14461 201.068 5.1446 196.443 9.76046L117.648 88.3993C113.023 93.0151 113.023 100.499 117.648 105.115C122.273 109.731 129.772 109.731 134.397 105.115L213.191 26.476Z" fill="white"/>
</g>
</svg>
