<svg width="24" height="25" viewBox="0 0 24 25" fill="none" xmlns="http://www.w3.org/2000/svg">
<g id="Icons">
<mask id="mask0_32271_33327" style="mask-type:alpha" maskUnits="userSpaceOnUse" x="0" y="0" width="24" height="25">
<rect id="Bounding box" y="0.75" width="24" height="24" fill="#D9D9D9"/>
</mask>
<g mask="url(#mask0_32271_33327)">
<path id="calendar_month" d="M5 22.75C4.45 22.75 3.97917 22.5542 3.5875 22.1625C3.19583 21.7708 3 21.3 3 20.75V6.75C3 6.2 3.19583 5.72917 3.5875 5.3375C3.97917 4.94583 4.45 4.75 5 4.75H6V2.75H8V4.75H16V2.75H18V4.75H19C19.55 4.75 20.0208 4.94583 20.4125 5.3375C20.8042 5.72917 21 6.2 21 6.75V20.75C21 21.3 20.8042 21.7708 20.4125 22.1625C20.0208 22.5542 19.55 22.75 19 22.75H5ZM5 20.75H19V10.75H5V20.75ZM5 8.75H19V6.75H5V8.75ZM12 14.75C11.7167 14.75 11.4792 14.6542 11.2875 14.4625C11.0958 14.2708 11 14.0333 11 13.75C11 13.4667 11.0958 13.2292 11.2875 13.0375C11.4792 12.8458 11.7167 12.75 12 12.75C12.2833 12.75 12.5208 12.8458 12.7125 13.0375C12.9042 13.2292 13 13.4667 13 13.75C13 14.0333 12.9042 14.2708 12.7125 14.4625C12.5208 14.6542 12.2833 14.75 12 14.75ZM8 14.75C7.71667 14.75 7.47917 14.6542 7.2875 14.4625C7.09583 14.2708 7 14.0333 7 13.75C7 13.4667 7.09583 13.2292 7.2875 13.0375C7.47917 12.8458 7.71667 12.75 8 12.75C8.28333 12.75 8.52083 12.8458 8.7125 13.0375C8.90417 13.2292 9 13.4667 9 13.75C9 14.0333 8.90417 14.2708 8.7125 14.4625C8.52083 14.6542 8.28333 14.75 8 14.75ZM16 14.75C15.7167 14.75 15.4792 14.6542 15.2875 14.4625C15.0958 14.2708 15 14.0333 15 13.75C15 13.4667 15.0958 13.2292 15.2875 13.0375C15.4792 12.8458 15.7167 12.75 16 12.75C16.2833 12.75 16.5208 12.8458 16.7125 13.0375C16.9042 13.2292 17 13.4667 17 13.75C17 14.0333 16.9042 14.2708 16.7125 14.4625C16.5208 14.6542 16.2833 14.75 16 14.75ZM12 18.75C11.7167 18.75 11.4792 18.6542 11.2875 18.4625C11.0958 18.2708 11 18.0333 11 17.75C11 17.4667 11.0958 17.2292 11.2875 17.0375C11.4792 16.8458 11.7167 16.75 12 16.75C12.2833 16.75 12.5208 16.8458 12.7125 17.0375C12.9042 17.2292 13 17.4667 13 17.75C13 18.0333 12.9042 18.2708 12.7125 18.4625C12.5208 18.6542 12.2833 18.75 12 18.75ZM8 18.75C7.71667 18.75 7.47917 18.6542 7.2875 18.4625C7.09583 18.2708 7 18.0333 7 17.75C7 17.4667 7.09583 17.2292 7.2875 17.0375C7.47917 16.8458 7.71667 16.75 8 16.75C8.28333 16.75 8.52083 16.8458 8.7125 17.0375C8.90417 17.2292 9 17.4667 9 17.75C9 18.0333 8.90417 18.2708 8.7125 18.4625C8.52083 18.6542 8.28333 18.75 8 18.75ZM16 18.75C15.7167 18.75 15.4792 18.6542 15.2875 18.4625C15.0958 18.2708 15 18.0333 15 17.75C15 17.4667 15.0958 17.2292 15.2875 17.0375C15.4792 16.8458 15.7167 16.75 16 16.75C16.2833 16.75 16.5208 16.8458 16.7125 17.0375C16.9042 17.2292 17 17.4667 17 17.75C17 18.0333 16.9042 18.2708 16.7125 18.4625C16.5208 18.6542 16.2833 18.75 16 18.75Z" fill="#191919"/>
</g>
</g>
</svg>
