<svg width="106" height="105" viewBox="0 0 106 105" fill="none" xmlns="http://www.w3.org/2000/svg">
<circle cx="53" cy="52.5" r="52.5" fill="#35A131"/>
<g clip-path="url(#clip0_4543_32245)">
<path d="M30.2 33C29.54 33 29 33.54 29 34.2C29 34.86 29.54 35.4 30.2 35.4H33.0425C33.6125 35.4 34.1075 35.7975 34.22 36.36L38.6375 57.96C39.095 60.195 41.06 61.8 43.34 61.8H53.0525C53.015 61.4025 53 61.005 53 60.6C53 60.195 53.015 59.7975 53.0525 59.4H43.34C42.2 59.4 41.2175 58.5975 40.985 57.48L40.4 54.6H54.44C54.8825 53.745 55.4075 52.935 56.015 52.2H39.905L36.9575 37.8H69.4625L67.055 47.43C67.8725 47.4825 68.6675 47.61 69.4325 47.805L71.795 38.385C72.17 36.87 71.03 35.4 69.47 35.4H36.4325C35.9375 33.975 34.58 33 33.0425 33H30.2ZM41.6 67.2C41.6 66.7226 41.7896 66.2648 42.1272 65.9272C42.4648 65.5896 42.9226 65.4 43.4 65.4C43.8774 65.4 44.3352 65.5896 44.6728 65.9272C45.0104 66.2648 45.2 66.7226 45.2 67.2C45.2 67.6774 45.0104 68.1352 44.6728 68.4728C44.3352 68.8104 43.8774 69 43.4 69C42.9226 69 42.4648 68.8104 42.1272 68.4728C41.7896 68.1352 41.6 67.6774 41.6 67.2ZM47.6 67.2C47.6 66.6484 47.4914 66.1023 47.2803 65.5927C47.0692 65.0832 46.7599 64.6202 46.3698 64.2302C45.9798 63.8401 45.5168 63.5308 45.0073 63.3197C44.4977 63.1086 43.9516 63 43.4 63C42.8484 63 42.3023 63.1086 41.7927 63.3197C41.2832 63.5308 40.8202 63.8401 40.4302 64.2302C40.0401 64.6202 39.7308 65.0832 39.5197 65.5927C39.3086 66.1023 39.2 66.6484 39.2 67.2C39.2 67.7516 39.3086 68.2977 39.5197 68.8073C39.7308 69.3168 40.0401 69.7798 40.4302 70.1698C40.8202 70.5599 41.2832 70.8692 41.7927 71.0803C42.3023 71.2914 42.8484 71.4 43.4 71.4C43.9516 71.4 44.4977 71.2914 45.0073 71.0803C45.5168 70.8692 45.9798 70.5599 46.3698 70.1698C46.7599 69.7798 47.0692 69.3168 47.2803 68.8073C47.4914 68.2977 47.6 67.7516 47.6 67.2ZM57.8 60.6C57.8 59.4969 58.0173 58.4046 58.4394 57.3855C58.8616 56.3663 59.4803 55.4403 60.2603 54.6603C61.0403 53.8803 61.9663 53.2616 62.9855 52.8394C64.0046 52.4173 65.0969 52.2 66.2 52.2C67.3031 52.2 68.3954 52.4173 69.4145 52.8394C70.4337 53.2616 71.3597 53.8803 72.1397 54.6603C72.9197 55.4403 73.5384 56.3663 73.9606 57.3855C74.3827 58.4046 74.6 59.4969 74.6 60.6C74.6 61.7031 74.3827 62.7954 73.9606 63.8145C73.5384 64.8337 72.9197 65.7597 72.1397 66.5397C71.3597 67.3197 70.4337 67.9384 69.4145 68.3606C68.3954 68.7827 67.3031 69 66.2 69C65.0969 69 64.0046 68.7827 62.9855 68.3606C61.9663 67.9384 61.0403 67.3197 60.2603 66.5397C59.4803 65.7597 58.8616 64.8337 58.4394 63.8145C58.0173 62.7954 57.8 61.7031 57.8 60.6ZM77 60.6C77 57.7357 75.8621 54.9886 73.8368 52.9632C71.8114 50.9379 69.0643 49.8 66.2 49.8C63.3357 49.8 60.5886 50.9379 58.5632 52.9632C56.5379 54.9886 55.4 57.7357 55.4 60.6C55.4 63.4643 56.5379 66.2114 58.5632 68.2368C60.5886 70.2621 63.3357 71.4 66.2 71.4C69.0643 71.4 71.8114 70.2621 73.8368 68.2368C75.8621 66.2114 77 63.4643 77 60.6ZM67.4 55.8C67.4 55.14 66.86 54.6 66.2 54.6C65.54 54.6 65 55.14 65 55.8V59.4H61.4C60.74 59.4 60.2 59.94 60.2 60.6C60.2 61.26 60.74 61.8 61.4 61.8H65V65.4C65 66.06 65.54 66.6 66.2 66.6C66.86 66.6 67.4 66.06 67.4 65.4V61.8H71C71.66 61.8 72.2 61.26 72.2 60.6C72.2 59.94 71.66 59.4 71 59.4H67.4V55.8Z" fill="white"/>
</g>
<defs>
<clipPath id="clip0_4543_32245">
<rect width="48" height="38.4" fill="white" transform="translate(29 33)"/>
</clipPath>
</defs>
</svg>
