<svg width="64" height="64" viewBox="0 0 64 64" fill="none" xmlns="http://www.w3.org/2000/svg">
<rect width="64" height="64" rx="32" fill="#0095A9"/>
<g clip-path="url(#clip0_5667_689)">
<path d="M26.7686 34.45C27.2311 35.0083 27.7728 35.5667 28.3811 36.0833C29.8603 37.3333 31.7728 38.3333 33.9978 38.3333C36.2228 38.3333 38.1353 37.3333 39.6144 36.0833C41.0936 34.8333 42.1478 33.3333 42.6644 32.3333C42.1478 31.3333 41.0978 29.8333 39.6144 28.5833C38.1353 27.3333 36.2228 26.3333 33.9978 26.3333C31.7728 26.3333 29.8603 27.3333 28.3811 28.5833C27.7728 29.1 27.2311 29.6583 26.7686 30.2167L26.0478 31.0833L25.0728 30.5167L21.3353 28.3333L23.2436 31.6708L23.6228 32.3333L23.2436 32.9958L21.3353 36.3333L25.0728 34.1542L26.0478 33.5833L26.7686 34.45ZM20.1769 35.6708L22.0853 32.3333L20.1769 28.9958C19.8769 28.4708 19.9686 27.8125 20.3978 27.3875C20.8269 26.9625 21.4853 26.8792 22.0103 27.1833L25.7478 29.3625C26.2561 28.7542 26.8519 28.1375 27.5269 27.5667C29.1561 26.1875 31.3603 25 34.0019 25C36.6436 25 38.8478 26.1875 40.4811 27.5625C42.1103 28.9375 43.2686 30.5792 43.8561 31.7208C44.0519 32.1042 44.0519 32.5583 43.8561 32.9417C43.2686 34.0833 42.1103 35.725 40.4811 37.1C38.8478 38.4792 36.6436 39.6667 34.0019 39.6667C31.3603 39.6667 29.1561 38.4792 27.5228 37.1042C26.8478 36.5333 26.2519 35.9167 25.7436 35.3083L22.0061 37.4833C21.4853 37.7875 20.8228 37.7042 20.3936 37.2792C19.9644 36.8542 19.8769 36.1958 20.1769 35.6708ZM37.3353 31.3333C37.6005 31.3333 37.8549 31.4387 38.0424 31.6262C38.2299 31.8138 38.3353 32.0681 38.3353 32.3333C38.3353 32.5985 38.2299 32.8529 38.0424 33.0404C37.8549 33.228 37.6005 33.3333 37.3353 33.3333C37.0701 33.3333 36.8157 33.228 36.6282 33.0404C36.4406 32.8529 36.3353 32.5985 36.3353 32.3333C36.3353 32.0681 36.4406 31.8138 36.6282 31.6262C36.8157 31.4387 37.0701 31.3333 37.3353 31.3333Z" fill="white"/>
</g>
<defs>
<clipPath id="clip0_5667_689">
<rect width="24" height="24" fill="white" transform="translate(20 20)"/>
</clipPath>
</defs>
</svg>
