<svg width="65" height="64" viewBox="0 0 65 64" fill="none" xmlns="http://www.w3.org/2000/svg">
<rect x="0.333252" width="64" height="64" rx="32" fill="#35A131"/>
<g clip-path="url(#clip0_5667_3003)">
<path d="M30.6129 21.2797C30.9036 20.9891 30.9036 20.5109 30.6129 20.2203C30.3223 19.9297 29.8442 19.9297 29.5536 20.2203L28.0536 21.7203C27.7629 22.0109 27.7629 22.4891 28.0536 22.7797C28.3442 23.0703 28.8223 23.0703 29.1129 22.7797L30.6129 21.2797ZM39.6129 21.2797C39.9036 20.9891 39.9036 20.5109 39.6129 20.2203C39.3223 19.9297 38.8442 19.9297 38.5536 20.2203L37.0536 21.7203C36.7629 22.0109 36.7629 22.4891 37.0536 22.7797C37.3442 23.0703 37.8223 23.0703 38.1129 22.7797L39.6129 21.2797ZM23.8489 25.9063C24.1442 25.4188 24.4629 25.25 24.8333 25.25C25.2692 25.25 25.9161 25.4328 26.502 25.6625C27.3551 25.9953 28.3067 25.9953 29.1598 25.6625C29.7458 25.4328 30.3973 25.25 30.8286 25.25C31.1989 25.25 31.5176 25.4188 31.8129 25.9063C32.1317 26.4313 32.3286 27.2188 32.3286 28.0391C32.3286 28.3719 32.3051 28.6953 32.2583 29.0047H33.7723C33.8098 28.6906 33.8286 28.3719 33.8286 28.0391C33.8286 25.9953 32.8723 23.7547 30.8286 23.7547C30.0973 23.7547 29.2301 24.0313 28.6161 24.2703C28.1145 24.4672 27.5473 24.4672 27.0458 24.2703C26.4317 24.0266 25.5645 23.75 24.8333 23.75C22.7895 23.75 21.8333 25.9906 21.8333 28.0344C21.8333 28.3625 21.852 28.6859 21.8895 29H23.4036C23.3567 28.6906 23.3333 28.3719 23.3333 28.0344C23.3333 27.2141 23.5301 26.4313 23.8489 25.9016V25.9063ZM42.7723 29C42.8098 28.6859 42.8286 28.3672 42.8286 28.0344C42.8286 25.9906 41.8723 23.75 39.8286 23.75C39.0973 23.75 38.2301 24.0266 37.6161 24.2656C37.1145 24.4625 36.5473 24.4625 36.0458 24.2656C35.4645 24.0406 34.6583 23.7828 33.9551 23.75C34.1145 23.9375 34.2551 24.1391 34.377 24.3453C34.5879 24.6922 34.7614 25.0625 34.8973 25.4516C35.0989 25.5125 35.3004 25.5828 35.4973 25.6625C36.3504 25.9953 37.302 25.9953 38.1551 25.6625C38.7411 25.4328 39.3926 25.25 39.8239 25.25C40.1942 25.25 40.5129 25.4188 40.8083 25.9063C41.127 26.4313 41.3239 27.2188 41.3239 28.0391C41.3239 28.3719 41.3004 28.6953 41.2536 29.0047H42.7676L42.7723 29ZM21.8333 38H42.8333V41.375C42.8333 41.9984 42.3317 42.5 41.7083 42.5H22.9583C22.3348 42.5 21.8333 41.9984 21.8333 41.375V38ZM21.8333 36.5V33.125C21.8333 32.5016 22.3348 32 22.9583 32H41.7083C42.3317 32 42.8333 32.5016 42.8333 33.125V36.5H21.8333ZM44.3333 36.5V33.125C44.3333 31.6766 43.1567 30.5 41.7083 30.5H22.9583C21.5098 30.5 20.3333 31.6766 20.3333 33.125V36.5V37.25V38V41.375C20.3333 42.8234 21.5098 44 22.9583 44H41.7083C43.1567 44 44.3333 42.8234 44.3333 41.375V38V37.25V36.5ZM24.8333 34.25C24.8333 34.0511 24.7542 33.8603 24.6136 33.7197C24.4729 33.579 24.2822 33.5 24.0833 33.5C23.8843 33.5 23.6936 33.579 23.5529 33.7197C23.4123 33.8603 23.3333 34.0511 23.3333 34.25C23.3333 34.4489 23.4123 34.6397 23.5529 34.7803C23.6936 34.921 23.8843 35 24.0833 35C24.2822 35 24.4729 34.921 24.6136 34.7803C24.7542 34.6397 24.8333 34.4489 24.8333 34.25ZM40.5833 35C40.7822 35 40.9729 34.921 41.1136 34.7803C41.2542 34.6397 41.3333 34.4489 41.3333 34.25C41.3333 34.0511 41.2542 33.8603 41.1136 33.7197C40.9729 33.579 40.7822 33.5 40.5833 33.5C40.3843 33.5 40.1936 33.579 40.0529 33.7197C39.9123 33.8603 39.8333 34.0511 39.8333 34.25C39.8333 34.4489 39.9123 34.6397 40.0529 34.7803C40.1936 34.921 40.3843 35 40.5833 35ZM24.8333 40.25C24.8333 40.0511 24.7542 39.8603 24.6136 39.7197C24.4729 39.579 24.2822 39.5 24.0833 39.5C23.8843 39.5 23.6936 39.579 23.5529 39.7197C23.4123 39.8603 23.3333 40.0511 23.3333 40.25C23.3333 40.4489 23.4123 40.6397 23.5529 40.7803C23.6936 40.921 23.8843 41 24.0833 41C24.2822 41 24.4729 40.921 24.6136 40.7803C24.7542 40.6397 24.8333 40.4489 24.8333 40.25ZM40.5833 41C40.7822 41 40.9729 40.921 41.1136 40.7803C41.2542 40.6397 41.3333 40.4489 41.3333 40.25C41.3333 40.0511 41.2542 39.8603 41.1136 39.7197C40.9729 39.579 40.7822 39.5 40.5833 39.5C40.3843 39.5 40.1936 39.579 40.0529 39.7197C39.9123 39.8603 39.8333 40.0511 39.8333 40.25C39.8333 40.4489 39.9123 40.6397 40.0529 40.7803C40.1936 40.921 40.3843 41 40.5833 41Z" fill="white"/>
</g>
<defs>
<clipPath id="clip0_5667_3003">
<rect width="24" height="24" fill="white" transform="translate(20.3333 20)"/>
</clipPath>
</defs>
</svg>
