<svg width="64" height="64" viewBox="0 0 64 64" fill="none" xmlns="http://www.w3.org/2000/svg">
<rect width="64" height="64" rx="32" fill="#FDD10D"/>
<path d="M42.5 30.7594V31.5H39.3734C39.0641 30.6281 38.2297 30 37.25 30C36.2703 30 35.4359 30.6281 35.1266 31.5H21.5C21.5 31.0641 21.7156 30.6562 22.0813 30.4172L29.0516 25.7672C29.0188 25.9219 29 26.0813 29 26.25C29 27.4922 30.0078 28.5 31.25 28.5C32.4922 28.5 33.5 27.4922 33.5 26.25C33.5 25.1438 32.7031 24.225 31.6531 24.0375L33.7203 22.6594L32.8859 21.4078L33.7203 22.6547C33.875 22.5516 34.0578 22.4953 34.2406 22.4953C38.8016 22.5 42.5 26.1984 42.5 30.7594ZM35.1266 33C35.4359 33.8719 36.2703 34.5 37.25 34.5C38.2297 34.5 39.0641 33.8719 39.3734 33H42.5V39C42.5 39.8297 41.8297 40.5 41 40.5H23C22.1703 40.5 21.5 39.8297 21.5 39V33H35.1266ZM34.2359 21C33.7531 21 33.2844 21.1406 32.8812 21.4078L21.2469 29.1656C20.4688 29.6859 20 30.5625 20 31.5V39C20 40.6547 21.3453 42 23 42H41C42.6547 42 44 40.6547 44 39V31.5V30.7594C44 25.3687 39.6312 21 34.2406 21H34.2359ZM27.5 36.75C27.5 36.5511 27.579 36.3603 27.7197 36.2197C27.8603 36.079 28.0511 36 28.25 36C28.4489 36 28.6397 36.079 28.7803 36.2197C28.921 36.3603 29 36.5511 29 36.75C29 36.9489 28.921 37.1397 28.7803 37.2803C28.6397 37.421 28.4489 37.5 28.25 37.5C28.0511 37.5 27.8603 37.421 27.7197 37.2803C27.579 37.1397 27.5 36.9489 27.5 36.75ZM30.5 36.75C30.5 36.4545 30.4418 36.1619 30.3287 35.889C30.2157 35.616 30.0499 35.3679 29.841 35.159C29.6321 34.9501 29.384 34.7843 29.111 34.6713C28.8381 34.5582 28.5455 34.5 28.25 34.5C27.9545 34.5 27.6619 34.5582 27.389 34.6713C27.116 34.7843 26.8679 34.9501 26.659 35.159C26.4501 35.3679 26.2843 35.616 26.1713 35.889C26.0582 36.1619 26 36.4545 26 36.75C26 37.0455 26.0582 37.3381 26.1713 37.611C26.2843 37.884 26.4501 38.1321 26.659 38.341C26.8679 38.5499 27.116 38.7157 27.389 38.8287C27.6619 38.9418 27.9545 39 28.25 39C28.5455 39 28.8381 38.9418 29.111 38.8287C29.384 38.7157 29.6321 38.5499 29.841 38.341C30.0499 38.1321 30.2157 37.884 30.3287 37.611C30.4418 37.3381 30.5 37.0455 30.5 36.75ZM31.25 25.5C31.4489 25.5 31.6397 25.579 31.7803 25.7197C31.921 25.8603 32 26.0511 32 26.25C32 26.4489 31.921 26.6397 31.7803 26.7803C31.6397 26.921 31.4489 27 31.25 27C31.0511 27 30.8603 26.921 30.7197 26.7803C30.579 26.6397 30.5 26.4489 30.5 26.25C30.5 26.0511 30.579 25.8603 30.7197 25.7197C30.8603 25.579 31.0511 25.5 31.25 25.5ZM36.5 32.25C36.5 32.0511 36.579 31.8603 36.7197 31.7197C36.8603 31.579 37.0511 31.5 37.25 31.5C37.4489 31.5 37.6397 31.579 37.7803 31.7197C37.921 31.8603 38 32.0511 38 32.25C38 32.4489 37.921 32.6397 37.7803 32.7803C37.6397 32.921 37.4489 33 37.25 33C37.0511 33 36.8603 32.921 36.7197 32.7803C36.579 32.6397 36.5 32.4489 36.5 32.25Z" fill="black"/>
</svg>
