<svg width="65" height="64" viewBox="0 0 65 64" fill="none" xmlns="http://www.w3.org/2000/svg">
<rect x="0.333252" width="64" height="64" rx="32" fill="#CF202F"/>
<path d="M33.8754 30.4576C35.2817 31.8638 36.9364 32.8576 38.5348 33.2794C39.1067 33.4294 39.7161 33.5138 40.3161 33.4998L39.5051 34.3107C38.0989 35.7169 36.1911 36.5044 34.2036 36.5044H30.0786C28.8364 36.5044 27.8286 35.4966 27.8286 34.2544V30.1294C27.8286 28.1419 28.6208 26.2341 30.027 24.8279L30.8333 24.0216C30.8192 24.6216 30.9036 25.231 31.0536 25.8029C31.4754 27.4013 32.4692 29.056 33.8754 30.4623V30.4576ZM42.1161 31.2873C40.6536 32.7498 37.4426 31.9013 34.9348 29.3982C32.427 26.8951 31.5833 23.6794 33.0458 22.2169C33.5098 21.7529 34.1473 21.5232 34.8833 21.5044C35.3004 21.5138 35.7317 21.5794 36.1536 21.6873C37.5083 22.0435 38.9473 22.9013 40.1895 24.1388C41.4317 25.3763 42.2848 26.8201 42.6411 28.1748C42.7489 28.5919 42.8145 29.0138 42.8239 29.431C42.8051 30.1763 42.5754 30.8185 42.1067 31.2873H42.1161ZM36.627 20.2248C36.0645 20.0748 35.4645 19.9904 34.8739 20.0044C33.6692 19.9904 32.4036 20.3279 31.4051 21.3263L28.9676 23.7638C27.2801 25.4513 26.3333 27.7388 26.3333 30.1294V33.5044V34.2544V34.381C26.3333 34.5779 26.2536 34.7701 26.1129 34.9107L26.0192 35.0044C26.0192 35.0044 26.0192 35.0044 26.0145 35.0044C26.0098 35.0044 25.9911 35.0091 25.9583 35.0091C25.8879 35.0044 25.7942 34.9763 25.7145 34.9154C25.1567 34.4982 24.4629 34.2498 23.7083 34.2498C21.8426 34.2498 20.3333 35.7591 20.3333 37.6248C20.3333 39.3685 21.6551 40.8029 23.352 40.981C23.5301 42.6779 24.9645 43.9998 26.7083 43.9998C28.5739 43.9998 30.0833 42.4904 30.0833 40.6248C30.0833 39.8701 29.8348 39.1763 29.4176 38.6138C29.3614 38.5341 29.3286 38.4404 29.3239 38.3701C29.3239 38.3373 29.3286 38.3185 29.3286 38.3138C29.3286 38.3138 29.3286 38.3138 29.3286 38.3091L29.4223 38.2154C29.5629 38.0748 29.7551 37.9951 29.952 37.9951H30.0786H30.8286H34.2036C36.5895 37.9951 38.877 37.0482 40.5645 35.3607L43.0067 32.9185C44.0098 31.9154 44.3473 30.6404 44.3239 29.4263C44.3333 28.8404 44.2489 28.2544 44.1036 27.6966C43.6817 26.0982 42.6879 24.4435 41.2817 23.0373C39.8754 21.631 38.2208 20.6373 36.6223 20.2154L36.627 20.2248ZM28.1098 37.4373C27.6129 38.1216 27.8426 39.0076 28.2129 39.5044C28.4426 39.8185 28.5833 40.2029 28.5833 40.6201C28.5833 41.656 27.7442 42.4951 26.7083 42.4951C25.6723 42.4951 24.8333 41.656 24.8333 40.6201C24.8333 40.006 24.3223 39.4951 23.7083 39.4951C22.6723 39.4951 21.8333 38.656 21.8333 37.6201C21.8333 36.5841 22.6723 35.7451 23.7083 35.7451C24.1301 35.7451 24.5145 35.881 24.8239 36.1154C25.3254 36.4857 26.2067 36.7154 26.8911 36.2185C27.1958 36.7107 27.6129 37.1279 28.1051 37.4326L28.1098 37.4373ZM36.8286 27.5044C37.5458 28.2216 38.4645 28.4607 38.8817 28.0435C39.2989 27.6263 39.0598 26.7076 38.3426 25.9904C37.6254 25.2732 36.7067 25.0341 36.2895 25.4513C35.8723 25.8685 36.1114 26.7873 36.8286 27.5044Z" fill="white"/>
</svg>
