<svg width="65" height="64" viewBox="0 0 65 64" fill="none" xmlns="http://www.w3.org/2000/svg">
<rect x="0.666504" width="64" height="64" rx="32" fill="#9F6735"/>
<path d="M23.0665 29.4002C22.4028 29.4002 21.8665 28.8639 21.8665 28.2002C21.8665 26.4827 23.0065 25.3014 24.769 24.4914C26.5315 23.6777 28.6015 23.4002 29.6665 23.4002C30.7315 23.4002 32.8015 23.6777 34.564 24.4914C36.3265 25.3052 37.4665 26.4827 37.4665 28.2002C37.4665 28.8639 36.9303 29.4002 36.2665 29.4002C35.6028 29.4002 35.0665 29.9364 35.0665 30.6002V37.2002C35.0665 37.5302 34.7965 37.8002 34.4665 37.8002H32.6665H24.8665C24.5365 37.8002 24.2665 37.5302 24.2665 37.2002V30.6002C24.2665 29.9364 23.7303 29.4002 23.0665 29.4002ZM36.2665 30.6002H41.0665V37.2002C41.0665 37.5302 40.7965 37.8002 40.4665 37.8002H36.1653C36.2328 37.6127 36.2665 37.4102 36.2665 37.2002V31.8002V30.6002ZM42.0903 29.4114C42.049 29.4039 42.0078 29.4002 41.9665 29.4002H38.344C38.5465 29.0477 38.6665 28.6389 38.6665 28.2002C38.6665 25.8002 37.0165 24.3002 35.0665 23.4002H35.6665C36.7315 23.4002 38.8015 23.6777 40.564 24.4914C42.3265 25.3052 43.4665 26.4827 43.4665 28.2002C43.4665 28.8639 42.9303 29.4002 42.2665 29.4002C42.2065 29.4002 42.1465 29.4039 42.0903 29.4114ZM24.8665 39.0002H32.6665H34.4665H40.4665C41.4603 39.0002 42.2665 38.1939 42.2665 37.2002V31.8002V30.6002C43.5903 30.6002 44.6665 29.5239 44.6665 28.2002C44.6665 23.4002 38.0665 22.2002 35.6665 22.2002H30.8665H29.6665C27.2665 22.2002 20.6665 23.4002 20.6665 28.2002C20.6665 29.5239 21.7428 30.6002 23.0665 30.6002V31.8002V37.2002C23.0665 38.1939 23.8728 39.0002 24.8665 39.0002Z" fill="white"/>
</svg>
