<svg width="423" height="138" viewBox="0 0 423 138" fill="none" xmlns="http://www.w3.org/2000/svg">
<g clip-path="url(#clip0_4051_4820)">
<path fill-rule="evenodd" clip-rule="evenodd" d="M12.0518 59.0364L8.05526 71.1114H7.97257L6.24716 64.6531L4.30399 58.6914H0.00561523V59.3124L6.63166 78.3564H9.14811L12.8443 67.8269H12.9269L16.7333 78.3564H19.1699L25.7684 59.3124V58.6914H21.47L19.553 64.6255L17.9378 71.1114H17.8551L13.7207 59.0364H12.0518ZM32.6742 64.4321C31.7566 64.3862 30.8396 64.5326 29.9817 64.8617C29.1238 65.1908 28.3439 65.6953 27.6919 66.3434C27.0398 66.9915 26.53 67.7687 26.195 68.6253C25.86 69.482 25.7072 70.3992 25.7463 71.3183C25.7463 75.8585 28.8678 78.6047 33.304 78.5219C35.0766 78.5057 36.8243 78.1008 38.4237 77.3352L37.9855 74.4924C36.9792 74.9081 35.9188 75.1777 34.8364 75.2929C34.2547 75.357 33.6683 75.3663 33.0848 75.3205C31.2505 75.1825 29.7167 74.3818 29.5803 72.2842H38.5381C39.5455 67.7164 37.4921 64.4321 32.6742 64.4321ZM32.6742 67.4131C34.0978 67.4131 35.4938 68.0203 35.4111 69.7867H29.6064C29.7456 69.0869 30.1328 68.4612 30.6966 68.025C31.2605 67.5887 31.9628 67.3714 32.6742 67.4131ZM56.7707 76.1345C56.7707 78.5219 58.962 78.6323 60.9602 78.1907L60.9327 76.0243C59.6731 76.1071 59.7006 75.4309 59.7006 74.2993V69.4417C59.7006 65.5777 56.7983 64.4321 53.404 64.4321C51.6965 64.4004 50.0029 64.7442 48.4427 65.4395L48.9347 68.2271C50.1089 67.6224 51.4226 67.3416 52.7411 67.4131C54.0544 67.4131 56.0265 67.689 56.0265 69.3312V70.2557C54.9624 69.6436 53.7483 69.3426 52.522 69.3864C49.5921 69.3864 47.2644 70.9459 47.4022 74.2441C47.4832 75.436 48.0331 76.5471 48.9311 77.3336C49.8292 78.12 51.0021 78.5177 52.1926 78.4393C53.0929 78.5087 53.995 78.3306 54.8018 77.9245C55.6085 77.5184 56.2893 76.8994 56.7707 76.1345ZM55.9439 73.3745C55.806 74.7959 54.2198 75.4307 52.9602 75.4307C52.5294 75.4743 52.0987 75.3472 51.7606 75.0762C51.4225 74.8053 51.204 74.4124 51.1521 73.9819C51.1263 73.7041 51.1615 73.4237 51.2552 73.1609C51.349 72.8981 51.499 72.6593 51.6948 72.4608C51.8906 72.2622 52.1274 72.1089 52.3886 72.0117C52.6498 71.9145 52.9291 71.8758 53.2069 71.8981C54.175 71.8822 55.1266 72.1506 55.9439 72.6707V73.3745ZM63.3665 57.808V73.0986C63.3665 77.9148 65.8305 78.9497 69.9098 78.1907L69.772 75.2652C67.9377 75.5688 67.1439 75.1548 67.1439 73.0986V57.808H63.3651H63.3665ZM71.8282 57.808V73.0986C71.8282 77.9148 74.2922 78.9497 78.3715 78.1907L78.2337 75.2652C76.3994 75.5688 75.6056 75.1548 75.6056 73.0986V57.808H71.8268H71.8282ZM95.9454 76.3002C96.0267 78.6324 98.3819 78.6599 100.298 78.2183L100.271 75.6793C98.8739 75.7759 99.0393 75.0443 99.0393 73.7333V57.8357H95.2054V65.2741C90.6052 62.9557 85.8685 66.1849 85.8685 71.4841C85.8685 75.2377 87.9771 78.6047 91.975 78.5219C92.8171 78.5315 93.6433 78.2917 94.3497 77.8325C95.0562 77.3734 95.6113 76.7156 95.9454 75.9414V76.3002ZM95.3156 72.0083C95.3452 72.3913 95.2971 72.7764 95.174 73.1403C95.051 73.5042 94.8557 73.8395 94.5998 74.1258C94.3439 74.4121 94.0328 74.6434 93.6852 74.806C93.3376 74.9687 92.9607 75.059 92.5773 75.0719C90.5239 75.0719 89.6749 73.4023 89.6749 71.4841C89.6749 68.1169 92.5773 66.9437 95.3156 68.5583V72.0083ZM109.173 64.4321C108.255 64.3862 107.338 64.5326 106.48 64.8617C105.622 65.1908 104.842 65.6953 104.19 66.3434C103.538 66.9915 103.029 67.7687 102.694 68.6253C102.359 69.482 102.206 70.3992 102.245 71.3183C102.245 75.8585 105.366 78.6047 109.801 78.5219C111.574 78.5059 113.322 78.101 114.922 77.3352L114.484 74.4924C113.478 74.9081 112.417 75.1777 111.335 75.2929C110.753 75.357 110.167 75.3663 109.583 75.3205C107.748 75.1825 106.215 74.3818 106.079 72.2842H115.037C116.056 67.7164 114.003 64.4321 109.185 64.4321H109.173ZM109.173 67.4131C110.596 67.4131 111.992 68.0203 111.91 69.7867H106.105C106.244 69.0847 106.633 68.4571 107.2 68.0206C107.766 67.5841 108.472 67.3683 109.185 67.4131H109.173ZM117.279 74.0921C117.417 77.6663 120.455 78.5495 123.439 78.5495C126.423 78.5495 129.299 77.3628 129.38 74.1474C129.463 70.5594 126.095 70.3109 123.139 69.9521C122.29 69.8693 121.249 69.7315 121.249 68.7241C121.289 68.4983 121.373 68.2828 121.497 68.09C121.62 67.8972 121.781 67.7309 121.97 67.6011C122.159 67.4713 122.371 67.3805 122.595 67.334C122.819 67.2874 123.05 67.2862 123.275 67.3302C124.378 67.3302 125.301 67.7166 125.328 68.6964H128.942C129.08 65.8536 126.369 64.4045 123.22 64.4045C119.99 64.4045 117.553 65.8258 117.553 68.8342C117.553 72.091 120.998 72.45 123.658 72.8226C124.59 72.9606 125.548 73.071 125.548 74.1474C125.52 75.348 124.397 75.6793 123.275 75.6793C123.028 75.7267 122.774 75.7225 122.528 75.6672C122.283 75.6118 122.051 75.5065 121.848 75.3576C121.645 75.2087 121.475 75.0194 121.348 74.8017C121.221 74.584 121.141 74.3424 121.111 74.0921H117.279ZM138.226 64.4321C137.309 64.3861 136.392 64.5325 135.534 64.8617C134.676 65.1908 133.896 65.6956 133.245 66.3438C132.593 66.9919 132.083 67.7691 131.748 68.6257C131.413 69.4823 131.261 70.3992 131.3 71.3183C131.3 75.8585 134.42 78.6047 138.856 78.5219C140.629 78.5057 142.376 78.1008 143.976 77.3352L143.538 74.4924C142.532 74.9082 141.471 75.1779 140.389 75.2929C139.807 75.357 139.221 75.3663 138.637 75.3205C136.803 75.1825 135.269 74.3818 135.132 72.2842H144.09C145.112 67.7164 143.058 64.4321 138.239 64.4321H138.226ZM138.226 67.4131C139.65 67.4131 141.046 68.0203 140.965 69.7867H135.16C135.299 69.0847 135.688 68.4568 136.254 68.0202C136.82 67.5837 137.526 67.3681 138.239 67.4131H138.226ZM151.288 66.6402C151.069 64.239 148.256 64.2392 146.327 64.6808V67.0819C147.533 66.8887 147.642 67.6063 147.642 68.7241V78.1907H151.393V70.918C151.365 70.5005 151.426 70.0819 151.571 69.6893C151.715 69.2968 151.941 68.9393 152.233 68.6398C152.525 68.3404 152.876 68.1058 153.265 67.9515C153.653 67.7972 154.069 67.7267 154.487 67.7443C155.366 67.7138 156.231 67.9706 156.951 68.4758L157.8 65.2188C156.984 64.6188 155.99 64.3123 154.979 64.3492C154.204 64.3003 153.433 64.4948 152.774 64.9055C152.114 65.3161 151.599 65.9226 151.301 66.6402H151.288ZM166.35 78.3841L172.839 65.2188V64.7633H168.759L167.199 68.4205L165.584 72.7121H165.529L163.941 68.4205L162.379 64.7633H158.273V65.2188L164.762 78.3841H166.35ZM180.562 64.4321C179.645 64.3862 178.728 64.5326 177.87 64.8617C177.012 65.1908 176.232 65.6953 175.58 66.3434C174.928 66.9915 174.418 67.7687 174.083 68.6253C173.748 69.482 173.596 70.3992 173.635 71.3183C173.635 75.8585 176.756 78.6047 181.192 78.5219C182.965 78.5057 184.713 78.1008 186.312 77.3352L185.874 74.4924C184.868 74.9082 183.807 75.1779 182.725 75.2929C182.143 75.357 181.557 75.3663 180.973 75.3205C179.139 75.1825 177.605 74.3818 177.469 72.2842H186.426C187.446 67.7164 185.393 64.4321 180.575 64.4321H180.562ZM180.562 67.4131C181.986 67.4131 183.382 68.0203 183.299 69.7867H177.496C177.635 69.0847 178.024 68.4568 178.59 68.0202C179.156 67.5837 179.862 67.3681 180.575 67.4131H180.562Z" fill="white"/>
<path fill-rule="evenodd" clip-rule="evenodd" d="M308.787 104.535C299.279 114.767 286.122 120.828 272.177 121.399C258.231 121.97 244.624 117.005 234.314 107.585C229.226 102.939 225.108 97.3299 222.197 91.0814C219.286 84.8328 217.64 78.0685 217.355 71.1795C217.069 64.2905 218.15 57.4134 220.534 50.9448C222.917 44.4762 226.557 38.5446 231.243 33.4926C240.6 23.4217 253.497 17.3847 267.214 16.656C280.932 15.9274 294.395 20.5639 304.762 29.5871L301.895 32.4162C292.118 24.0039 279.418 19.7987 266.561 20.7162C253.703 21.6337 241.727 27.5997 233.24 37.3153C229.058 42.1102 225.865 47.6875 223.847 53.725C221.829 59.7625 221.026 66.1403 221.483 72.4904C221.941 78.8406 223.65 85.037 226.513 90.7219C229.376 96.4067 233.335 101.467 238.162 105.611C247.756 113.86 260.169 118.067 272.794 117.349C285.42 116.631 297.277 111.044 305.877 101.761L303.099 99.1117C295.043 107.835 283.873 113.02 272.018 113.54C260.164 114.059 248.584 109.871 239.798 101.886C235.462 97.9474 231.948 93.1879 229.459 87.8824C226.97 82.5768 225.556 76.8303 225.297 70.9743C225.039 65.1183 225.941 59.2689 227.953 53.7641C229.964 48.2593 233.045 43.2081 237.016 38.9021C245.075 30.1805 256.246 24.9977 268.1 24.4809C279.955 23.964 291.533 28.1548 300.318 36.1421C301.394 37.1219 302.421 38.1569 303.394 39.2333L320.841 21.9971C308.26 8.5885 290.9 0.697566 272.538 0.0411236C254.176 -0.615319 236.298 6.01579 222.794 18.4919C216.13 24.6405 210.748 32.0506 206.961 40.2939C203.173 48.5373 201.054 57.4505 200.726 66.5186C200.399 75.5867 201.869 84.6299 205.052 93.1258C208.235 101.622 213.067 109.402 219.27 116.017C231.851 129.424 249.209 137.315 267.57 137.974C285.931 138.633 303.809 132.007 317.316 119.536C318.535 118.404 319.712 117.231 320.848 116.017L308.787 104.535ZM361.339 63.2041C360.83 62.6543 360.209 62.2215 359.517 61.9356C358.826 61.6497 358.08 61.5176 357.333 61.5482C356.181 61.5095 355.048 61.8487 354.106 62.5141C354.493 63.0307 354.81 63.5969 355.046 64.1976C355.195 64.5803 355.302 64.9781 355.363 65.3843C355.759 65.1922 356.194 65.0931 356.634 65.0945C356.971 65.0779 357.308 65.1362 357.62 65.265C357.933 65.3938 358.213 65.59 358.441 65.8398C358.899 66.4233 359.126 67.1552 359.08 67.896V76.7143H362.84V67.6338C362.923 66.0194 362.386 64.4344 361.339 63.2041ZM353.924 67.275C353.944 66.4281 353.822 65.5838 353.563 64.7771C353.124 63.5972 352.278 62.6134 351.178 62.0033C350.504 61.688 349.767 61.5324 349.024 61.5482C348.234 61.4971 347.446 61.6534 346.735 62.002C346.025 62.3506 345.418 62.8792 344.975 63.5353V61.9619H341.215V76.7143H344.975V68.4205C344.913 67.534 345.178 66.6554 345.718 65.9503C345.967 65.6694 346.275 65.4469 346.619 65.299C346.964 65.1511 347.337 65.0813 347.712 65.0945C348.049 65.0779 348.386 65.1362 348.698 65.265C349.011 65.3938 349.291 65.59 349.519 65.8398C349.977 66.4232 350.205 67.155 350.159 67.896V76.7143H353.918V68.117C353.93 67.7582 353.929 67.4544 353.918 67.2612V67.275H353.924ZM300.135 63.2041C299.626 62.6542 299.004 62.2212 298.313 61.9353C297.621 61.6494 296.875 61.5174 296.127 61.5482C294.976 61.5094 293.843 61.8486 292.902 62.5141C293.289 63.0307 293.605 63.597 293.841 64.1976C293.99 64.5803 294.096 64.9781 294.158 65.3843C294.554 65.1922 294.988 65.0931 295.428 65.0945C295.766 65.0779 296.103 65.1362 296.415 65.265C296.727 65.3938 297.007 65.59 297.235 65.8398C297.693 66.4232 297.922 67.155 297.876 67.896V76.7143H301.634V67.6338C301.719 66.0194 301.183 64.4339 300.135 63.2041ZM292.719 67.275C292.738 66.4281 292.616 65.5838 292.358 64.7771C291.919 63.5972 291.073 62.6134 289.972 62.0033C289.298 61.6883 288.561 61.5327 287.817 61.5482C287.028 61.4972 286.238 61.6537 285.528 62.0023C284.818 62.3509 284.21 62.8793 283.767 63.5353V61.9619H280.01V76.7143H283.769V68.4205C283.708 67.534 283.972 66.6554 284.512 65.9503C284.761 65.6693 285.07 65.4469 285.415 65.299C285.759 65.1511 286.133 65.0812 286.508 65.0945C286.845 65.078 287.182 65.1365 287.494 65.2653C287.806 65.3941 288.086 65.5902 288.313 65.8398C288.772 66.423 289.001 67.1549 288.955 67.896V76.7143H292.715V68.117C292.725 67.7582 292.723 67.4544 292.715 67.2612V67.275H292.719ZM253.278 77.1419C252.257 77.1634 251.242 76.9722 250.298 76.5802C249.354 76.1883 248.501 75.6042 247.795 74.865C246.381 73.329 245.596 71.3166 245.596 69.2278C245.596 67.1389 246.381 65.1266 247.795 63.5905C248.998 62.3779 250.569 61.5993 252.261 61.377C253.954 61.1547 255.672 61.5012 257.147 62.3621C258.282 63.026 259.201 64.0035 259.796 65.1774L256.558 67.1231C256.273 66.5138 255.812 66.0045 255.234 65.6605C254.483 65.2129 253.604 65.0293 252.737 65.1393C251.87 65.2493 251.065 65.6466 250.449 66.2676C249.737 67.0807 249.344 68.1253 249.344 69.2069C249.344 70.2885 249.737 71.3334 250.449 72.1465C250.808 72.5239 251.242 72.8218 251.723 73.0214C252.205 73.221 252.722 73.3181 253.243 73.3058C253.952 73.3091 254.649 73.1231 255.263 72.7674C255.844 72.4343 256.307 71.9277 256.587 71.3183L259.847 73.2367C259.218 74.4086 258.282 75.3868 257.14 76.0658C255.98 76.7779 254.642 77.146 253.281 77.1281V77.1419H253.278ZM370.649 65.7569C371.372 65.2186 372.256 64.9416 373.156 64.9705C373.979 64.9637 374.781 65.2254 375.443 65.7158C376.151 66.2665 376.624 67.0651 376.768 67.9512H369.34C369.504 67.0862 369.971 66.308 370.656 65.7569H370.649ZM375.866 72.3948C375.556 72.6326 375.234 72.8536 374.901 73.0571C374.356 73.3694 373.747 73.5498 373.12 73.5834C372.493 73.617 371.868 73.5029 371.293 73.2505C370.818 73.0327 370.399 72.7075 370.07 72.3004C369.742 71.8934 369.511 71.4153 369.398 70.9043H380.383C380.474 70.3894 380.52 69.8678 380.521 69.345C380.58 67.2937 379.831 65.3014 378.437 63.7974C377.767 63.0679 376.949 62.4899 376.038 62.102C375.128 61.7141 374.144 61.5255 373.155 61.5482C372.128 61.514 371.104 61.6952 370.151 62.0801C369.198 62.4651 368.335 63.0453 367.619 63.7836C366.887 64.4856 366.301 65.3258 365.895 66.2559C365.489 67.1859 365.271 68.1876 365.253 69.2025C365.236 70.2174 365.419 71.2255 365.793 72.169C366.167 73.1125 366.724 73.9725 367.431 74.6993C368.599 75.8906 370.116 76.6777 371.761 76.9458C373.406 77.2139 375.094 76.9491 376.578 76.1898C378.104 75.3001 379.335 73.9802 380.117 72.3948H375.864H375.866ZM323.679 55.3105H327.175V71.2769C327.175 72.7535 327.642 73.3745 328.924 73.3745C329.276 73.3862 329.629 73.3493 329.971 73.2643V76.4795C329.431 76.6142 328.874 76.6748 328.317 76.6591C326.424 76.6591 323.686 76.1208 323.686 71.7738V55.3105H323.679ZM415.062 66.1433C415.082 66.3624 415.166 66.5709 415.303 66.7427C415.44 66.9145 415.625 67.0419 415.834 67.1093C416.438 67.3811 417.066 67.5985 417.708 67.7581C418.461 67.9446 419.201 68.1797 419.923 68.462C420.671 68.7525 421.321 69.25 421.797 69.8969C422.331 70.6173 422.603 71.4985 422.569 72.3948C422.603 73.0724 422.468 73.7476 422.175 74.3596C421.883 74.9717 421.443 75.5012 420.895 75.9C419.667 76.7439 418.201 77.1695 416.713 77.1143C415.457 77.2367 414.193 76.9652 413.097 76.3373C412 75.7094 411.126 74.7563 410.594 73.6093L413.858 71.7462C414.039 72.347 414.423 72.8665 414.943 73.2162C415.464 73.5658 416.089 73.724 416.713 73.6643C418.054 73.6643 418.725 73.2366 418.724 72.3948C418.706 72.175 418.624 71.9655 418.486 71.7934C418.348 71.6212 418.163 71.4943 417.952 71.4288C417.348 71.1529 416.72 70.9312 416.077 70.7665C415.323 70.5708 414.584 70.3264 413.862 70.035C413.127 69.7344 412.482 69.2497 411.988 68.6274C411.458 67.9419 411.185 67.0923 411.216 66.2262C411.189 65.5683 411.318 64.9135 411.595 64.3159C411.871 63.7183 412.285 63.1951 412.804 62.79C413.939 61.934 415.332 61.4912 416.752 61.5343C417.884 61.5179 419 61.7984 419.989 62.3483C420.961 62.891 421.757 63.7003 422.285 64.6808L419.08 66.4469C418.896 65.9844 418.573 65.5909 418.155 65.3213C417.737 65.0516 417.246 64.9194 416.749 64.9429C416.324 64.9284 415.903 65.0387 415.539 65.2603C415.389 65.3529 415.265 65.4829 415.179 65.6376C415.094 65.7924 415.05 65.9665 415.051 66.1433H415.062ZM407.531 65.6191H404.223V71.7462C404.205 71.9487 404.229 72.153 404.294 72.3456C404.359 72.5381 404.464 72.7148 404.602 72.8641C404.911 73.1235 405.302 73.2653 405.705 73.2643C406.307 73.3011 406.91 73.2965 407.512 73.2505V76.7005C405.662 77.113 403.726 76.8537 402.049 75.9691C401.468 75.4425 401.02 74.7845 400.744 74.05C400.468 73.3156 400.371 72.5258 400.461 71.7462V57.8219H404.219V61.9619H407.512V65.6191H407.527H407.531ZM391.589 61.5482C392.323 61.5283 393.053 61.6613 393.733 61.9393C394.412 62.2173 395.027 62.634 395.537 63.1626C396.629 64.3918 397.19 66.0049 397.096 67.6476V76.7143H393.338V68.1308C393.366 67.7199 393.311 67.3072 393.175 66.9182C393.04 66.5293 392.828 66.1719 392.551 65.8674C392.271 65.6027 391.942 65.3967 391.581 65.2616C391.221 65.1265 390.838 65.065 390.453 65.0807C390.022 65.0657 389.592 65.1402 389.191 65.2994C388.79 65.4585 388.425 65.6989 388.121 66.0055C387.485 66.7674 387.172 67.7479 387.248 68.7379V76.7143H383.489V61.9619H387.248V63.6182C387.727 62.9257 388.379 62.3704 389.139 62.0074C389.899 61.6443 390.74 61.4861 391.579 61.5482H391.589ZM310.464 72.3257C311.239 73.078 312.275 73.4988 313.354 73.4988C314.434 73.4988 315.47 73.078 316.245 72.3257C316.986 71.5045 317.395 70.4376 317.395 69.3312C317.395 68.2248 316.986 67.1579 316.245 66.3367C315.868 65.9554 315.416 65.6558 314.918 65.4564C314.42 65.257 313.887 65.162 313.351 65.1774C312.816 65.1582 312.283 65.2513 311.786 65.451C311.289 65.6506 310.84 65.9525 310.467 66.3367C309.733 67.1607 309.327 68.2256 309.325 69.3295C309.323 70.4334 309.726 71.4993 310.457 72.3257H310.467H310.464ZM314.047 61.5482C314.996 61.5417 315.936 61.7389 316.803 62.127C317.67 62.515 318.443 63.0847 319.072 63.7974C320.415 65.3268 321.156 67.2941 321.156 69.3312C321.156 71.3683 320.415 73.3356 319.072 74.865C318.447 75.5826 317.674 76.1554 316.807 76.5439C315.939 76.9323 314.997 77.1269 314.047 77.1143C313.145 77.1633 312.244 76.9932 311.422 76.6183C310.6 76.2435 309.881 75.6752 309.325 74.9617V82.607H305.577V61.9619H309.325V63.7007C309.88 62.987 310.599 62.4187 311.421 62.0438C312.242 61.6689 313.143 61.4988 314.044 61.5482H314.047ZM266.615 72.257C267.37 72.9913 268.381 73.4018 269.433 73.4018C270.486 73.4018 271.497 72.9913 272.252 72.257C272.983 71.4609 273.388 70.4193 273.388 69.3383C273.388 68.2572 272.983 67.2153 272.252 66.4193C271.886 66.0418 271.446 65.7441 270.96 65.5446C270.474 65.3452 269.951 65.2485 269.426 65.2603C268.902 65.2451 268.381 65.3405 267.897 65.5402C267.413 65.74 266.976 66.0393 266.615 66.4193C265.892 67.2191 265.491 68.2596 265.491 69.3383C265.491 70.417 265.892 71.4572 266.615 72.257ZM274.904 74.865C273.45 76.3104 271.485 77.1213 269.436 77.1213C267.388 77.1213 265.422 76.3104 263.969 74.865C262.539 73.3785 261.74 71.395 261.74 69.3312C261.74 67.2674 262.539 65.2839 263.969 63.7974C265.424 62.3551 267.389 61.5461 269.436 61.5461C271.484 61.5461 273.449 62.3551 274.904 63.7974C276.343 65.2791 277.148 67.2644 277.148 69.3312C277.148 71.398 276.343 73.3833 274.904 74.865ZM333.423 61.7965H337.096V76.7143H333.418V61.7965H333.423ZM333.055 58.4155C333.069 57.982 333.21 57.5619 333.46 57.208C333.71 56.8541 334.059 56.582 334.463 56.4254C334.867 56.2688 335.308 56.2348 335.731 56.3277C336.154 56.4205 336.541 56.6359 336.842 56.9473C337.144 57.2586 337.347 57.652 337.427 58.0783C337.506 58.5046 337.459 58.9449 337.29 59.3444C337.122 59.7439 336.839 60.0848 336.478 60.3245C336.117 60.5642 335.694 60.6922 335.26 60.6924C334.669 60.6758 334.107 60.4285 333.695 60.0031C333.283 59.5777 333.054 59.0081 333.055 58.4155Z" fill="white"/>
</g>
<defs>
<clipPath id="clip0_4051_4820">
<rect width="423" height="138" fill="white"/>
</clipPath>
</defs>
</svg>
