<svg width="97" height="96" viewBox="0 0 97 96" fill="none" xmlns="http://www.w3.org/2000/svg">
<rect x="0.5" width="96" height="96" rx="48" fill="#222D5F"/>
<path d="M59.8381 40.6155L57.4752 36.4534V32.938C57.4752 32.42 57.0552 32 56.5372 32H40.4655C39.9475 32 39.5275 32.42 39.5275 32.938V36.4536L37.2008 40.5519C37.0988 40.7021 37.0391 40.8833 37.0391 41.0785V63.062C37.0391 63.58 37.459 64 37.9771 64H59.0223C59.5404 64 59.9604 63.58 59.9604 63.062V41.0785C59.9604 40.9161 59.9182 40.7566 59.8381 40.6155ZM38.9151 42.0166H53.114V50.7072C52.4508 50.8204 52.0044 51.0416 51.6248 51.2307C51.1564 51.464 50.8178 51.6326 50.034 51.6326C49.2502 51.6326 48.9117 51.464 48.4432 51.2307C47.9077 50.9639 47.2412 50.632 46.016 50.632C44.7909 50.632 44.1244 50.964 43.5889 51.2307C43.1205 51.464 42.782 51.6326 41.9982 51.6326C41.2145 51.6326 40.8761 51.464 40.4076 51.2307C40.0274 51.0414 39.5802 50.8197 38.9151 50.7067V42.0166ZM53.5059 40.1405H39.5917L41.0118 37.6391H54.926L53.5059 40.1405ZM55.5992 33.8761V35.763H41.4036V33.8761H55.5992ZM38.9151 52.6281C39.1469 52.699 39.3439 52.7967 39.5712 52.9099C40.1067 53.1767 40.7732 53.5086 41.9982 53.5086C43.2233 53.5086 43.8898 53.1766 44.4253 52.9099C44.8938 52.6766 45.2322 52.508 46.0161 52.508C46.7999 52.508 47.1384 52.6765 47.6069 52.9099C48.1424 53.1767 48.8089 53.5086 50.0341 53.5086C51.2593 53.5086 51.9257 53.1766 52.4613 52.9099C52.6875 52.7972 52.8837 52.7 53.1141 52.6292V62.1239H38.9151V52.6281ZM58.0843 62.1239H54.9901V41.3262L56.5372 38.6011L58.0843 41.3262V62.1239Z" fill="white"/>
</svg>
