<svg width="185" height="80" viewBox="0 0 185 80" fill="none" xmlns="http://www.w3.org/2000/svg">
<rect x="0.5" y="0.5" width="184" height="79" rx="11.5" fill="white"/>
<rect x="0.5" y="0.5" width="184" height="79" rx="11.5" stroke="#C4C4C4"/>
<g clip-path="url(#clip0_27818_168694)">
<path d="M166.247 51.6595H166.06V51.3751H166.362C166.484 51.3751 166.639 51.3913 166.639 51.5132C166.639 51.692 166.394 51.6595 166.247 51.6595ZM166.794 51.5132C166.794 51.2695 166.598 51.2126 166.394 51.2126H165.905V52.342H166.06V51.822H166.247L166.59 52.342H166.777L166.435 51.822C166.639 51.822 166.794 51.7326 166.794 51.5132ZM166.288 52.6588C165.815 52.6588 165.416 52.277 165.416 51.7895C165.416 51.302 165.815 50.912 166.288 50.912C166.761 50.912 167.16 51.302 167.16 51.7895C167.16 52.277 166.761 52.6588 166.288 52.6588ZM166.288 50.7495C165.709 50.7495 165.253 51.2126 165.253 51.7895C165.253 52.3582 165.709 52.8213 166.288 52.8213C166.867 52.8213 167.324 52.3582 167.324 51.7895C167.324 51.2126 166.867 50.7495 166.288 50.7495ZM156.457 47.4507C156.457 47.4507 154.712 47.4507 154.345 47.4507V37.8632H156.457C159.09 37.8632 161.234 40.0163 161.234 42.657C161.234 45.2976 159.09 47.4507 156.457 47.4507ZM156.457 32.9395H151.72C150.277 32.9395 149.103 34.1176 149.103 35.572V49.742C149.103 51.1882 150.277 52.3745 151.72 52.3745H156.457C161.788 52.3745 166.125 48.0113 166.125 42.657C166.125 37.3026 161.788 32.9395 156.457 32.9395ZM89.2746 47.4507C89.2746 47.4507 87.5301 47.4507 87.1632 47.4507V37.8632H89.2746C91.9078 37.8632 94.0436 40.0163 94.0436 42.657C94.0436 45.2976 91.9078 47.4507 89.2746 47.4507ZM89.2746 32.9395H84.5382C83.0953 32.9395 81.9214 34.1176 81.9214 35.572V49.742C81.9214 51.1882 83.0953 52.3745 84.5382 52.3745H89.2746C94.6061 52.3745 98.9431 48.0113 98.9431 42.657C98.9431 37.3026 94.6061 32.9395 89.2746 32.9395ZM69.9458 47.4507C67.3127 47.4507 65.1768 45.2976 65.1768 42.657C65.1768 40.0163 67.3127 37.8632 69.9458 37.8632C72.579 37.8632 74.7148 40.0163 74.7148 42.657C74.7148 45.2976 72.579 47.4507 69.9458 47.4507ZM69.9458 32.9395C64.6143 32.9395 60.2773 37.3026 60.2773 42.657C60.2773 48.0113 64.6143 52.3745 69.9458 52.3745C75.2773 52.3745 79.6143 48.0113 79.6143 42.657C79.6143 37.3026 75.2773 32.9395 69.9458 32.9395ZM48.6686 47.4507C46.0355 47.4507 43.8996 45.2976 43.8996 42.657C43.8996 40.0163 46.0355 37.8632 48.6686 37.8632C51.3018 37.8632 53.4377 40.0163 53.4377 42.657C53.4377 45.2976 51.3018 47.4507 48.6686 47.4507ZM48.6686 32.9395C45.0165 32.9395 41.8371 34.987 40.1904 37.9932C39.848 36.937 38.8616 36.1732 37.704 36.1732H22.0029C20.5518 36.1732 19.3779 37.3513 19.3779 38.8057V49.3926C19.3779 51.0745 20.7393 52.4395 22.4186 52.4395C24.0898 52.4395 25.4513 51.0745 25.4513 49.3926V41.4382H37.704C38.2339 41.4382 38.7311 41.2757 39.1469 40.9995C39.0572 41.5357 39.0002 42.0882 39.0002 42.657C39.0002 48.0113 43.3371 52.3745 48.6686 52.3745C54.0002 52.3745 58.3371 48.0113 58.3371 42.657C58.3371 37.3026 54.0002 32.9395 48.6686 32.9395ZM38.6333 32.9232C40.1578 32.9232 41.4051 31.6801 41.4051 30.1445C41.4051 28.6088 40.1578 27.3657 38.6333 27.3657H20.8616C19.329 27.3657 18.0898 28.6088 18.0898 30.1445C18.0898 31.6801 19.329 32.9232 20.8616 32.9232H38.6333ZM144.294 33.0126C142.851 33.0126 141.677 34.1907 141.677 35.6451V42.2507C139.305 39.5207 134.641 34.1257 134.389 33.8495C133.9 33.3132 133.19 33.0126 132.465 33.0126C131.022 33.0126 129.848 34.1907 129.848 35.6451V49.1732C129.807 48.897 129.718 48.6126 129.587 48.3526C129.587 48.3526 129.587 48.3445 122.095 34.3045V34.3126C121.647 33.1832 120.864 32.5007 119.959 32.5007C119.03 32.5007 118.207 33.2076 117.758 34.3938L117.815 34.3695C117.669 34.5807 117.416 35.1088 116.813 36.3438L111.644 47.0201L111.603 47.0445H105.987V35.572C105.987 34.1176 104.813 32.9313 103.362 32.9313C101.919 32.9313 100.745 34.1176 100.745 35.572V49.677V49.9126V50.0345C100.777 50.2457 100.834 50.392 100.924 50.5057C101.291 51.5863 102.269 52.3095 103.378 52.3095H113.258C114.277 52.3095 115.174 51.7407 115.614 50.8226C115.614 50.8226 119.307 43.2013 120.22 41.3163C120.603 42.0882 124.916 50.7413 124.916 50.7413C125.576 52.0332 127.158 52.5532 128.446 51.8951C129.065 51.5701 129.53 51.0338 129.742 50.3595C129.799 50.197 129.832 50.0263 129.856 49.8638C129.954 51.2207 131.087 52.3013 132.465 52.3013C133.908 52.3013 135.09 51.1232 135.09 49.6688V42.7301C135.807 43.5913 142.247 51.2776 142.247 51.2776L142.199 51.2938L142.264 51.3588L142.305 51.3995C142.785 51.9926 143.519 52.342 144.294 52.342C145.737 52.342 146.91 51.1638 146.91 49.7095V35.6451C146.91 34.1907 145.737 33.0126 144.294 33.0126Z" fill="#EA212D"/>
</g>
<defs>
<clipPath id="clip0_27818_168694">
<rect width="150" height="26" fill="white" transform="translate(18 27)"/>
</clipPath>
</defs>
</svg>
