<svg width="185" height="80" viewBox="0 0 185 80" fill="none" xmlns="http://www.w3.org/2000/svg">
<rect x="0.5" y="0.5" width="184" height="79" rx="11.5" fill="white"/>
<rect x="0.5" y="0.5" width="184" height="79" rx="11.5" stroke="#C4C4C4"/>
<g clip-path="url(#clip0_27818_168673)">
<path fill-rule="evenodd" clip-rule="evenodd" d="M164.45 65.2001H22V15.01H164.45V65.2001Z" fill="#BFD541"/>
<path fill-rule="evenodd" clip-rule="evenodd" d="M43.7084 30.2101C43.7629 30.2081 43.8172 30.2168 43.8683 30.2358C43.9194 30.2549 43.9663 30.2838 44.0062 30.3209C44.0462 30.3581 44.0784 30.4027 44.1011 30.4523C44.1237 30.5019 44.1364 30.5555 44.1383 30.61V34.9401C44.1428 34.9977 44.1348 35.0555 44.1147 35.1097C44.0947 35.164 44.0632 35.2133 44.0223 35.2542C43.9815 35.295 43.9323 35.3265 43.8781 35.3466C43.8238 35.3666 43.766 35.3745 43.7084 35.37H36.4083V37.98H42.1884C42.2388 37.9762 42.2894 37.9836 42.3367 38.0015C42.384 38.0194 42.4268 38.0475 42.462 38.0837C42.4973 38.12 42.5241 38.1634 42.5408 38.2112C42.5574 38.2589 42.5635 38.3097 42.5583 38.36L42.1583 42.38C42.1285 42.4869 42.0644 42.581 41.9758 42.6478C41.8873 42.7147 41.7793 42.7506 41.6683 42.75H36.4083V49.61C36.3994 49.7182 36.3503 49.8193 36.2708 49.8933C36.1912 49.9673 36.0869 50.0089 35.9783 50.01H30.8883C30.7799 50.0015 30.6786 49.9526 30.6045 49.8729C30.5304 49.7933 30.4889 49.6888 30.4883 49.5801V30.61C30.4903 30.5045 30.5332 30.404 30.6078 30.3295C30.6824 30.2549 30.7829 30.2121 30.8883 30.2101H43.7084ZM62.9183 49.55C62.948 49.6009 62.9624 49.6592 62.9601 49.718C62.9577 49.7768 62.9386 49.8338 62.905 49.8821C62.8714 49.9304 62.8247 49.9682 62.7704 49.9908C62.7161 50.0135 62.6563 50.0201 62.5983 50.01H56.4484C56.3058 50.0049 56.1676 49.9588 56.0505 49.8772C55.9335 49.7956 55.8425 49.6821 55.7883 49.55L52.7983 43.29H52.4484V49.61C52.4372 49.7228 52.3834 49.8271 52.2979 49.9015C52.2123 49.9759 52.1015 50.0146 51.9883 50.01H46.9283C46.8197 50.0089 46.7154 49.9673 46.6359 49.8933C46.5563 49.8193 46.5073 49.7182 46.4983 49.61V30.64C46.5008 30.5268 46.547 30.4188 46.6271 30.3387C46.7072 30.2586 46.8151 30.2126 46.9283 30.2101H54.5183C58.9483 30.2101 61.8783 32.7901 61.8783 36.6901C61.875 37.8453 61.5409 38.9755 60.9153 39.9467C60.2897 40.9179 59.3988 41.6894 58.3483 42.17L62.9183 49.55ZM54.1483 38.41C54.3572 38.4252 54.567 38.3972 54.7645 38.3276C54.9621 38.2581 55.1432 38.1486 55.2965 38.006C55.4499 37.8634 55.5722 37.6907 55.6559 37.4987C55.7395 37.3067 55.7827 37.0994 55.7827 36.89C55.7827 36.6806 55.7395 36.4734 55.6559 36.2814C55.5722 36.0894 55.4499 35.9167 55.2965 35.774C55.1432 35.6314 54.9621 35.5219 54.7645 35.4524C54.567 35.3829 54.3572 35.3548 54.1483 35.37H52.4484V38.41H54.1483ZM78.5283 44.8401C78.6349 44.8368 78.7387 44.8742 78.8186 44.9448C78.8985 45.0154 78.9485 45.1138 78.9584 45.22V49.61C78.9494 49.7182 78.9003 49.8193 78.8208 49.8933C78.7413 49.9673 78.6369 50.0089 78.5283 50.01H65.1583C65.0489 49.989 64.9477 49.9375 64.8663 49.8615C64.7849 49.7854 64.7267 49.6878 64.6984 49.5801V30.61C64.6928 30.5552 64.6997 30.5 64.7185 30.4482C64.7373 30.3965 64.7675 30.3496 64.8069 30.3112C64.8463 30.2727 64.8939 30.2437 64.946 30.2262C64.9982 30.2087 65.0537 30.2032 65.1083 30.2101H78.1884C78.3016 30.2055 78.4123 30.2442 78.4978 30.3186C78.5833 30.393 78.6372 30.4972 78.6483 30.61V34.9401C78.6486 34.9992 78.6367 35.0578 78.6133 35.1121C78.5899 35.1664 78.5555 35.2151 78.5123 35.2555C78.4691 35.2959 78.4181 35.327 78.3623 35.3467C78.3066 35.3664 78.2473 35.3743 78.1884 35.37H70.6783V37.64H76.7783C76.8281 37.6352 76.8783 37.6416 76.9254 37.6584C76.9725 37.6753 77.0153 37.7024 77.0507 37.7378C77.086 37.7732 77.1131 37.8158 77.13 37.8629C77.1469 37.91 77.1531 37.9602 77.1483 38.01L76.7483 42.03C76.7185 42.1369 76.6545 42.231 76.5659 42.2979C76.4774 42.3647 76.3692 42.4006 76.2583 42.4H70.6783V44.8401H78.5283ZM82.9584 43.98C82.9642 43.9225 82.985 43.8676 83.0189 43.8208C83.0528 43.774 83.0985 43.7371 83.1514 43.7137C83.2042 43.6904 83.2623 43.6814 83.3197 43.6877C83.3771 43.6941 83.4318 43.7156 83.4783 43.75C84.7033 44.4707 86.0599 44.9399 87.4684 45.13C87.641 45.1654 87.8191 45.1649 87.9916 45.1284C88.164 45.092 88.3271 45.0205 88.4707 44.9182C88.6143 44.8159 88.7351 44.6851 88.8259 44.5341C88.9167 44.383 88.9754 44.2148 88.9983 44.04C88.9983 42.35 80.9183 42.4301 80.9183 36.1801C80.9183 32.3301 83.8184 29.77 88.1884 29.77C90.4843 29.8558 92.7123 30.5721 94.6283 31.8401C94.7261 31.8806 94.8046 31.9571 94.8474 32.054C94.8902 32.1508 94.8941 32.2604 94.8583 32.36L93.0483 36.41C93.0435 36.468 93.0229 36.5234 92.9888 36.5704C92.9547 36.6175 92.9083 36.6544 92.8547 36.677C92.8012 36.6996 92.7425 36.7073 92.6849 36.699C92.6274 36.6907 92.5733 36.6668 92.5283 36.63C91.2829 35.8854 89.9093 35.38 88.4783 35.14C87.5883 35.14 87.0083 35.5401 87.0083 36.1801C87.0083 37.8701 95.1483 37.7501 95.1483 44.0701C95.1483 47.8901 92.1883 50.4401 87.7583 50.4401C85.4868 50.4891 83.2566 49.8284 81.3783 48.55C81.2828 48.5067 81.2066 48.4298 81.1642 48.3339C81.1218 48.238 81.1161 48.1298 81.1483 48.03L82.9584 43.98ZM113.348 30.2101C113.405 30.2089 113.462 30.2191 113.514 30.2402C113.567 30.2614 113.615 30.2931 113.655 30.3333C113.695 30.3734 113.727 30.4213 113.748 30.474C113.769 30.5267 113.78 30.5832 113.778 30.64V49.61C113.776 49.6645 113.764 49.7181 113.741 49.7677C113.718 49.8173 113.686 49.862 113.646 49.8992C113.606 49.9363 113.559 49.9652 113.508 49.9843C113.457 50.0033 113.403 50.012 113.348 50.01H107.968C107.863 50.008 107.762 49.9652 107.688 49.8906C107.613 49.816 107.57 49.7154 107.568 49.61V43.1801H103.548V49.61C103.543 49.7195 103.495 49.8226 103.415 49.8973C103.334 49.972 103.228 50.0125 103.118 50.01H97.7383C97.6345 50.003 97.5368 49.9586 97.4633 49.885C97.3897 49.8115 97.3454 49.7138 97.3384 49.61V30.64C97.3395 30.5314 97.3811 30.4271 97.4551 30.3475C97.5291 30.268 97.63 30.219 97.7383 30.2101H103.118C103.175 30.2097 103.231 30.2205 103.283 30.2419C103.336 30.2634 103.383 30.2951 103.423 30.3351C103.463 30.3751 103.495 30.4226 103.516 30.475C103.538 30.5273 103.549 30.5834 103.548 30.64V38.13H107.568V30.64C107.566 30.5855 107.575 30.5311 107.594 30.48C107.613 30.4289 107.642 30.3821 107.679 30.3422C107.716 30.3022 107.761 30.27 107.811 30.2473C107.86 30.2247 107.914 30.212 107.968 30.2101H113.348ZM135.398 48.26C135.416 48.3112 135.423 48.3653 135.419 48.4193C135.416 48.4733 135.401 48.5261 135.377 48.5745C135.353 48.6229 135.319 48.666 135.278 48.7013C135.237 48.7366 135.19 48.7633 135.138 48.78C133.312 49.8611 131.23 50.4343 129.108 50.4401C123.178 50.4401 119.218 46.31 119.218 40.11C119.218 33.91 123.178 29.77 129.108 29.77C131.231 29.7788 133.313 30.3555 135.138 31.4401C135.19 31.4558 135.239 31.482 135.28 31.5171C135.322 31.5522 135.356 31.5954 135.38 31.644C135.405 31.6927 135.419 31.7458 135.422 31.8002C135.425 31.8545 135.417 31.909 135.398 31.9601L133.508 35.9501C133.492 36.0046 133.464 36.0548 133.425 36.0972C133.387 36.1395 133.34 36.173 133.288 36.1949C133.235 36.2169 133.178 36.2269 133.121 36.2244C133.064 36.2218 133.009 36.2067 132.958 36.1801C131.941 35.6066 130.785 35.3261 129.618 35.37C127.038 35.37 125.308 37.27 125.308 40.11C125.308 42.95 127.038 44.8401 129.618 44.8401C130.784 44.8827 131.939 44.606 132.958 44.04C133.009 44.0123 133.064 43.9962 133.122 43.993C133.179 43.9899 133.236 43.9997 133.289 44.0219C133.342 44.044 133.389 44.0779 133.427 44.1208C133.465 44.1638 133.493 44.2148 133.508 44.27L135.398 48.26ZM145.988 29.78C143.946 29.782 141.949 30.3895 140.252 31.5258C138.555 32.662 137.232 34.2761 136.452 36.1638C135.671 38.0516 135.468 40.1283 135.868 42.1315C136.268 44.1346 137.252 45.9743 138.697 47.418C140.142 48.8616 141.983 49.8445 143.987 50.2423C145.99 50.6401 148.067 50.4349 149.954 49.6527C151.841 48.8706 153.453 47.5466 154.588 45.848C155.723 44.1495 156.328 42.1526 156.328 40.11C156.328 38.7527 156.06 37.409 155.54 36.1553C155.02 34.9016 154.258 33.7625 153.298 32.8032C152.338 31.844 151.198 31.0833 149.944 30.5646C148.69 30.0458 147.346 29.7792 145.988 29.78ZM152.158 39.0801L146.258 46.38C146.225 46.4194 146.184 46.4514 146.137 46.4738C146.091 46.4962 146.04 46.5085 145.988 46.51C145.938 46.5084 145.889 46.496 145.844 46.4735C145.799 46.4511 145.76 46.4192 145.728 46.38L139.818 39.0801C139.772 39.014 139.742 38.9375 139.732 38.8574C139.721 38.7773 139.73 38.6958 139.758 38.62C139.78 38.5487 139.823 38.4861 139.883 38.4412C139.942 38.3962 140.014 38.3713 140.088 38.37H143.388V34.6C143.391 34.4665 143.446 34.3393 143.541 34.2458C143.636 34.1524 143.765 34.0999 143.898 34.1H148.088C148.221 34.1 148.348 34.1527 148.442 34.2465C148.536 34.3402 148.588 34.4674 148.588 34.6V38.37H151.898C151.972 38.3742 152.043 38.4002 152.101 38.4447C152.16 38.4892 152.204 38.5502 152.228 38.62C152.257 38.6962 152.266 38.7787 152.254 38.8593C152.241 38.9398 152.209 39.0159 152.158 39.0801Z" fill="#231F20"/>
</g>
<defs>
<clipPath id="clip0_27818_168673">
<rect width="142.44" height="50.19" fill="white" transform="translate(22 15)"/>
</clipPath>
</defs>
</svg>
