<svg width="185" height="80" viewBox="0 0 185 80" fill="none" xmlns="http://www.w3.org/2000/svg">
<rect x="0.5" y="0.5" width="184" height="79" rx="11.5" fill="white"/>
<rect x="0.5" y="0.5" width="184" height="79" rx="11.5" stroke="#C4C4C4"/>
<g clip-path="url(#clip0_27818_168662)">
<path d="M66.0116 21.39L52.8516 57.64H63.1716L76.3216 21.39H66.0116ZM89.3216 36.97L86.5416 44.64H90.1616L88.6116 48.92H82.7016C81.6816 48.92 81.0516 48.01 81.3816 46.93C81.8416 45.42 86.2016 33.6 86.6516 32.36C87.0916 31.12 87.4316 30.37 88.9916 30.37H102.202L105.472 21.36H84.3616C82.0416 21.36 79.5016 23.24 78.6616 25.57L69.6416 50.37C68.1716 54.4 70.2516 57.68 74.2716 57.68H92.2916L99.8016 36.97H89.3216ZM132.672 23.62C131.712 22.21 130.622 21.36 128.922 21.36H113.372C111.832 21.36 110.882 21.86 109.732 22.88C108.672 23.81 108.352 24.65 107.872 25.97L96.3816 57.64H106.742L111.152 45.79H111.052L111.172 45.73L111.152 45.79H116.482L112.182 57.64H122.542L132.912 29.07C133.642 27.07 133.862 25.38 132.672 23.62ZM121.712 30.86L119.652 36.53H114.592L116.642 30.86C117.172 29.43 118.162 28.76 119.942 28.76C121.012 28.76 122.072 29.85 121.712 30.86ZM128.802 55.89C128.802 55.48 128.462 55.38 128.122 55.38H127.292V57.31H127.562V56.42H127.882L128.452 57.31H128.772L128.202 56.42C128.542 56.41 128.802 56.27 128.802 55.89ZM127.882 56.15H127.562V55.65H128.072C128.272 55.65 128.532 55.69 128.532 55.89C128.532 56.19 128.112 56.15 127.882 56.15ZM127.942 54.6C126.962 54.6 126.182 55.38 126.182 56.36C126.182 57.33 126.962 58.11 127.942 58.11C128.922 58.11 129.702 57.33 129.702 56.36C129.702 55.38 128.922 54.6 127.942 54.6ZM127.942 57.85C127.142 57.85 126.452 57.19 126.452 56.36C126.452 55.53 127.142 54.87 127.942 54.87C128.742 54.87 129.432 55.53 129.432 56.36C129.432 57.19 128.742 57.85 127.942 57.85Z" fill="#EA212D"/>
</g>
<defs>
<clipPath id="clip0_27818_168662">
<rect width="82" height="37" fill="white" transform="translate(52 21)"/>
</clipPath>
</defs>
</svg>
