<svg width="17" height="17" viewBox="0 0 17 17" fill="none" xmlns="http://www.w3.org/2000/svg">
<g clip-path="url(#clip0_55169_21688)">
<path d="M8.33398 1.9415C10.47 1.9415 10.723 1.94963 11.5666 1.98806C12.3466 2.02369 12.7702 2.154 13.0522 2.26356C13.4255 2.40869 13.692 2.58206 13.972 2.862C14.252 3.14194 14.4253 3.40844 14.5704 3.78181C14.68 4.06375 14.8103 4.48738 14.8459 5.26731C14.8844 6.11094 14.8925 6.36394 14.8925 8.5C14.8925 10.6361 14.8844 10.8891 14.8459 11.7327C14.8103 12.5127 14.68 12.9362 14.5704 13.2182C14.4253 13.5916 14.2519 13.8581 13.972 14.1381C13.692 14.418 13.4255 14.5914 13.0522 14.7364C12.7702 14.846 12.3466 14.9764 11.5666 15.0119C10.7232 15.0504 10.4702 15.0586 8.33398 15.0586C6.19773 15.0586 5.94473 15.0504 5.1013 15.0119C4.3213 14.9763 3.89773 14.846 3.6158 14.7364C3.24242 14.5914 2.97586 14.418 2.69592 14.1381C2.41598 13.8581 2.24261 13.5916 2.09755 13.2182C1.98798 12.9363 1.85761 12.5127 1.82205 11.7327C1.78355 10.8891 1.77542 10.6361 1.77542 8.5C1.77542 6.36394 1.78355 6.11094 1.82205 5.26737C1.85767 4.48738 1.98798 4.06375 2.09755 3.78181C2.24261 3.40844 2.41598 3.14194 2.69592 2.862C2.97592 2.582 3.24242 2.40869 3.6158 2.26356C3.89767 2.154 4.3213 2.02369 5.1013 1.98806C5.94486 1.94963 6.19786 1.9415 8.33398 1.9415ZM8.33398 0.5C6.1613 0.5 5.88886 0.509187 5.03561 0.548125C4.18405 0.587 3.60248 0.72225 3.09367 0.92C2.56755 1.12444 2.12142 1.398 1.67667 1.84275C1.23192 2.2875 0.958422 2.73362 0.753984 3.25969C0.556172 3.76856 0.420984 4.35012 0.382109 5.20162C0.343172 6.05487 0.333984 6.32731 0.333984 8.5C0.333984 10.6727 0.343172 10.9451 0.382109 11.7984C0.420984 12.6499 0.556172 13.2315 0.753984 13.7403C0.958359 14.2664 1.23192 14.7126 1.67667 15.1573C2.12142 15.6021 2.56755 15.8756 3.09367 16.08C3.60255 16.2778 4.18405 16.413 5.03555 16.4519C5.88886 16.4908 6.1613 16.5 8.33398 16.5C10.5067 16.5 10.7791 16.4908 11.6324 16.4519C12.4839 16.413 13.0654 16.2778 13.5742 16.08C14.1004 15.8756 14.5465 15.6021 14.9912 15.1573C15.436 14.7126 15.7095 14.2664 15.914 13.7403C16.1117 13.2314 16.247 12.6499 16.2859 11.7984C16.3248 10.9451 16.334 10.6727 16.334 8.5C16.334 6.32731 16.3248 6.05487 16.2859 5.20162C16.247 4.35012 16.1117 3.76856 15.914 3.25975C15.7095 2.73362 15.436 2.2875 14.9912 1.84275C14.5465 1.398 14.1004 1.12437 13.5743 0.92C13.0654 0.72225 12.4839 0.587 11.6324 0.548125C10.7791 0.509187 10.5067 0.5 8.33398 0.5ZM8.33398 4.39188C6.06511 4.39188 4.22586 6.23125 4.22586 8.5C4.22586 10.7689 6.06511 12.6081 8.33398 12.6081C10.6028 12.6081 12.4421 10.7689 12.4421 8.5C12.4421 6.23119 10.6028 4.39188 8.33398 4.39188ZM8.33398 11.1667C6.86123 11.1667 5.6673 9.97275 5.6673 8.5C5.6673 7.02725 6.86123 5.83331 8.33398 5.83331C9.80673 5.83331 11.0007 7.02725 11.0007 8.5C11.0007 9.97275 9.80673 11.1667 8.33398 11.1667ZM13.5644 4.22956C13.5644 4.75981 13.1346 5.18956 12.6044 5.18956C12.0742 5.18956 11.6444 4.75981 11.6444 4.22956C11.6444 3.69938 12.0742 3.26956 12.6044 3.26956C13.1346 3.26956 13.5644 3.69938 13.5644 4.22956Z" fill="white"/>
</g>
<defs>
<clipPath id="clip0_55169_21688">
<rect width="16" height="16" fill="white" transform="translate(0.333984 0.5)"/>
</clipPath>
</defs>
</svg>
