<svg width="185" height="80" viewBox="0 0 185 80" fill="none" xmlns="http://www.w3.org/2000/svg">
<rect x="0.5" y="0.5" width="184" height="79" rx="11.5" fill="white"/>
<rect x="0.5" y="0.5" width="184" height="79" rx="11.5" stroke="#C4C4C4"/>
<path d="M31.9291 24H24.9766V41.385H39.3586V37.51H31.9291V24ZM56.0359 28.6725C55.4323 28.3825 53.7407 27.6655 50.1638 27.6655C44.8954 27.6655 42.6002 29.3895 40.9832 30.6865L43.2113 32.048C44.5377 30.9927 46.1473 30.4126 47.8016 30.3965C48.6213 30.3482 49.441 30.5496 50.1638 30.9685C51.0655 31.4599 51.602 32.483 51.5126 33.5545C50.0744 33.192 48.6064 32.9986 47.1235 32.9825C43.2113 32.9825 40.0368 34.634 40.0368 37.51C40.0368 40.386 42.1978 41.82 45.9759 41.82C48.0252 41.9489 50.0297 41.1675 51.5126 39.661V41.385H59.0092V33.482C59.0092 32.048 59.0092 30.1065 56.0359 28.6725ZM51.5126 37.7195C50.8569 38.3317 50.0223 38.662 49.1504 38.654C48.0028 38.654 47.2576 37.937 47.2576 37.22C47.2576 36.503 47.8687 35.641 49.8956 35.641L51.5126 35.786V37.7195ZM77.9816 34.7065C77.5122 33.2725 77.2439 32.8375 75.1499 28.3825H71.7072C70.567 30.4046 69.5685 32.5233 68.7339 34.7065C68.2644 32.483 68.1899 32.338 66.774 28.3825H59.0763L65.0228 41.385H69.0692C70.8949 38.5895 71.2973 38.0095 72.6535 35.7135C73.5999 37.6872 74.6805 39.5804 75.8877 41.385H79.9415L86.0892 28.3825H80.2768C79.3826 30.4368 78.615 32.5475 77.9816 34.7065ZM98.1762 39.0165C96.0822 39.0165 96.0822 37.5825 96.0822 37.0025V31.476H99.1896V28.3825H96.0822V25.152H88.5856V28.3825H86.6258V31.476H88.5856V37.2925C88.5856 38.4445 88.6527 39.661 90.0685 40.668C91.4918 41.5783 93.1387 42.0295 94.8005 41.965C96.6709 41.9892 98.5189 41.5461 100.203 40.668L99.3237 38.8715L98.1762 39.0165ZM110.397 27.738C103.847 27.738 99.7932 30.8235 99.7932 34.924C99.7932 39.0165 103.713 41.965 110.263 41.965C116.813 41.965 121.001 38.372 121.001 34.8515C121.001 31.331 117.894 27.738 110.397 27.738ZM112.692 37.655C112.558 38.0095 112.081 39.0165 110.397 39.0165C108.706 39.0165 107.692 37.51 107.692 34.7065C107.692 33.772 107.834 30.6865 110.464 30.6865C111.746 30.6865 112.223 31.2585 112.424 31.613C112.625 31.9755 113.229 34.4165 113.229 34.8515C113.266 35.8182 113.08 36.7769 112.692 37.655ZM140.577 29.172C140.108 28.745 138.692 27.8105 136.054 27.8105C133.423 27.8105 131.061 29.2445 130.115 30.179V28.3825H122.685V41.385H130.115V32.4105C130.726 31.8224 131.516 31.4921 132.343 31.476C133.759 31.476 134.303 32.338 134.303 33.4095V41.385H141.792V32.338C141.941 31.1296 141.479 29.9293 140.577 29.172ZM153.409 32.8375C152.463 32.62 151.114 32.4105 151.114 31.5485C151.114 30.6865 151.926 30.2515 153.409 30.2515C154.758 30.1871 156.07 30.7026 157.053 31.6855L159.348 30.751C158.812 29.8245 157.396 27.6655 151.993 27.6655C146.591 27.6655 143.886 29.6795 143.886 32.2655C143.886 34.8515 146.725 35.641 147.537 35.931L150.503 36.5755C151.181 36.7205 152.664 37.0025 152.664 37.937C152.664 38.8715 151.651 39.3065 150.034 39.3065C148.357 39.3549 146.718 38.7426 145.443 37.5825L143.014 38.654C144.698 40.523 146.39 41.8925 151.315 41.8925C157.664 41.8925 160.027 39.4515 160.027 37.2925C160.027 33.917 155.57 33.1275 153.409 32.8375ZM71.7742 48.6435C70.962 48.2165 70.0827 48.144 68.4656 48.144H65.0228V54.8225H68.868C69.8815 54.8225 71.2973 54.8225 72.3778 53.8155C73.0485 53.2274 73.4434 52.3654 73.4584 51.447C73.4434 50.2466 72.7877 49.1591 71.7742 48.6435ZM69.412 53.171C68.9574 53.3643 68.4731 53.4368 67.9887 53.3885V49.6505C68.7339 49.6505 69.2704 49.6505 69.6803 50.0775C70.0752 50.4319 70.3062 50.9636 70.2839 51.5195C70.2988 52.1962 69.9634 52.8326 69.412 53.171ZM85.277 50.013C85.2919 49.3846 84.9417 48.8127 84.3977 48.571C83.727 48.2407 82.9818 48.0876 82.2366 48.144H77.5122V54.8225H80.4184V52.164H81.0891C81.5734 53.1065 82.1174 54.0249 82.7136 54.895H85.7465C85.0758 53.9122 84.4647 52.881 83.9282 51.8015C84.7107 51.6081 85.2695 50.867 85.277 50.013ZM80.4184 51.302V49.5055C81.1561 49.5055 82.3037 49.5055 82.3037 50.3675C82.3037 51.2295 81.3573 51.302 80.4184 51.302ZM94.5247 52.881C94.3161 53.3402 93.8615 53.6221 93.3772 53.598C92.863 53.6866 92.3786 53.308 92.2966 52.7601C92.2817 52.6635 92.2817 52.5507 92.2966 52.454V48.144H89.2637V52.6635C89.1892 53.2918 89.4202 53.9122 89.8673 54.323C90.4411 54.8628 91.2012 55.1286 91.9613 55.04C92.93 55.1206 93.8764 54.7258 94.5247 53.9605V54.8225H97.5651V48.144H94.5247V52.881ZM106.075 52.599H106.954V53.598H106.343C105.375 53.6463 104.555 52.8488 104.51 51.8176C104.51 51.7209 104.51 51.6162 104.525 51.5195C104.443 50.3675 105.248 49.3685 106.328 49.288C106.448 49.2719 106.567 49.2799 106.679 49.288C107.372 49.2235 108.05 49.5216 108.504 50.0775L109.585 49.3605C109.183 48.9335 108.37 47.9265 106.075 47.9265C103.78 47.9265 101.418 49.433 101.418 51.5195C101.418 53.598 102.901 54.895 105.941 54.895C107.2 54.8628 108.452 54.6453 109.652 54.2505V51.2295H106.075V52.599ZM118.84 50.867L116.679 50.44C116.441 50.3997 116.269 50.1903 116.269 49.9405C116.269 49.578 116.679 49.288 117.484 49.288C118.125 49.2396 118.743 49.5055 119.175 50.013L120.323 49.3605C119.846 48.7885 119.175 47.999 116.813 47.999C114.451 47.999 113.303 49.2155 113.303 50.2225C113.303 51.2295 114.719 51.9465 115.055 52.0915L116.88 52.454C117.082 52.454 117.551 52.599 117.551 53.026C117.551 53.461 117.082 53.743 116.269 53.743C115.502 53.7591 114.764 53.4127 114.242 52.8085L113.095 53.3885C113.37 53.8155 114.175 55.04 116.746 55.04C119.31 55.04 120.591 54.033 120.591 52.6635C120.591 51.302 119.243 51.012 118.84 50.867Z" fill="#F18A23"/>
</svg>
