<svg width="76" height="15" viewBox="0 0 76 15" fill="none" xmlns="http://www.w3.org/2000/svg">
<g clip-path="url(#clip0_44067_3278)">
<path fill-rule="evenodd" clip-rule="evenodd" d="M74.97 8.64436C76.23 7.96536 76.45 7.09536 74.99 6.23636L64.7599 0.67036C63.5099 -0.0296404 62.5 0.550359 62.5 1.95936V12.9314C62.5 14.7364 63.44 14.9124 64.7 14.2314L65.87 13.5824C66.0461 13.4813 66.1883 13.3305 66.2791 13.1489C66.3698 12.9672 66.4049 12.7629 66.3799 12.5614C66.3559 12.4573 66.3092 12.3598 66.2432 12.2758C66.1771 12.1919 66.0932 12.1236 65.9977 12.0758C65.9021 12.028 65.7972 12.002 65.6904 11.9995C65.5836 11.997 65.4776 12.0181 65.3799 12.0614C64.6799 12.4384 64.23 12.0614 64.23 11.2774V3.46936C64.2029 3.31314 64.2247 3.15238 64.2924 3.00901C64.3601 2.86565 64.4703 2.74667 64.6082 2.66834C64.746 2.59001 64.9047 2.55614 65.0625 2.57136C65.2203 2.58657 65.3697 2.65013 65.49 2.75336L72.5499 6.77336C72.6997 6.81895 72.8306 6.91171 72.9233 7.0378C73.0161 7.1639 73.0656 7.31658 73.0645 7.47309C73.0633 7.6296 73.0116 7.78156 72.9171 7.90631C72.8226 8.03106 72.6903 8.12192 72.5399 8.16536L68.1799 10.4274V7.75936C68.1799 7.56045 68.101 7.36968 67.9603 7.22903C67.8197 7.08838 67.6288 7.00936 67.4299 7.00936C67.231 7.00936 67.0403 7.08838 66.8997 7.22903C66.759 7.36968 66.6799 7.56045 66.6799 7.75936V11.5324C66.7039 11.7324 66.7887 11.9203 66.9229 12.0707C67.057 12.2211 67.2339 12.3267 67.4299 12.3734C67.6608 12.444 67.9094 12.4287 68.1299 12.3304L74.97 8.64436ZM68.25 5.76336C68.251 5.91904 68.2056 6.0715 68.1198 6.20135C68.0339 6.33121 67.9113 6.4326 67.7677 6.49263C67.6241 6.55266 67.4657 6.56863 67.313 6.5385C67.1602 6.50837 67.02 6.43351 66.9099 6.32342C66.7998 6.21334 66.725 6.07301 66.6948 5.92027C66.6647 5.76753 66.6807 5.60928 66.7407 5.46564C66.8008 5.32199 66.9021 5.19945 67.032 5.11357C67.1618 5.02769 67.3143 4.98237 67.47 4.98336C67.6768 4.98336 67.8752 5.06554 68.0215 5.21182C68.1678 5.35809 68.25 5.55649 68.25 5.76336Z" fill="#00ACCA"/>
<path fill-rule="evenodd" clip-rule="evenodd" d="M2.18994 11.4595L3.12988 8.85949H6.71997L7.71997 11.4595H9.0199L5.5 2.86949H4.27991L0.97998 11.4595H2.18994ZM4.3999 5.41248C4.59577 4.87831 4.74965 4.32964 4.85999 3.77149C4.99999 4.23649 5.19997 4.83049 5.46997 5.55249L6.37 7.93149H3.45996L4.3999 5.41248ZM14.8099 11.4595V2.86949H13.7599V5.95148C13.57 5.69342 13.3238 5.48206 13.0399 5.33349C12.7322 5.17065 12.388 5.08907 12.0399 5.09648C11.5389 5.08683 11.0471 5.23219 10.6318 5.51268C10.2166 5.79317 9.89812 6.19509 9.71997 6.66349C9.50569 7.20107 9.40026 7.77585 9.40991 8.35449C9.39701 8.93602 9.51321 9.51319 9.75 10.0445C9.95798 10.5106 10.2944 10.9077 10.72 11.1895C11.1256 11.4595 11.6027 11.6023 12.09 11.5995C12.4362 11.6139 12.7799 11.5357 13.0858 11.3729C13.3917 11.2102 13.6486 10.9687 13.83 10.6735V11.4595H14.8099ZM10.97 6.54349C11.1064 6.36285 11.2833 6.2168 11.4866 6.1171C11.6898 6.0174 11.9135 5.96683 12.1399 5.96949C12.3744 5.96793 12.6061 6.02139 12.8163 6.1256C13.0264 6.2298 13.2092 6.38183 13.35 6.56948C13.7261 7.11894 13.9026 7.7807 13.85 8.44448C13.8998 9.06005 13.7259 9.67294 13.36 10.1705C13.2209 10.3476 13.0432 10.4907 12.8405 10.5888C12.6377 10.6869 12.4152 10.7374 12.1899 10.7365C11.9595 10.7353 11.7324 10.6814 11.5261 10.5788C11.3198 10.4761 11.1399 10.3276 11 10.1445C10.6223 9.62871 10.4414 8.99491 10.49 8.35748C10.4368 7.71594 10.6063 7.07467 10.97 6.54349ZM21.83 10.0825C21.377 10.4538 20.8054 10.6494 20.22 10.6335C19.7056 10.6381 19.2001 10.4996 18.7599 10.2335C18.2994 9.9493 17.9474 9.51909 17.7599 9.01149C17.5365 8.39893 17.428 7.75041 17.4399 7.09849C17.4391 6.53775 17.5303 5.98067 17.71 5.44949C17.8757 4.93356 18.2058 4.4861 18.6499 4.17549C19.1352 3.84537 19.7134 3.67894 20.2999 3.70048C20.8109 3.68021 21.3142 3.83081 21.73 4.12848C22.1549 4.48188 22.4591 4.95905 22.6 5.49349L23.72 5.22949C23.5285 4.49366 23.0954 3.84352 22.49 3.38349C21.8627 2.93116 21.1028 2.70037 20.33 2.72749C19.6004 2.71957 18.8811 2.89823 18.24 3.24648C17.6116 3.594 17.1027 4.12307 16.7799 4.76449C16.4259 5.49306 16.251 6.29567 16.2699 7.10549C16.2627 7.89569 16.4194 8.67882 16.73 9.40548C16.992 10.0737 17.4527 10.6454 18.0499 11.0435C18.7322 11.4478 19.5177 11.6441 20.3099 11.6085C21.1287 11.6325 21.9306 11.3728 22.58 10.8735C23.236 10.3252 23.6901 9.57338 23.87 8.73749L22.73 8.45048C22.6216 9.08033 22.3046 9.65546 21.83 10.0835V10.0825ZM26.1899 11.4595V8.05949C26.171 7.66939 26.2288 7.27936 26.36 6.91149C26.4814 6.63457 26.6881 6.40368 26.95 6.25248C27.2161 6.09383 27.5201 6.00989 27.83 6.00948C28.0078 5.99831 28.1861 6.02457 28.3531 6.08658C28.5202 6.14859 28.6724 6.24497 28.7999 6.36949C29.0598 6.6941 29.1851 7.10614 29.1499 7.52048V11.4595H30.2V7.51648C30.2248 7.04123 30.1499 6.56604 29.98 6.12148C29.8271 5.79635 29.5702 5.53141 29.25 5.36849C28.8787 5.1797 28.4663 5.08623 28.0499 5.09648C27.6954 5.08925 27.344 5.16243 27.0219 5.31051C26.6997 5.45859 26.4153 5.67773 26.1899 5.95148V2.87048H25.1299V11.4595H26.1899ZM32.22 10.7595C32.4937 11.0388 32.8227 11.2576 33.1862 11.4019C33.5496 11.5463 33.9392 11.6129 34.33 11.5975C34.8544 11.6014 35.371 11.4702 35.83 11.2165C36.2793 10.9735 36.645 10.6011 36.8799 10.1475C37.1474 9.55473 37.2708 8.90707 37.24 8.25749C37.2644 7.83603 37.2054 7.4139 37.0664 7.01528C36.9274 6.61666 36.7111 6.24938 36.4299 5.93449C36.1582 5.65524 35.8308 5.43612 35.4691 5.29125C35.1074 5.14639 34.7193 5.07902 34.33 5.09348C33.6139 5.07481 32.9161 5.32084 32.37 5.78448C32.0312 6.11428 31.7694 6.51486 31.6034 6.95759C31.4374 7.40032 31.3714 7.87425 31.4099 8.34549C31.3501 9.2256 31.6414 10.0936 32.22 10.7595ZM33.0199 6.55949C33.1825 6.37318 33.3831 6.22385 33.6082 6.12152C33.8333 6.0192 34.0777 5.96626 34.325 5.96626C34.5722 5.96626 34.8167 6.0192 35.0417 6.12152C35.2668 6.22385 35.4673 6.37318 35.6299 6.55949C36.0149 7.05786 36.2035 7.68024 36.1599 8.30848C36.2074 8.9582 36.0232 9.60373 35.6399 10.1305C35.4768 10.3177 35.2755 10.4679 35.0496 10.5707C34.8236 10.6736 34.5782 10.7268 34.33 10.7268C34.0817 10.7268 33.8362 10.6736 33.6102 10.5707C33.3843 10.4679 33.1829 10.3177 33.0199 10.1305C32.6345 9.61698 32.4497 8.98055 32.5 8.34049C32.4508 7.70332 32.6356 7.0701 33.0199 6.55949ZM39.5399 4.08049V2.87048H38.48V4.08349H39.5399V4.08049ZM39.5399 11.4575V5.23749H38.48V11.4595H39.5399V11.4575ZM44.6799 10.3505C44.3957 10.6074 44.0228 10.744 43.6399 10.7315C43.402 10.7382 43.1658 10.6905 42.9492 10.5921C42.7326 10.4937 42.5413 10.3471 42.3899 10.1635C42.0246 9.62966 41.855 8.986 41.9099 8.34149C41.8545 7.69985 42.028 7.05931 42.3999 6.53348C42.5609 6.34815 42.7611 6.20081 42.9858 6.10208C43.2106 6.00334 43.4545 5.95567 43.7 5.96249C44.0284 5.95479 44.3484 6.06715 44.6 6.27849C44.8705 6.52848 45.0529 6.85928 45.12 7.22148L46.1399 7.06349C46.0553 6.49371 45.7633 5.97523 45.3199 5.60748C44.8418 5.25119 44.2557 5.07007 43.6599 5.09449C43.139 5.09049 42.6259 5.22067 42.1699 5.47249C41.716 5.72697 41.3604 6.12622 41.1599 6.60648C40.921 7.16319 40.8051 7.76488 40.8199 8.37048C40.7616 9.2392 41.0411 10.0969 41.6 10.7645C41.8621 11.0422 42.1807 11.2604 42.5343 11.4044C42.8879 11.5485 43.2684 11.615 43.6499 11.5995C44.2789 11.6187 44.8924 11.4022 45.37 10.9925C45.8559 10.5583 46.1655 9.96085 46.24 9.31349L45.21 9.17849C45.1747 9.61942 44.9873 10.0344 44.6799 10.3525V10.3505ZM50.75 10.4265C50.4623 10.6333 50.114 10.7389 49.7599 10.7265C49.5171 10.7321 49.2759 10.6865 49.0519 10.5926C48.8279 10.4987 48.6262 10.3586 48.46 10.1815C48.0873 9.74303 47.8818 9.18688 47.8799 8.61149H52.5199C52.5299 8.48649 52.5299 8.39249 52.5299 8.33049C52.5862 7.46125 52.303 6.6041 51.74 5.93949C51.4804 5.66034 51.1639 5.44004 50.812 5.29342C50.4601 5.1468 50.081 5.07726 49.7 5.08948C49.3083 5.07559 48.9182 5.14579 48.5559 5.29535C48.1937 5.4449 47.8678 5.67034 47.6 5.95649C47.0248 6.6338 46.7344 7.50764 46.7899 8.39448C46.7384 9.2548 47.0256 10.1011 47.59 10.7525C48.121 11.2342 48.7968 11.5263 49.5116 11.5829C50.2264 11.6396 50.9396 11.4576 51.5399 11.0655C52.0151 10.6932 52.3501 10.1707 52.49 9.58349L51.3999 9.44849C51.2877 9.83352 51.0611 10.1753 50.75 10.4285V10.4265ZM48.49 6.44849C48.6503 6.28966 48.8408 6.16476 49.0504 6.08126C49.26 5.99776 49.4844 5.95736 49.71 5.96249C49.9605 5.95588 50.2092 6.00743 50.4365 6.11309C50.6638 6.21875 50.8634 6.37566 51.0199 6.57149C51.2679 6.9154 51.4072 7.32569 51.4199 7.74948H47.9399C47.9547 7.263 48.1509 6.79962 48.49 6.45048V6.44849ZM54.21 11.0955C54.7528 11.4657 55.4046 11.6418 56.0599 11.5955C56.5096 11.6028 56.9559 11.5159 57.37 11.3405C57.7306 11.1921 58.0399 10.9414 58.2599 10.6195C58.4552 10.3251 58.5595 9.97975 58.5599 9.62649C58.5725 9.30776 58.485 8.99309 58.3099 8.72649C58.1385 8.47885 57.8988 8.28638 57.62 8.17248C57.1102 7.97844 56.5892 7.81515 56.0599 7.68348C55.5399 7.54282 55.2299 7.45282 55.1299 7.41349C54.9704 7.35848 54.8288 7.26139 54.72 7.13249C54.6379 7.02677 54.5923 6.8973 54.59 6.76348C54.5945 6.65218 54.6248 6.54346 54.6786 6.44592C54.7324 6.34838 54.8082 6.26469 54.8999 6.20148C55.2131 6.01508 55.5767 5.93117 55.9399 5.96148C56.2782 5.93956 56.6137 6.03492 56.8899 6.23148C57.1202 6.4176 57.2676 6.68718 57.2999 6.98148L58.33 6.84049C58.2824 6.49657 58.1595 6.1674 57.97 5.87649C57.757 5.61156 57.4723 5.41337 57.1499 5.30548C56.7363 5.15748 56.2992 5.08598 55.86 5.09449C55.5522 5.09306 55.2458 5.13549 54.95 5.22049C54.7114 5.2861 54.485 5.39013 54.2799 5.52849C54.0637 5.68237 53.8858 5.88389 53.7599 6.11748C53.6361 6.35569 53.571 6.62002 53.5699 6.88848C53.5687 7.18263 53.6482 7.47147 53.7999 7.72349C53.967 7.9803 54.2026 8.18533 54.48 8.31548C55.0014 8.52944 55.54 8.69904 56.09 8.82248C56.4638 8.89453 56.8268 9.01452 57.1699 9.17948C57.2671 9.23719 57.3471 9.31981 57.4016 9.41879C57.4561 9.51778 57.4832 9.62953 57.48 9.74248C57.4772 9.87697 57.4442 10.0091 57.3837 10.1292C57.3231 10.2493 57.2364 10.3543 57.1299 10.4365C56.8164 10.6605 56.434 10.7668 56.0499 10.7365C55.6489 10.761 55.2521 10.6427 54.9299 10.4025C54.6494 10.1568 54.474 9.8128 54.4399 9.44149L53.3999 9.60549C53.4684 10.1881 53.7585 10.7209 54.21 11.0955Z" fill="black"/>
</g>
<defs>
<clipPath id="clip0_44067_3278">
<rect width="75.03" height="14.219" fill="white" transform="translate(0.969971 0.390381)"/>
</clipPath>
</defs>
</svg>
