<svg width="185" height="80" viewBox="0 0 185 80" fill="none" xmlns="http://www.w3.org/2000/svg">
<rect x="0.5" y="0.5" width="184" height="79" rx="11.5" fill="white"/>
<rect x="0.5" y="0.5" width="184" height="79" rx="11.5" stroke="#C4C4C4"/>
<g clip-path="url(#clip0_27818_168721)">
<path d="M141.613 26.1026C141.612 25.9143 141.648 25.7277 141.721 25.5539C141.868 25.2072 142.146 24.933 142.494 24.7916C142.843 24.6502 143.233 24.6533 143.579 24.8001C143.746 24.8734 143.898 24.9758 144.03 25.1026C144.159 25.2313 144.262 25.3848 144.332 25.5539C144.406 25.7264 144.444 25.9123 144.444 26.1001C144.444 26.2879 144.406 26.4738 144.332 26.6462C144.261 26.8131 144.158 26.9647 144.03 27.0924C143.9 27.2212 143.747 27.324 143.579 27.395C143.404 27.4694 143.216 27.5078 143.026 27.5078C142.836 27.5078 142.648 27.4694 142.473 27.395C142.304 27.3253 142.151 27.2224 142.023 27.0924C141.896 26.9633 141.794 26.8121 141.721 26.6462C141.649 26.4741 141.612 26.2892 141.613 26.1026Z" fill="black"/>
<path d="M45.8399 26.1026C45.8376 25.9137 45.8761 25.7266 45.9526 25.5539C46.0221 25.3848 46.1248 25.2313 46.2546 25.1026C46.3835 24.9755 46.5344 24.873 46.6999 24.8001C46.875 24.7264 47.0629 24.6881 47.2528 24.6873C47.4428 24.687 47.6309 24.7253 47.8057 24.8001C47.9735 24.8716 48.1263 24.9743 48.2561 25.1026C48.3874 25.2311 48.4918 25.3846 48.5633 25.5539C48.6375 25.7264 48.6758 25.9123 48.6758 26.1001C48.6758 26.2879 48.6375 26.4738 48.5633 26.6462C48.4905 26.8134 48.3862 26.9649 48.2561 27.0924C48.1277 27.2224 47.9745 27.3253 47.8057 27.3949C47.6316 27.472 47.443 27.5105 47.2528 27.5078C47.0626 27.5095 46.8743 27.4711 46.6999 27.3949C46.3681 27.2552 46.1012 26.9952 45.9526 26.6667C45.8766 26.4957 45.8382 26.3103 45.8399 26.1232" fill="black"/>
<path d="M53.4922 22.3691H55.3811V29.2973H59.3125V30.0871H53.4922V22.3691Z" fill="black"/>
<path d="M66.4987 22.3691V23.0256H62.6389V25.5743H65.8486V26.2358H62.6389V29.2973H66.4987V30.0871H60.75V22.3691H66.4987Z" fill="black"/>
<path d="M70.8245 30.2052C70.4157 30.2143 70.008 30.1589 69.6164 30.0411C69.2964 29.9481 68.9962 29.7969 68.7308 29.5949C68.4938 29.4093 68.297 29.1772 68.1524 28.9129C68.0081 28.6416 67.9078 28.3491 67.8555 28.0462H69.1659C69.2128 28.2242 69.2798 28.3962 69.3656 28.559C69.4495 28.7218 69.5603 28.8691 69.6932 28.9949C69.831 29.1217 69.9929 29.2194 70.1693 29.2821C70.3741 29.3573 70.5911 29.3938 70.8092 29.3898C70.971 29.3908 71.1324 29.3736 71.2903 29.3385C71.4376 29.3048 71.579 29.2495 71.7101 29.1744C71.8325 29.0979 71.9358 28.9944 72.0121 28.8718C72.0895 28.7324 72.1284 28.5749 72.1248 28.4154C72.1275 28.197 72.0651 27.9827 71.9456 27.8C71.8209 27.6139 71.665 27.4509 71.4849 27.318C71.2769 27.1626 71.0559 27.0253 70.8245 26.9077L70.0669 26.5231C69.8109 26.3966 69.5601 26.2633 69.3144 26.1231C69.078 25.9921 68.8565 25.8356 68.654 25.6565C68.4664 25.4898 68.3089 25.292 68.1882 25.0718C68.0679 24.841 68.008 24.5834 68.0142 24.3231C68.0115 24.0274 68.08 23.7354 68.2138 23.4718C68.3509 23.2024 68.549 22.9688 68.7923 22.7898C69.0742 22.583 69.3918 22.43 69.729 22.3385C70.1434 22.2316 70.5709 22.1849 70.9986 22.2C71.3464 22.1992 71.6921 22.2547 72.0224 22.3641C72.3208 22.4653 72.6009 22.6142 72.8517 22.8052C73.089 22.9897 73.2933 23.2134 73.4557 23.4667C73.6207 23.7187 73.7483 23.9934 73.8345 24.2821H72.6571C72.5927 24.105 72.514 23.9335 72.4217 23.7693C72.3325 23.6056 72.2185 23.4568 72.0838 23.3282C71.9444 23.1972 71.781 23.0944 71.6026 23.0257C71.3859 22.9484 71.1568 22.9119 70.9269 22.918C70.7162 22.9116 70.5061 22.9446 70.3075 23.0154C70.1547 23.0699 70.0139 23.1534 69.8928 23.2616C69.7933 23.353 69.7177 23.4674 69.6727 23.5949C69.6269 23.7109 69.6027 23.8343 69.6011 23.959C69.5999 24.1605 69.6647 24.3568 69.7853 24.518C69.9184 24.6996 70.0811 24.8574 70.2665 24.9847C70.4812 25.1382 70.707 25.2754 70.9423 25.3949L71.7203 25.7949C71.9865 25.9282 72.2323 26.0667 72.4984 26.2103C72.7414 26.347 72.9696 26.5085 73.1793 26.6923C73.3715 26.8566 73.5343 27.0526 73.6605 27.2718C73.7847 27.4923 73.8483 27.7418 73.8448 27.9949C73.8494 28.3006 73.7817 28.603 73.6474 28.8776C73.5131 29.1521 73.3158 29.3908 73.0718 29.5744C72.7892 29.7909 72.4677 29.9511 72.1248 30.0462C71.7018 30.1655 71.2638 30.2226 70.8245 30.2154" fill="black"/>
<path d="M79.082 22.3691H80.9198L83.5817 27.6409L86.2129 22.3691H88.0148V30.0871H86.1258V25.0563L83.6124 30.0871H82.8804L80.2799 24.9999V30.0871H79.082V22.3691Z" fill="black"/>
<path d="M93.5242 22.2L97.1331 30.0871H95.2032L94.2408 27.9794H91.2513L90.2275 30.0871H88.9375L92.7 22.2H93.5242ZM91.5994 27.2564H93.9235L92.7819 24.7641L91.5994 27.2564Z" fill="black"/>
<path d="M98.1016 22.3692H100.999C101.439 22.3612 101.879 22.4147 102.304 22.5282C102.641 22.6148 102.958 22.7625 103.241 22.9641C103.478 23.1377 103.67 23.3665 103.799 23.6307C103.927 23.8923 103.992 24.1804 103.988 24.4717C103.989 24.6852 103.946 24.8966 103.86 25.0923C103.773 25.2929 103.652 25.4768 103.502 25.6358C103.337 25.8063 103.149 25.953 102.944 26.0717C102.717 26.2061 102.475 26.3129 102.222 26.3897L104.966 30.0871H102.919L100.323 26.5897H99.9905V30.0871H98.1016V22.3692ZM99.9905 25.923H100.4C100.619 25.9253 100.837 25.8924 101.045 25.8256C101.233 25.7694 101.407 25.6752 101.557 25.5487C101.703 25.4275 101.82 25.275 101.9 25.1025C101.984 24.9176 102.026 24.7161 102.023 24.5128C102.025 24.3225 101.994 24.1333 101.931 23.9538C101.87 23.7917 101.779 23.6422 101.664 23.5128C101.556 23.3873 101.422 23.2874 101.27 23.2205C101.109 23.151 100.934 23.116 100.758 23.1179H99.9905V25.923Z" fill="black"/>
<path d="M107.032 26.2205C107.023 26.6723 107.101 27.1215 107.262 27.5435C107.393 27.902 107.595 28.23 107.856 28.5077C108.099 28.7652 108.394 28.968 108.721 29.1025C109.046 29.237 109.394 29.305 109.745 29.3025C110.002 29.3034 110.258 29.2546 110.497 29.1589C110.732 29.0646 110.952 28.9386 111.153 28.7846C111.361 28.6207 111.553 28.4369 111.726 28.2359C111.9 28.0307 112.069 27.8102 112.238 27.5794L113.026 28.1589C112.849 28.4428 112.643 28.7074 112.412 28.9487C112.169 29.2037 111.898 29.4291 111.603 29.6205C111.299 29.8177 110.97 29.9745 110.625 30.0871C110.263 30.2031 109.885 30.2619 109.504 30.2615C108.881 30.2678 108.262 30.169 107.672 29.9692C107.142 29.7911 106.652 29.5125 106.228 29.1487C105.831 28.7959 105.513 28.3623 105.296 27.8769C105.064 27.356 104.947 26.7909 104.953 26.2205C104.952 25.8445 105.002 25.4702 105.102 25.1077C105.195 24.7646 105.336 24.4366 105.522 24.1333C105.703 23.832 105.927 23.559 106.187 23.323C106.456 23.08 106.755 22.8732 107.078 22.7077C107.422 22.5321 107.786 22.4012 108.163 22.3179C108.566 22.2253 108.978 22.1789 109.392 22.1794C109.803 22.1752 110.213 22.2269 110.61 22.3333C110.97 22.4288 111.315 22.5756 111.634 22.7692C111.931 22.9508 112.202 23.1735 112.437 23.4307C112.674 23.6886 112.883 23.9705 113.062 24.2718L112.263 24.8307C112.108 24.602 111.937 24.3844 111.751 24.1794C111.567 23.9797 111.363 23.7992 111.142 23.641C110.918 23.4862 110.673 23.3637 110.415 23.2769C110.177 23.1844 109.924 23.1374 109.668 23.1384C109.317 23.1347 108.968 23.2028 108.644 23.3384C108.322 23.4732 108.032 23.6761 107.794 23.9333C107.54 24.2129 107.343 24.5407 107.216 24.8974C107.066 25.3219 106.993 25.7701 107.001 26.2205" fill="black"/>
<path d="M116.755 26.4102V30.0871H114.871V22.3691H116.755V25.7486H119.857V22.3691H121.725V30.0871H119.857V26.4102H116.755Z" fill="black"/>
<path d="M129.592 22.3691V23.0256H125.728V25.5743H128.937V26.2358H125.728V29.2973H129.592V30.0871H123.844V22.3691H129.592Z" fill="black"/>
<path d="M133.805 30.2052C133.395 30.2139 132.985 30.1586 132.592 30.0411C132.273 29.9459 131.973 29.7948 131.706 29.5949C131.471 29.4078 131.274 29.176 131.128 28.9129C130.983 28.6423 130.884 28.3494 130.836 28.0462H132.146C132.193 28.2242 132.26 28.3962 132.346 28.559C132.428 28.7227 132.539 28.8703 132.674 28.9949C132.811 29.1217 132.973 29.2194 133.15 29.2821C133.355 29.3573 133.572 29.3938 133.79 29.3898C133.95 29.3908 134.109 29.3736 134.266 29.3385C134.415 29.3053 134.558 29.25 134.691 29.1744C134.813 29.0993 134.915 28.9954 134.987 28.8718C135.067 28.7333 135.106 28.5751 135.1 28.4154C135.105 28.1975 135.044 27.9832 134.926 27.8C134.799 27.6139 134.642 27.4508 134.46 27.318C134.254 27.1603 134.033 27.0229 133.8 26.9077L133.047 26.5231C132.791 26.3966 132.541 26.2633 132.295 26.1231C132.057 25.9946 131.835 25.838 131.635 25.6565C131.447 25.4898 131.289 25.292 131.169 25.0718C131.047 24.8415 130.985 24.5839 130.99 24.3231C130.986 24.0267 131.057 23.7342 131.194 23.4718C131.33 23.2013 131.528 22.9674 131.773 22.7898C132.053 22.5841 132.369 22.4312 132.704 22.3385C133.116 22.2331 133.539 22.1865 133.964 22.2001C134.322 22.1963 134.678 22.2517 135.018 22.3642C135.317 22.4653 135.597 22.6142 135.847 22.8052C136.085 22.9897 136.289 23.2135 136.452 23.4667C136.617 23.7187 136.744 23.9934 136.83 24.2821H135.638C135.571 24.1059 135.492 23.9345 135.402 23.7693C135.313 23.6056 135.199 23.4568 135.064 23.3283C134.925 23.1972 134.761 23.0945 134.583 23.0257C134.366 22.9493 134.137 22.9128 133.907 22.918C133.697 22.9116 133.487 22.9446 133.288 23.0154C133.135 23.0686 132.994 23.1524 132.873 23.2616C132.774 23.3542 132.697 23.4682 132.648 23.5949C132.604 23.7112 132.581 23.8346 132.582 23.959C132.58 24.1605 132.645 24.3568 132.766 24.518C132.897 24.7008 133.06 24.8588 133.247 24.9847C133.462 25.1382 133.688 25.2754 133.923 25.3949L134.701 25.7949C134.967 25.9283 135.213 26.0667 135.479 26.2103C135.722 26.347 135.95 26.5085 136.16 26.6924C136.352 26.8566 136.515 27.0526 136.641 27.2718C136.765 27.4923 136.829 27.7418 136.825 27.9949C136.827 28.3001 136.758 28.6016 136.624 28.8757C136.49 29.1497 136.294 29.3889 136.052 29.5744C135.769 29.7899 135.448 29.9499 135.105 30.0462C134.682 30.1652 134.244 30.2222 133.805 30.2154" fill="black"/>
<path d="M124.719 21.3128H128.737V20.2563L124.719 20.7846V21.3128Z" fill="black"/>
<path d="M50.6019 59.3948H45.918V43.8717H50.6121V45.0307C51.124 44.5179 52.4652 43.2512 54.3234 43.2512C55.0894 43.2363 55.842 43.4525 56.4837 43.8717C56.8561 44.0913 57.1336 44.4419 57.2623 44.8551C57.391 45.2684 57.3616 45.7149 57.1799 46.1076C56.9929 46.4425 56.7204 46.7216 56.3902 46.9163C56.0601 47.1109 55.6842 47.2141 55.3012 47.2153C53.9651 47.2769 53.4071 46.0204 52.368 46.0871C51.6667 46.1281 50.5814 47.2922 50.5814 48.8153L50.6019 59.3948Z" fill="#ED1C2B"/>
<path d="M71.777 59.3949H67.0572V58.1539C66.3221 58.8527 65.4135 59.3414 64.426 59.5693C63.3268 59.7778 62.1934 59.7144 61.1242 59.3847C60.6 59.2195 60.1171 58.9442 59.7075 58.5772C59.2979 58.2102 58.9711 57.76 58.749 57.2564C58.5382 56.7486 58.4297 56.2039 58.4297 55.6539C58.4297 55.1038 58.5382 54.5592 58.749 54.0513C58.9742 53.5744 59.394 52.7795 61.0423 51.7129C62.6907 50.6462 67.0316 49.4411 67.0316 49.4411V47.9026C67.0316 45.8513 66.1051 45.4411 65.8082 45.3385C64.4567 44.9231 63.6377 45.4872 63.4073 45.7385C63.1087 46.1011 62.9538 46.5611 62.9722 47.0308C63.0109 47.5869 62.8612 48.1398 62.5473 48.6C62.3393 48.8462 62.0742 49.0375 61.7752 49.1573C61.4763 49.2771 61.1526 49.3217 60.8324 49.2872C60.2571 49.2854 59.7 49.0843 59.2558 48.718C58.8764 48.3386 58.655 47.829 58.6364 47.2923C58.6364 45.8564 60.0441 44.9385 60.684 44.6C62.1515 43.8665 63.7742 43.4989 65.414 43.5282C68.3677 43.5282 69.7498 44.3231 70.2668 44.6872C70.7595 45.0303 71.1583 45.4918 71.4266 46.0294C71.6949 46.567 71.8242 47.1635 71.8026 47.7641V59.3949H71.777ZM67.0572 51.3641C66.1241 51.7741 65.2412 52.2903 64.426 52.9026C64.0717 53.1775 63.7766 53.5214 63.5584 53.9136C63.3402 54.3058 63.2035 54.7382 63.1565 55.1847C63.1565 56.3077 63.8015 57.0718 64.5847 57.1385C65.1623 57.1855 65.7389 57.0374 66.2228 56.718C66.4484 56.6044 66.6425 56.4369 66.788 56.2303C66.9336 56.0237 67.026 55.7843 67.0572 55.5334V51.3641Z" fill="#ED1C2B"/>
<path d="M84.8227 58.4871C83.6645 59.2495 82.3219 59.6836 80.9373 59.7435C75.8183 59.7435 74.2825 55.7999 74.1699 53.8256C73.7655 46.4461 77.656 44.882 79.1149 44.2563C80.9366 43.5472 82.9374 43.443 84.8227 43.9589V36.3179H89.5015V59.3948H84.8227V58.4871ZM84.8227 48.8204C84.8227 48.3076 84.4643 45.4512 82.1198 45.4512C80.9731 45.4512 78.946 47.0615 78.946 50.9589C78.946 53.9333 79.5193 57.7794 82.8621 57.1127C84.28 56.8358 84.8227 56.0871 84.8227 55.4974V48.8204Z" fill="#ED1C2B"/>
<path d="M92.6484 44.6922L97.3426 43.4102V59.3948H92.6484V44.6922Z" fill="#ED1C2B"/>
<path d="M115.465 44.6922L120.159 43.4102V59.3948H115.465V44.6922Z" fill="#ED1C2B"/>
<path d="M151.758 49.1076C151.758 48.7127 151.809 46.3024 150.079 46.3024C149.687 46.2754 149.293 46.3268 148.921 46.4537C148.549 46.5806 148.206 46.7804 147.912 47.0415C147.618 47.3027 147.379 47.6199 147.209 47.9746C147.038 48.3293 146.94 48.7145 146.92 49.1076V59.3947H142.195V43.8717H146.92V45.0871C148.323 44.0843 150.004 43.5464 151.727 43.5486C152.969 43.5639 154.157 44.058 155.044 44.9281C155.911 45.831 156.413 47.0244 156.452 48.2768V59.3947H151.758V49.1076Z" fill="#ED1C2B"/>
<path d="M107.649 55.5845C107.649 57.2939 108.141 58.1486 109.123 58.1486C110.357 58.1486 110.398 56.2204 110.582 55.882C110.689 55.6141 110.882 55.3895 111.131 55.2437C111.379 55.0979 111.669 55.0392 111.954 55.0768C112.471 55.0724 112.97 55.2695 113.344 55.6265C113.719 55.9834 113.94 56.4723 113.961 56.9897C113.94 57.363 113.83 57.726 113.641 58.0487C113.453 58.3714 113.19 58.6447 112.876 58.8461C111.824 59.4654 110.613 59.7598 109.395 59.6922C107.685 59.7028 106.036 59.0568 104.788 57.8871C104.222 57.3399 103.77 56.6854 103.459 55.9617C103.148 55.238 102.984 54.4596 102.976 53.6717V45.7589H99.9297V43.8614H102.976V36.3691H107.67V43.8614H111.54V45.7589H107.67L107.649 55.5845Z" fill="#ED1C2B"/>
<path d="M92.4492 38.9025C92.5126 38.27 92.8083 37.6836 93.2788 37.2571C93.7494 36.8306 94.3614 36.5945 94.9959 36.5945C95.6305 36.5945 96.2425 36.8306 96.713 37.2571C97.1836 37.6836 97.4793 38.27 97.5427 38.9025C97.4793 39.535 97.1836 40.1214 96.713 40.5479C96.2425 40.9744 95.6305 41.2105 94.9959 41.2105C94.3614 41.2105 93.7494 40.9744 93.2788 40.5479C92.8083 40.1214 92.5126 39.535 92.4492 38.9025Z" fill="#ED1C2B"/>
<path d="M115.266 38.9025C115.266 38.2224 115.535 37.5702 116.015 37.0894C116.495 36.6085 117.146 36.3384 117.825 36.3384C118.504 36.3384 119.155 36.6085 119.635 37.0894C120.115 37.5702 120.385 38.2224 120.385 38.9025C120.385 39.5825 120.115 40.2347 119.635 40.7156C119.155 41.1964 118.504 41.4666 117.825 41.4666C117.146 41.4666 116.495 41.1964 116.015 40.7156C115.535 40.2347 115.266 39.5825 115.266 38.9025Z" fill="#ED1C2B"/>
<path d="M130.134 43.5898C125.44 44.195 122.092 48.2667 122.656 52.6873C123.219 57.1078 127.493 60.2001 132.187 59.595C136.881 58.9898 140.229 54.918 139.661 50.4975C139.093 46.077 134.829 42.995 130.134 43.5898ZM131.87 57.7385C129.914 57.9642 128.015 55.4052 127.621 52.0155C127.227 48.6257 128.496 45.6924 130.452 45.4667C132.407 45.2411 134.307 47.8052 134.701 51.195C135.095 54.5847 133.825 57.5129 131.87 57.7385Z" fill="#ED1C2B"/>
<path d="M47.661 36.3179V38.0768H40.5097V59.3948H35.4521V38.0768H28.3008V36.3179H47.661Z" fill="#ED1C2B"/>
</g>
<defs>
<clipPath id="clip0_27818_168721">
<rect width="129" height="40" fill="white" transform="translate(28 20)"/>
</clipPath>
</defs>
</svg>
