<svg width="185" height="80" viewBox="0 0 185 80" fill="none" xmlns="http://www.w3.org/2000/svg">
<rect x="0.5" y="0.5" width="184" height="79" rx="11.5" fill="white"/>
<rect x="0.5" y="0.5" width="184" height="79" rx="11.5" stroke="#C4C4C4"/>
<path d="M75.0362 23.9384V24.6998C68.3804 33.6271 65.0215 44.1776 62.8932 55.3306C62.6533 57.4892 60.3083 57.5645 58.8301 58.1334C58.1259 57.8908 57.2513 58.1753 56.6554 57.439C54.3414 53.1887 54.1092 47.859 53.8151 42.8473L53.6526 42.6633C52.9173 43.5334 52.3911 44.5792 52.1202 45.7171C51.0444 49.114 50.5414 52.8122 49.5894 56.2509C48.9393 57.6482 47.2831 57.0207 46.2383 56.8868C44.675 56.276 43.4832 54.9122 43.0111 53.197C42.864 50.0428 44.2184 47.3905 45.0155 44.596C46.8884 37.5763 50.255 31.2761 53.6603 24.9591C54.8057 23.4866 55.8815 20.3072 58.389 21.1355C59.8053 21.3447 61.2912 21.83 62.0265 23.3527C62.2664 26.6241 61.3144 30.4561 62.0265 33.7526H62.1812C64.4101 29.7282 65.8651 25.2854 69.0847 21.8802C70.0443 20.8762 71.4142 21.4367 72.5906 21.6292C73.6508 22.0224 74.5331 22.8507 75.0362 23.9384ZM131.781 25.3524C131.448 27.9963 129.242 29.678 128.368 32.0123C125.728 37.1663 123.817 42.7135 122.687 48.4698C122.687 48.863 122.849 49.4069 123.306 49.4905C124.8 49.3065 125.93 47.859 127.036 46.6709C131.223 41.2409 133.646 34.606 139.11 30.0963C140.023 30.0378 140.928 30.3808 141.602 31.0502C143.823 32.5813 140.967 33.9702 140.812 35.5264C139.829 37.0073 139.566 38.8062 139.04 40.4879C138.583 46.604 141.269 54.9122 134.822 58.1836C133.491 58.6605 132.044 58.5518 130.782 57.8992C129.397 56.9537 127.942 55.4644 127.88 53.6237C127.957 52.6197 128.53 51.7412 129.381 51.3312C130.225 51.0133 130.596 52.4106 131.517 51.9169C133.119 50.3189 133.096 47.4825 132.678 45.3406L132.462 45.0813C129.211 48.1351 127.416 52.2014 124.39 55.5146C122.749 57.0458 121.015 58.5267 118.763 58.0079C116.952 57.8908 116.882 53.4146 114.878 56.0668C112.75 57.7737 110.08 58.5016 107.448 58.0916C105.916 57.3804 104.67 56.0919 103.958 54.4688C103.617 53.8496 103.107 54.3935 102.766 54.6612C99.2137 57.3051 94.8797 58.4514 90.5921 57.8741C88.5644 57.3219 86.8695 55.1214 86.2581 53.0046C86.1265 52.8624 85.8944 52.9544 85.7009 52.9126C82.3266 57.029 77.4508 59.514 72.4048 57.941C70.2688 57.4976 68.5429 55.8326 67.8851 53.5986C66.8093 47.767 69.7115 43.1067 72.3429 38.7141C74.8349 35.5933 78.0313 32.8909 82.0325 33.4096C83.7738 33.7526 85.1669 35.1415 85.6158 36.9822C86.3278 40.9481 84.1995 44.3701 81.2121 46.5873C79.2696 48.0682 76.8781 48.6957 74.5176 48.3527C73.883 48.7877 74.3087 49.6161 74.3474 50.2268C74.7963 51.3061 75.8178 51.9839 76.9168 51.9253C87.5738 51.2141 86.8618 37.1746 96.2882 34.2044C98.2617 33.51 101.265 32.5813 103.006 34.4303C105.134 36.0786 104.422 39.0739 103.873 41.3078C102.82 43.8179 100.769 46.6626 98.1843 47.5913L93.6646 48.7794C93.1925 49.114 93.2931 49.8671 93.3473 50.3607C93.8271 51.4065 94.7404 52.1428 95.8084 52.352C99.1672 52.4524 101.489 49.365 103.919 46.8466C106.589 42.3537 108.663 37.1161 113.423 34.1291C115.574 33.1502 118.036 33.351 120.025 34.6646C122.865 31.3514 123.515 26.9504 126.533 23.7041C127.315 22.9427 128.6 23.0181 129.544 23.336C130.519 23.6288 131.332 24.3651 131.781 25.3524ZM97.8206 39.1074C96.3966 40.0445 94.8951 41.5672 95.1273 43.3242C96.3269 43.4497 97.5188 43.023 98.401 42.1445C99.0434 41.5254 99.3684 40.6134 99.2833 39.693C98.9737 39.1576 98.3546 38.9317 97.8051 39.1408L97.8206 39.1074ZM79.0683 39.0488C77.4818 39.5926 76.3441 41.0903 76.1584 42.8724C76.8626 42.9394 77.5669 42.8222 78.2093 42.5294C79.285 42.0106 80.5388 41.0736 80.562 39.6512C80.4459 38.8898 79.4863 39.1994 79.0606 39.0739L79.0683 39.0488ZM115.048 41.0234C112.641 43.2322 111.14 46.3781 110.861 49.7834C111.032 50.4527 111.589 50.938 112.231 50.9715C113.818 50.8292 115.071 49.5324 115.961 48.2272C116.797 46.1689 117.966 44.0521 117.656 41.6676C117.37 40.3289 115.845 40.5046 115.033 41.0485L115.048 41.0234Z" fill="#00A434"/>
</svg>
