<svg width="97" height="96" viewBox="0 0 97 96" fill="none" xmlns="http://www.w3.org/2000/svg">
<rect x="0.5" width="96" height="96" rx="48" fill="#692E61"/>
<g clip-path="url(#clip0_15891_54656)">
<path d="M63.8296 32.4484C63.6592 32.1698 63.3563 32 63.0298 32H57.3637C57.0179 32 56.7002 32.1904 56.5371 32.4952L54.9403 35.48H42.0602L40.4635 32.4952C40.3003 32.1904 39.9826 32 39.6368 32H33.9707C33.6442 32 33.3413 32.1698 33.171 32.4484C33.0006 32.7269 32.9874 33.0739 33.1361 33.3646L34.814 36.6434V63.0625C34.814 63.5802 35.2338 64 35.7515 64H61.249C61.7668 64 62.1865 63.5802 62.1865 63.0625V36.6434L63.8644 33.3646C64.0131 33.0739 64 32.7269 63.8296 32.4484ZM57.9254 33.875H61.497L60.6756 35.48H57.0667L57.9254 33.875ZM39.0751 33.875L39.9338 35.48H36.3249L35.5036 33.875H39.0751ZM36.689 37.355H41.49H41.4978H54.5645V62.125H36.689V37.355ZM60.3115 62.125H56.4395V37.355H60.3115V62.125Z" fill="white"/>
<path d="M51.5928 39.3343H39.6611C39.1434 39.3343 38.7236 39.7541 38.7236 40.2718V45.3125C38.7236 45.8303 39.1434 46.25 39.6611 46.25H51.5928C52.1106 46.25 52.5303 45.8303 52.5303 45.3125V40.2719C52.5303 39.7541 52.1106 39.3343 51.5928 39.3343ZM50.6553 44.375H40.5986V41.2094H50.6553V44.375Z" fill="white"/>
<path d="M51.5929 52.2869H50.9687C50.5233 49.7419 48.2976 47.8014 45.627 47.8014C42.9564 47.8014 40.7307 49.7419 40.2853 52.2869H39.6611C39.1434 52.2869 38.7236 52.7066 38.7236 53.2244V54.9909C38.7236 58.0208 41.1886 60.4858 44.2185 60.4858H47.0355C50.0654 60.4858 52.5303 58.0208 52.5303 54.9909V53.2244C52.5304 52.7066 52.1106 52.2869 51.5929 52.2869ZM45.627 49.6764C47.2588 49.6764 48.6361 50.7841 49.0484 52.2869H42.2057C42.618 50.7841 43.9952 49.6764 45.627 49.6764ZM50.6554 54.9909C50.6554 56.9869 49.0316 58.6108 47.0356 58.6108H44.2186C42.2226 58.6108 40.5987 56.9869 40.5987 54.9909V54.1619H50.6554V54.9909Z" fill="white"/>
</g>
<defs>
<clipPath id="clip0_15891_54656">
<rect width="32" height="32" fill="white" transform="translate(32.5 32)"/>
</clipPath>
</defs>
</svg>
