<svg width="106" height="105" viewBox="0 0 106 105" fill="none" xmlns="http://www.w3.org/2000/svg">
<circle cx="53" cy="52.5" r="52.5" fill="#35A131"/>
<g clip-path="url(#clip0_4543_32252)">
<path d="M72.3832 41.075C73.9416 43.5417 72.4082 46.625 69.9499 46.9583C69.7332 46.9833 69.5166 47 69.2916 47C67.9166 47 66.6916 46.4 65.8332 45.4583C65.3249 44.9 64.6082 44.5833 63.8582 44.5833C63.1082 44.5833 62.3916 44.9 61.8832 45.4583C61.0332 46.3917 59.8166 46.9917 58.4332 46.9917C57.0582 46.9917 55.8249 46.3917 54.9832 45.4583C54.4749 44.9 53.7582 44.5833 53.0082 44.5833C52.2582 44.5833 51.5332 44.9 51.0332 45.4583C50.1666 46.4 48.9416 47 47.5582 47C46.1832 47 44.9499 46.4 44.1082 45.4667C43.5999 44.9083 42.8832 44.5917 42.1332 44.5917C41.3832 44.5917 40.6582 44.9083 40.1582 45.4667C39.2999 46.4 38.0832 47 36.6999 47C36.4832 47 36.2666 46.9833 36.0416 46.9583C33.5999 46.625 32.0666 43.5417 33.6166 41.075L38.2999 33.6667H67.6999L72.3832 41.075ZM69.2832 49.6667C69.6249 49.6667 69.9582 49.6417 70.2916 49.6C74.9166 48.9833 77.1082 43.5583 74.6332 39.65L69.8582 32.0917C69.4332 31.4167 68.6749 31 67.8666 31H38.1332C37.3249 31 36.5666 31.4167 36.1416 32.0917L31.3582 39.65C28.8916 43.55 31.0749 48.975 35.6832 49.6C36.0166 49.6417 36.3582 49.6667 36.6916 49.6667C38.3249 49.6667 39.8166 49.1333 41.0249 48.25C41.4249 47.9583 41.7916 47.6167 42.1249 47.2583C42.4582 47.625 42.8249 47.9583 43.2249 48.25C44.4332 49.1333 45.9249 49.6667 47.5582 49.6667C49.1916 49.6667 50.6832 49.1333 51.8916 48.25C52.2916 47.9583 52.6582 47.6167 52.9916 47.25C53.3249 47.6167 53.6916 47.95 54.0916 48.2417C55.2999 49.125 56.7916 49.6583 58.4249 49.6583C60.0749 49.6583 61.5749 49.1167 62.7832 48.2167C63.1749 47.925 63.5332 47.6 63.8582 47.2417C64.1832 47.6 64.5499 47.9333 64.9416 48.225C66.1499 49.1167 67.6499 49.6583 69.2916 49.6583L69.2832 49.6667ZM35.6666 52.3333C34.9332 52.3333 34.3332 52.9333 34.3332 53.6667V60.3333V61.6667V63V68.3333C34.3332 71.275 36.7249 73.6667 39.6666 73.6667H66.3332C69.2749 73.6667 71.6666 71.275 71.6666 68.3333V63V61.6667V60.3333V53.6667C71.6666 52.9333 71.0666 52.3333 70.3332 52.3333C69.5999 52.3333 68.9999 52.9333 68.9999 53.6667V60.3333H36.9999V53.6667C36.9999 52.9333 36.3999 52.3333 35.6666 52.3333ZM36.9999 63H68.9999V68.3333C68.9999 69.8083 67.8082 71 66.3332 71H39.6666C38.1916 71 36.9999 69.8083 36.9999 68.3333V63Z" fill="white"/>
</g>
<defs>
<clipPath id="clip0_4543_32252">
<rect width="48" height="42.6667" fill="white" transform="translate(29 31)"/>
</clipPath>
</defs>
</svg>
