<svg width="17" height="17" viewBox="0 0 17 17" fill="none" xmlns="http://www.w3.org/2000/svg">
<g clip-path="url(#clip0_55169_21690)">
<path d="M0.666992 8.50012C0.666992 11.776 2.63687 14.5903 5.45568 15.8276C5.43318 15.2689 5.45168 14.5983 5.59493 13.9905C5.74874 13.3411 6.6243 9.63125 6.6243 9.63125C6.6243 9.63125 6.36874 9.12044 6.36874 8.3655C6.36874 7.17994 7.05587 6.2945 7.91162 6.2945C8.6393 6.2945 8.99087 6.84106 8.99087 7.49556C8.99087 8.22706 8.5243 9.32125 8.28437 10.3347C8.08393 11.1833 8.70987 11.8755 9.54705 11.8755C11.0628 11.8755 12.0837 9.92869 12.0837 7.62206C12.0837 5.86869 10.9027 4.55631 8.7548 4.55631C6.32805 4.55631 4.81624 6.36606 4.81624 8.38756C4.81624 9.08456 5.02174 9.57606 5.34362 9.95669C5.49162 10.1315 5.51218 10.2018 5.45862 10.4026C5.42024 10.5497 5.33212 10.9041 5.29562 11.0446C5.24237 11.2472 5.07818 11.3196 4.89505 11.2448C3.7773 10.7885 3.25674 9.56444 3.25674 8.18844C3.25674 5.91587 5.17337 3.19088 8.97437 3.19088C12.0287 3.19088 14.0391 5.40112 14.0391 7.77369C14.0391 10.912 12.2943 13.2566 9.72243 13.2566C8.85874 13.2566 8.0463 12.7897 7.76799 12.2594C7.76799 12.2594 7.30355 14.1026 7.20518 14.4586C7.03555 15.0754 6.70355 15.6919 6.39999 16.1724C7.13609 16.39 7.8997 16.5005 8.6673 16.5004C13.0851 16.5004 16.6671 12.9186 16.6671 8.50012C16.6671 4.08181 13.0851 0.5 8.6673 0.5C4.24912 0.5 0.666992 4.08181 0.666992 8.50012Z" fill="white"/>
</g>
<defs>
<clipPath id="clip0_55169_21690">
<rect width="16" height="16" fill="white" transform="translate(0.666992 0.5)"/>
</clipPath>
</defs>
</svg>
