<svg width="97" height="96" viewBox="0 0 97 96" fill="none" xmlns="http://www.w3.org/2000/svg">
<rect x="0.5" width="96" height="96" rx="48" fill="#003D2A"/>
<path d="M39.6466 46.7425C41.3316 46.0784 43.1595 45.7214 45.073 45.7214H51.9275C52.5558 45.7214 53.0699 46.2355 53.0699 46.8638C53.0699 47.4922 52.5558 48.0063 51.9275 48.0063H45.073C43.0167 48.0063 41.0746 48.4989 39.361 49.3771C39.4823 54.9464 44.0377 59.4304 49.6427 59.4304H49.6998C57.4824 59.3947 64.494 51.5406 64.494 40.909C64.494 39.2668 64.3226 37.6817 64.0013 36.1752C62.1735 37.8459 59.7387 38.867 57.0683 38.867H49.6427C44.7945 38.867 40.7247 42.2228 39.6466 46.7425ZM37.1261 48.0277C37.6973 41.6088 43.0809 36.5822 49.6427 36.5822H57.0683C59.5816 36.5822 61.8236 35.4255 63.2945 33.6047L63.3373 33.5476C63.5015 33.3406 63.6515 33.1335 63.7943 32.9122C63.9085 32.7337 64.0227 32.548 64.1227 32.3552C64.3726 31.8911 65.0938 31.8697 65.2794 32.3624C65.3722 32.6123 65.4579 32.8622 65.5436 33.1192C65.6293 33.3763 65.7078 33.6262 65.7863 33.8904L65.8149 33.9975C66.4432 36.1609 66.7788 38.4814 66.7788 40.909C66.7788 52.3688 59.1461 61.6652 49.7141 61.7152H49.6427C43.2594 61.7152 37.9901 56.9528 37.1832 50.7909C34.3272 53.0971 32.5065 56.6243 32.5065 60.5728V62.8576C32.5065 63.4859 31.9924 64 31.3641 64C30.7358 64 30.2217 63.4859 30.2217 62.8576V60.5728C30.2217 55.2963 32.9777 50.6552 37.1261 48.0277Z" fill="white"/>
</svg>
