<svg width="185" height="80" viewBox="0 0 185 80" fill="none" xmlns="http://www.w3.org/2000/svg">
<rect x="0.5" y="0.5" width="184" height="79" rx="11.5" fill="white"/>
<rect x="0.5" y="0.5" width="184" height="79" rx="11.5" stroke="#C4C4C4"/>
<path fill-rule="evenodd" clip-rule="evenodd" d="M132.31 38.4696C132.257 38.5129 132.21 38.5638 132.17 38.6209C127.91 44.6378 127.91 52.9844 132.17 59.0013C132.42 59.3555 132.889 59.4241 133.217 59.1546C133.218 59.1542 133.218 59.1537 133.219 59.1533C133.271 59.1094 133.319 59.0583 133.359 59.0013C137.618 52.9841 137.618 44.6381 133.359 38.6209C133.109 38.267 132.641 38.1983 132.313 38.4675C132.312 38.4682 132.311 38.4689 132.31 38.4696ZM118.391 47.8253C118.084 47.7811 117.802 48.0135 117.761 48.3444C117.755 48.3985 117.755 48.4534 117.762 48.5075C118.447 54.1327 122.545 58.5633 127.76 59.3159C128.068 59.3586 128.35 59.1239 128.389 58.7917C128.396 58.7395 128.395 58.6866 128.389 58.6344C127.703 53.0093 123.605 48.5789 118.391 47.8253ZM119.559 58.0759C118.449 56.3947 116.868 55.1426 115.048 54.5044C113.221 53.8996 111.261 53.9449 109.46 54.6338C109.241 54.7188 109.128 54.9786 109.207 55.2139C109.207 55.2139 109.207 55.214 109.207 55.2139C109.22 55.252 109.238 55.2884 109.259 55.3217C111.515 58.8021 115.658 60.214 119.359 58.7638C119.577 58.6778 119.689 58.4174 119.61 58.1819C119.597 58.1452 119.58 58.1105 119.559 58.0787L119.559 58.0759ZM58.7265 48.3597C60.226 47.4644 61.1247 45.7291 61.0451 43.8827C61.0881 42.4094 60.5811 40.9791 59.6377 39.9125C58.6815 38.8193 57.3306 38.2306 55.9386 38.3007H50.0298C49.4843 38.2761 49.0236 38.7331 49.0009 39.3213C48.999 39.3702 49.0002 39.4191 49.0045 39.4678V58.1537C48.9538 58.7395 49.353 59.2588 49.8963 59.3135C49.9395 59.3178 49.983 59.3191 50.0265 59.3173H55.9353C57.4587 59.4166 58.9446 58.7828 59.993 57.5867C60.9605 56.4356 61.4849 54.9302 61.4594 53.3769C61.5898 51.2578 60.5044 49.2685 58.7232 48.3625L58.7265 48.3597ZM51.6548 40.7827H55.6312C57.4011 40.7827 58.3915 42.186 58.3915 43.9767C58.3915 45.8565 57.3984 47.2286 55.6312 47.2286H51.6548V40.7827ZM55.6587 56.8416H51.6548V49.6753H55.9622C57.757 49.6753 58.8058 51.3465 58.8058 53.2574C58.8065 55.2877 57.7845 56.8402 55.6587 56.8402V56.8416ZM67.2561 53.2588L70.1542 52.513C72.5291 51.9164 73.7169 50.5428 73.7169 48.364C73.7333 47.0701 73.2171 45.835 72.3075 44.9912C71.6505 44.3519 70.8412 43.9228 69.9706 43.7519C70.2053 43.1874 70.324 42.5749 70.3187 41.9563V41.7442C70.3187 41.1178 69.9044 40.7891 69.0732 40.7891C68.242 40.7891 67.8277 41.0867 67.8277 41.6551V41.8672C67.8243 42.8135 67.3084 43.6704 66.5082 44.0587C65.9789 44.2959 65.4919 44.6308 65.0693 45.0484C64.1011 46.061 63.5875 47.4765 63.6613 48.9288V54.0025C63.6613 57.4361 65.4567 59.6743 68.6865 59.6743C69.9936 59.7293 71.2698 59.2374 72.2485 58.3014C73.1683 57.4767 73.6954 56.2496 73.6841 54.9597V54.7476C73.6841 54.1213 73.2692 53.7926 72.4386 53.7926C71.6081 53.7926 71.1932 54.0916 71.1932 54.6586V54.8706C71.0624 56.3719 69.828 57.4746 68.4359 57.3336C67.1412 57.2024 66.1492 56.0348 66.1411 54.6324V54.0668C66.1509 53.7056 66.5068 53.437 67.2561 53.2574V53.2588ZM66.1516 51.4978V48.7818C66.0288 47.3531 67.0033 46.0875 68.3281 45.9552C68.4396 45.944 68.5516 45.9413 68.6635 45.947C70.1823 45.947 71.2318 46.9911 71.2318 48.2749C71.2893 49.2693 70.6491 50.1534 69.7405 50.3342L66.9513 51.08C66.6563 51.1435 66.3811 51.2868 66.1516 51.4964V51.4978ZM84.8994 45.0802C83.9197 44.097 82.6192 43.5715 81.2816 43.6183C79.9568 43.589 78.6686 44.0885 77.6644 45.0209C76.7094 45.9766 76.1797 47.3276 76.2092 48.7323C76.2092 48.7599 76.2006 58.6294 76.2006 58.6294C76.2006 59.2558 76.6149 59.5541 77.4461 59.5541C78.2773 59.5541 78.6916 59.2551 78.6916 58.6294V49.0151C78.6916 47.0752 79.7686 45.9413 81.2868 45.9413C82.659 45.8765 83.8202 47.0236 83.8803 48.5035C83.882 48.5449 83.8827 48.5863 83.8826 48.6277V48.7464C83.8826 49.3728 84.2969 49.6725 85.1281 49.6725C85.9593 49.6725 86.3736 49.3735 86.3736 48.7768V48.5973C86.3856 47.2482 85.8472 45.9617 84.9013 45.0788L84.8994 45.0802ZM97.7626 43.7371C96.934 43.7371 96.5171 44.0658 96.5171 44.6921V54.3065C96.5171 56.2471 95.4407 57.381 93.9226 57.381C92.4588 57.381 91.3261 56.2174 91.3261 54.3065V44.6914C91.3261 44.0644 90.9118 43.7363 90.0806 43.7363C89.2494 43.7363 88.839 44.0651 88.839 44.6914V54.3928C88.6474 57.0976 90.5253 59.4578 93.0333 59.6645C93.2081 59.6789 93.3836 59.6824 93.5588 59.675C94.6673 59.7534 95.7504 59.294 96.5125 58.4223V60.3918C96.5125 62.4215 95.3811 63.6756 93.5863 63.6756C92.7365 63.6761 91.9106 63.3717 91.2389 62.8103C91.0635 62.6693 90.8499 62.5948 90.6312 62.5982C90.0111 62.7093 89.5429 63.2651 89.4998 63.9414C89.4998 64.5388 89.9691 65.0166 90.9072 65.404C91.7781 65.7761 92.7035 65.9779 93.64 66C96.8147 66 98.9963 63.94 98.9963 60.5078V44.6914C99.0067 44.0651 98.5925 43.7371 97.7645 43.7371L97.7626 43.7371ZM50.33 34.6112C51.2136 34.6112 51.6548 34.3128 51.6548 33.6858V25.7461H54.7488C56.9291 25.7461 58.1438 27.7757 58.1438 31.1479V33.6858C58.1438 34.3121 58.5856 34.6112 59.4699 34.6112C60.3542 34.6112 60.7953 34.3128 60.7953 33.6858V30.5809C60.7953 27.6266 59.911 25.6563 58.1162 24.6426C59.911 23.6882 60.7953 21.9859 60.7953 19.5378C60.7953 15.5697 58.6131 13.3598 55.0792 13.3598H49.999C49.54 13.2685 49.0994 13.5957 49.0147 14.0906C49.0004 14.1739 48.997 14.2589 49.0045 14.3432V33.6851C49.0045 34.3128 49.4464 34.6112 50.33 34.6112ZM51.6548 15.8362H54.9134C57.0667 15.8362 58.1431 17.0896 58.1431 19.5668C58.1431 22.0439 57.0661 23.2683 54.9134 23.2683H51.6548V15.8362ZM70.1122 25.0887L67.2135 25.8345C64.8386 26.4319 63.6514 27.8055 63.6514 29.9828C63.6346 31.2768 64.1508 32.5121 65.0608 33.3556C67.1619 35.1983 70.1769 35.1859 72.2649 33.3259C73.2488 32.3103 73.7732 30.8826 73.7012 29.4159V24.3421C73.7012 20.9099 71.9063 18.6711 68.6766 18.6711C67.3619 18.6208 66.0786 19.1116 65.087 20.0439C64.1833 20.8797 63.668 22.1032 63.679 23.3871V23.5991C63.679 24.2262 64.0932 24.5549 64.9212 24.5549C65.7491 24.5549 66.1666 24.2566 66.1666 23.6896V23.4775C66.2937 21.9759 67.5254 20.8697 68.9178 21.0067C70.2177 21.1346 71.2143 22.3074 71.2194 23.7151V24.2806C71.22 24.6412 70.8608 24.9098 70.1122 25.0887ZM71.2167 26.8497V29.565C71.3395 30.9945 70.3644 32.2607 69.0389 32.393C68.9276 32.4041 68.8158 32.4069 68.7041 32.4013C67.186 32.4013 66.1365 31.3571 66.1365 30.0733C66.0781 29.0784 66.7187 28.1936 67.6278 28.0133L70.417 27.2675C70.713 27.2042 70.9891 27.0607 71.2194 26.8504L71.2167 26.8497ZM77.6638 33.3259C78.6678 34.2588 79.9559 34.7588 81.2809 34.7299C82.613 34.773 83.9091 34.2596 84.8987 33.297C85.8384 32.3956 86.3717 31.1008 86.3618 29.7446V29.565C86.3618 28.9684 85.9467 28.67 85.1163 28.67C84.2884 28.67 83.8709 28.9684 83.8709 29.5954V29.7149C83.8721 31.1985 82.7578 32.4023 81.3821 32.4036C81.3464 32.4037 81.3107 32.4029 81.275 32.4013C79.7568 32.4013 78.6798 31.2702 78.6798 29.3572V24.0728C78.6798 22.1323 79.7568 20.9983 81.275 20.9983C82.6495 20.9359 83.8107 22.0869 83.8686 23.5692C83.8702 23.6077 83.8709 23.6462 83.8709 23.6847V23.8035C83.8709 24.4298 84.2851 24.7289 85.1163 24.7289C85.9475 24.7289 86.3618 24.4305 86.3618 23.8332V23.6543C86.3772 22.3054 85.8422 21.0173 84.8987 20.1316C83.919 19.1484 82.6185 18.6228 81.2809 18.6697C79.956 18.6406 78.6679 19.1403 77.6638 20.0729C76.663 21.0782 76.1271 22.5103 76.2006 23.983V29.4448C76.1331 30.9088 76.6697 32.33 77.6664 33.3266L77.6638 33.3259ZM97.598 20.0439C96.7059 19.1312 95.5144 18.6375 94.2851 18.6711C93.1789 18.6103 92.1022 19.0668 91.3306 19.9238V13.9254C91.3306 13.299 90.917 13 90.0852 13C89.2533 13 88.8397 13.2983 88.8397 13.9254V33.6858C88.8397 34.3121 89.2546 34.6112 90.0852 34.6112C90.9157 34.6112 91.3306 34.3128 91.3306 33.6858V24.0445C91.3306 22.1047 92.4076 20.9997 93.9265 20.9997C95.4453 20.9997 96.5223 22.1308 96.5223 24.0445V33.6858C96.5223 34.3121 96.936 34.6112 97.7678 34.6112C98.5997 34.6112 99.0133 34.3128 99.0133 33.6858V23.9576C99.0981 22.4928 98.5815 21.0619 97.6007 20.0447L97.598 20.0439ZM111.542 30.0118V29.7997C111.542 29.1734 111.127 28.8446 110.296 28.8446C109.465 28.8446 109.054 29.143 109.054 29.7099V29.922C108.923 31.4237 107.688 32.5267 106.296 32.3857C105.001 32.2545 104.009 31.087 104 29.6845V29.1189C104 28.7612 104.36 28.4926 105.105 28.3137L108.004 27.5672C110.378 26.9705 111.566 25.5977 111.566 23.4182C111.582 22.1248 111.067 20.8899 110.158 20.0461C108.045 18.1925 105.01 18.2172 102.923 20.1047C101.955 21.1174 101.442 22.5333 101.516 23.9858V29.0596C101.516 32.4925 103.31 34.7313 106.541 34.7313C107.848 34.787 109.124 34.2948 110.102 33.3578C111.025 32.5347 111.555 31.3064 111.544 30.0146L111.542 30.0118ZM104.003 23.8332C103.881 22.4032 104.857 21.1373 106.183 21.0057C106.294 20.9947 106.406 20.992 106.517 20.9976C108.035 20.9976 109.085 22.0425 109.085 23.3263C109.143 24.3211 108.502 25.2057 107.593 25.3863L104.804 26.1314C104.508 26.1955 104.233 26.3392 104.003 26.5492L104.003 23.8332ZM117.757 34.491C117.93 34.5758 118.119 34.6167 118.309 34.6104C119.007 34.5832 119.552 33.9513 119.526 33.199C119.526 33.1822 119.525 33.1653 119.524 33.1485C119.519 32.75 119.289 32.3952 118.944 32.2528C117.342 31.4462 116.541 29.8944 116.541 27.6259V13.9558C116.541 13.3294 116.127 13 115.296 13C114.465 13 114.05 13.3287 114.05 13.9558V27.8062C114.056 31.0588 115.299 33.268 117.757 34.491ZM124.604 34.491C124.777 34.5759 124.966 34.6168 125.156 34.6104C125.854 34.5832 126.399 33.9513 126.373 33.199C126.373 33.1822 126.372 33.1653 126.371 33.1485C126.366 32.7499 126.136 32.395 125.791 32.2528C124.19 31.4455 123.389 29.893 123.389 27.6252V13.9558C123.389 13.3294 122.974 13 122.147 13C121.32 13 120.902 13.3287 120.902 13.9558V27.8062C120.904 31.0588 122.147 33.268 124.604 34.491ZM136.531 28.8489C135.703 28.8489 135.286 29.1472 135.286 29.7135V29.9256C135.155 31.4268 133.92 32.5295 132.528 32.3885C131.234 32.2573 130.242 31.0897 130.234 29.6873V29.1218C130.234 28.7641 130.592 28.4954 131.338 28.3166L134.238 27.57C136.612 26.9727 137.8 25.6005 137.8 23.4203C137.816 22.1269 137.301 20.8921 136.392 20.0482C134.279 18.1944 131.244 18.219 129.157 20.1069C128.189 21.1194 127.675 22.5353 127.749 23.988V29.0624C127.749 32.4946 129.544 34.7335 132.774 34.7335C134.082 34.7885 135.358 34.2963 136.337 33.3599C137.257 32.5355 137.784 31.3078 137.772 30.0175V29.8054C137.775 29.179 137.36 28.8496 136.531 28.8496L136.531 28.8489ZM130.238 23.836C130.116 22.406 131.092 21.1401 132.418 21.0086C132.529 20.9976 132.64 20.9949 132.751 21.0004C134.27 21.0004 135.318 22.0453 135.318 23.3291C135.377 24.3239 134.736 25.2086 133.827 25.3891L131.039 26.1349C130.743 26.199 130.468 26.3427 130.238 26.5527V23.8374L130.238 23.836Z" fill="#B62A2B"/>
</svg>
