<svg width="484" height="80" viewBox="0 0 484 80" fill="none" xmlns="http://www.w3.org/2000/svg">
<path d="M444.357 66.9701C429.298 66.9701 418.591 54.7335 418.591 40.0001V39.7639C418.591 25.0305 429.062 13.0413 444.11 13.0413C459.158 13.0413 469.876 25.2779 469.876 40.0113V40.2475C469.876 54.9809 459.327 66.9701 444.357 66.9701ZM444.121 79.2071C467.391 79.2071 483.811 61.3354 483.811 40.0001V39.7639C483.811 18.4286 467.548 0.804688 444.279 0.804688C421.009 0.804688 404.588 18.676 404.588 40.0113V40.2475C404.588 61.5828 420.851 79.2071 444.121 79.2071ZM341.156 65.7671V14.2448H356.047C371.984 14.2448 382.376 25.188 382.376 40.0113V40.2475C382.376 55.0596 371.995 65.7671 356.047 65.7671H341.156ZM327.795 77.9241H356.047C379.879 77.9241 396.299 61.3354 396.299 40.0901V39.8539C396.299 18.5186 379.879 2.17689 356.047 2.17689H327.795V77.9361V77.9241ZM268.625 39.7639V14.3235H288.026C297.844 14.3235 303.726 18.7547 303.726 26.8862V27.1224C303.726 34.7703 297.687 39.7639 288.105 39.7639H268.625ZM255.342 77.9241H268.625V51.5169H285.293L303.884 77.9241H319.584L299.138 49.2675C309.766 46.2083 317.166 38.7967 317.166 26.3239V26.0877C317.166 19.4858 314.917 13.8511 310.891 9.74599C306.066 4.99979 298.575 2.17689 288.993 2.17689H255.264L255.342 77.9361V77.9241ZM194.238 47.8167L207.195 17.5513L220.32 47.8167H194.238ZM167.909 77.9241H181.518L189.323 59.6484H225.145L232.792 77.9241H246.885L213.56 1.60329H201.245L167.92 77.9241H167.909ZM135.946 79.2181C150.117 79.2181 158.81 74.0671 166.695 65.7781L158.158 57.0841C151.635 63.1236 145.685 66.9021 136.418 66.9021C121.932 66.9021 111.461 54.7447 111.461 39.9326V39.6964C111.461 24.8843 121.932 12.9739 136.418 12.9739C145.112 12.9739 151.556 16.7528 157.596 22.3875L166.132 12.569C158.889 5.64089 150.432 0.815987 136.508 0.815987C113.564 0.815987 97.4588 18.4511 97.4588 40.0226V40.2588C97.3801 61.9989 113.879 79.2181 135.946 79.2181ZM75.7299 77.9241H89.0124V2.16559H75.7299V77.9241ZM14.0633 39.7639V14.3235H33.4641C43.2826 14.3235 49.1648 18.7547 49.1648 26.8862V27.1224C49.1648 34.7703 43.1252 39.7639 33.5429 39.7639H14.052H14.0633ZM0.769531 77.9131H14.052V51.5056H30.7199L49.311 77.9131H65.0117L44.5648 49.2562C55.1931 46.1971 62.5935 38.7854 62.5935 26.3126V26.0765C62.5935 19.4745 60.3442 13.8399 56.3178 9.73479C51.4929 4.98859 44.0025 2.16559 34.4988 2.16559H0.769531V77.9241V77.9131Z" fill="white"/>
</svg>
