<svg width="186" height="80" viewBox="0 0 186 80" fill="none" xmlns="http://www.w3.org/2000/svg">
<rect x="0.5" y="0.5" width="185" height="79" rx="11.5" fill="white"/>
<rect x="0.5" y="0.5" width="185" height="79" rx="11.5" stroke="#C4C4C4"/>
<path d="M21.9109 39.436L20.5093 38.6125C18.783 37.5909 17.8961 36.8307 17.8961 35.6825C17.8961 34.3442 18.973 33.584 20.6993 33.584C21.8476 33.584 23.3126 34.0908 25.2289 35.1123L25.4823 35.239V31.8023H25.419C23.8906 31.0421 22.1643 30.5907 20.4459 30.5907C16.7478 30.5907 14.3168 32.6971 14.3168 35.8092C14.3168 38.4224 16.0431 39.9507 18.5296 41.4157L19.9946 42.3026C22.101 43.5142 22.8691 44.4645 22.8691 45.7394C22.8691 47.2678 21.4675 48.3526 19.4878 48.3526C17.8961 48.3526 16.1698 47.7112 14.0634 46.3729H14V50.3244L14.2534 50.4511C15.9797 51.2113 17.8248 51.5994 19.6778 51.5994C23.8273 51.5994 26.5672 49.2395 26.5672 45.6761C26.5672 43.1341 25.2923 41.4157 21.9109 39.436ZM47.2354 31.0421V51.148H50.8068V42.366H58.7177V39.1826H50.8701V34.2809H59.1611V31.1054L47.2354 31.0421ZM64.9656 42.1759H72.5598V39.0559H64.9656V34.2175H73.1933V31.0421H61.4576V51.148H73.3834V47.9725H64.9656V42.1759ZM129.322 31.0421H124.99L120.461 38.169C120.271 38.4224 120.136 38.6758 120.073 38.9292H120.009C119.883 38.6758 119.756 38.4224 119.566 38.169C116.763 33.7741 115.036 31.0421 115.036 31.0421H110.76L118.228 42.0492V51.148H121.862V41.9859C122.243 41.4157 129.322 31.0421 129.322 31.0421ZM105.977 30.4006H105.597L96.0946 51.148H99.9827L101.511 47.6479H110.127L111.592 51.148H115.417L105.977 30.4006ZM102.794 44.7258C102.794 44.7258 104.449 40.711 105.534 38.2324C105.661 37.9156 105.724 37.5909 105.787 37.2742H105.851C105.914 37.5909 106.041 37.9156 106.104 38.2324C107.189 40.8377 108.852 44.7258 108.852 44.7258H102.794ZM87.0988 39.8874C87.2255 39.5706 87.2888 39.246 87.3522 38.8659H87.4156C87.4789 39.1826 87.6056 39.5706 87.6769 39.8874C88.3104 41.5424 92.5232 51.8528 92.5232 51.8528H92.84L100.109 31.0421H96.2847L92.7133 42.2393C92.5866 42.556 92.5232 42.8807 92.4599 43.1975C92.3965 42.8807 92.3331 42.556 92.1985 42.2393C91.565 40.4576 87.6056 30.2739 87.6056 30.2739H87.2888C87.2888 30.2739 83.5274 40.0141 82.6959 42.1759C82.5692 42.4927 82.5059 42.8094 82.4425 43.1975H82.3792C82.3158 42.8807 82.2525 42.556 82.1258 42.2393C81.2309 39.436 78.5544 31.0421 78.5544 31.0421H74.785L81.9991 51.8528H82.3158L87.0988 39.8874ZM36.4578 30.4006H36.1332L26.6939 51.148H30.582L32.1183 47.6479H40.6627L42.1277 51.148H45.9604L36.4578 30.4006ZM33.2665 44.7258C33.2665 44.7258 34.9216 40.711 36.0065 38.2324C36.1332 37.9156 36.2599 37.5909 36.3232 37.2108C36.3866 37.5276 36.5212 37.9156 36.6479 38.2324C37.7961 40.8377 39.3878 44.7258 39.3878 44.7258H33.2665Z" fill="black"/>
<path d="M152.415 50.2215C152.415 44.1478 143.221 43.5142 143.221 34.851C143.221 28.5635 148.17 25.491 153.048 25C152.629 25 152.13 25 151.496 25C150.293 25 149.73 25.0713 148.741 25.0713C139.618 25.491 134.669 30.3848 134.384 37.7889C134.384 38.2799 134.312 39.1114 134.312 40.4417C134.312 41.7721 134.384 42.6036 134.384 43.0945C134.669 50.364 139.333 55.1074 147.957 55.7409C149.374 55.3925 152.415 54.3393 152.415 50.2215ZM168.538 37.7177C168.253 30.662 163.866 25.9819 155.598 25.1425C154.11 25.4197 151.283 26.5442 151.283 30.5907C151.283 36.7436 160.476 37.298 160.476 45.9612C160.476 51.4093 156.303 55.3212 150.079 55.8122C150.507 55.8122 150.863 55.8122 151.425 55.8122C152.629 55.8122 153.191 55.7409 154.181 55.7409C163.303 55.3212 168.253 50.4353 168.538 43.0233C168.538 42.5402 168.609 41.7008 168.609 40.3705C168.609 39.048 168.609 38.2086 168.538 37.7177Z" fill="#E11C2A"/>
<path d="M160.128 45.9612C160.128 37.298 151.164 36.7436 151.164 30.5907C151.164 26.5442 153.991 25.4197 155.369 25.1425C154.957 25.0713 154.474 25.0713 153.991 25H152.89C148.131 25.491 143.301 28.6347 143.301 34.851C143.301 43.5142 152.265 44.0765 152.265 50.2215C152.265 54.4106 149.303 55.4638 147.925 55.6697C148.131 55.6697 148.408 55.7409 148.614 55.7409L149.992 55.8122C156.058 55.3212 160.128 51.3381 160.128 45.9612Z" fill="white"/>
<path d="M171.665 54.0543C171.665 54.3235 171.601 54.5928 171.53 54.7986C171.467 54.9966 171.324 55.2025 171.126 55.3371C170.984 55.4638 170.786 55.5984 170.58 55.6697C170.374 55.7331 170.168 55.8043 169.899 55.8043C169.63 55.8043 169.424 55.7331 169.147 55.6697C168.949 55.5984 168.743 55.4638 168.608 55.2659C168.466 55.1312 168.331 54.9333 168.268 54.7274C168.196 54.5294 168.125 54.2602 168.125 53.9909C168.125 53.7217 168.196 53.4524 168.268 53.2545C168.331 53.0486 168.466 52.8506 168.671 52.716C168.806 52.5814 169.012 52.4468 169.218 52.3755C169.424 52.3121 169.693 52.2488 169.899 52.2488C170.105 52.2488 170.374 52.3121 170.58 52.3755C170.786 52.4468 170.984 52.5814 171.126 52.716C171.261 52.8506 171.395 53.0486 171.53 53.2545C171.601 53.5871 171.665 53.793 171.665 54.0543ZM171.261 54.0543C171.261 53.8563 171.19 53.6583 171.126 53.4524C171.055 53.2545 170.984 53.1199 170.849 52.9852C170.714 52.8506 170.58 52.7793 170.445 52.6447C170.311 52.5814 170.105 52.5101 169.899 52.5101C169.693 52.5101 169.487 52.5814 169.352 52.6447C169.218 52.716 169.012 52.8506 168.877 52.9852C168.743 53.1199 168.671 53.2545 168.608 53.4524C168.537 53.6583 168.466 53.8563 168.466 54.0543C168.466 54.2602 168.466 54.4581 168.537 54.664C168.608 54.862 168.671 54.9966 168.806 55.1312C168.949 55.2659 169.083 55.4005 169.218 55.4638C169.352 55.5351 169.558 55.5984 169.828 55.5984C170.033 55.5984 170.239 55.5351 170.374 55.4638C170.509 55.4005 170.714 55.2659 170.786 55.1312C170.92 54.9966 170.984 54.862 171.055 54.664C171.261 54.5294 171.261 54.3235 171.261 54.0543ZM169.558 55.1312H169.218V53.1199H169.97C170.239 53.1199 170.374 53.1832 170.509 53.2545C170.651 53.3178 170.714 53.4524 170.714 53.6583C170.714 53.8563 170.651 53.9909 170.58 54.0543C170.509 54.1255 170.374 54.1889 170.239 54.1889L170.786 55.0679H170.445L169.899 54.1889H169.558V55.1312ZM169.899 53.9909C169.97 53.9909 170.033 53.9909 170.105 53.9909C170.168 53.9909 170.239 53.9909 170.239 53.9197C170.239 53.8563 170.311 53.8563 170.311 53.8563C170.311 53.8563 170.374 53.793 170.374 53.6583C170.374 53.5871 170.374 53.5237 170.311 53.5237C170.311 53.4524 170.239 53.4524 170.168 53.4524C170.105 53.4524 170.105 53.4524 170.033 53.3891C169.97 53.3178 169.97 53.3891 169.899 53.3891H169.487V53.9909H169.899Z" fill="black"/>
</svg>
