<svg width="81" height="81" viewBox="0 0 81 81" fill="none" xmlns="http://www.w3.org/2000/svg">
<g id="Icon">
<path id="Vector" d="M40.4976 21.1069C42.5849 21.1069 44.6252 20.488 46.3607 19.3284C48.0962 18.1687 49.4488 16.5205 50.2476 14.5921C51.0463 12.6637 51.2553 10.5418 50.8481 8.49459C50.4409 6.44742 49.4358 4.56697 47.9599 3.09104C46.484 1.61511 44.6036 0.609994 42.5565 0.202787C40.5093 -0.204421 38.3874 0.00457261 36.4591 0.803339C34.5307 1.60211 32.8825 2.95477 31.7229 4.69028C30.5633 6.42579 29.9443 8.46619 29.9443 10.5535C29.9443 13.3524 31.0562 16.0367 33.0353 18.0159C35.0144 19.9951 37.6987 21.1069 40.4976 21.1069Z" fill="#9B43FF"/>
<path id="Vector_2" d="M40.4976 51.0519C42.5849 51.0519 44.6252 50.4329 46.3607 49.2733C48.0962 48.1137 49.4488 46.4654 50.2476 44.537C51.0463 42.6087 51.2553 40.4867 50.8481 38.4395C50.4409 36.3924 49.4358 34.5119 47.9599 33.036C46.484 31.5601 44.6036 30.5549 42.5565 30.1477C40.5093 29.7405 38.3874 29.9495 36.4591 30.7483C34.5307 31.5471 32.8825 32.8997 31.7229 34.6352C30.5633 36.3707 29.9443 38.4111 29.9443 40.4984C29.9443 43.2974 31.0562 45.9817 33.0353 47.9608C35.0144 49.94 37.6987 51.0519 40.4976 51.0519Z" fill="#23B574"/>
<path id="Vector_3" d="M40.4974 81.0014C42.5847 81.0014 44.6251 80.3825 46.3606 79.2228C48.0961 78.0632 49.4488 76.415 50.2476 74.4866C51.0464 72.5582 51.2554 70.4362 50.8482 68.389C50.441 66.3418 49.4359 64.4613 47.96 62.9853C46.4841 61.5094 44.6037 60.5042 42.5565 60.097C40.5094 59.6897 38.3874 59.8987 36.459 60.6975C34.5306 61.4962 32.8824 62.8489 31.7227 64.5844C30.5631 66.3199 29.9441 68.3603 29.9441 70.4476C29.9441 71.8336 30.217 73.2059 30.7473 74.4864C31.2777 75.7668 32.055 76.9302 33.035 77.9102C34.015 78.8902 35.1783 79.6676 36.4588 80.198C37.7392 80.7284 39.1115 81.0014 40.4974 81.0014Z" fill="#FF93AA"/>
<path id="Vector_4" d="M70.4476 51.0519C72.5348 51.0519 74.5752 50.4329 76.3107 49.2733C78.0461 48.1137 79.3988 46.4654 80.1975 44.537C80.9963 42.6087 81.2053 40.4867 80.7981 38.4395C80.3909 36.3924 79.3858 34.5119 77.9099 33.036C76.434 31.5601 74.5535 30.5549 72.5064 30.1477C70.4593 29.7405 68.3374 29.9495 66.409 30.7483C64.4806 31.5471 62.8324 32.8997 61.6728 34.6352C60.5132 36.3707 59.8943 38.4111 59.8943 40.4984C59.8944 43.2973 61.0062 45.9816 62.9853 47.9608C64.9645 49.9399 67.6487 51.0518 70.4476 51.0519Z" fill="#2C76EC"/>
<path id="Vector_5" d="M10.5533 51.0519C12.6405 51.0519 14.6809 50.4329 16.4164 49.2733C18.1518 48.1137 19.5045 46.4654 20.3032 44.537C21.102 42.6087 21.311 40.4867 20.9038 38.4395C20.4966 36.3924 19.4915 34.5119 18.0156 33.036C16.5397 31.5601 14.6593 30.5549 12.6121 30.1477C10.565 29.7405 8.44307 29.9495 6.51471 30.7483C4.58635 31.5471 2.93816 32.8997 1.77855 34.6352C0.618939 36.3707 0 38.4111 0 40.4984C0 43.2974 1.11186 45.9817 3.09098 47.9608C4.07095 48.9408 5.23433 49.7182 6.51471 50.2485C7.7951 50.7789 9.1674 51.0519 10.5533 51.0519Z" fill="#FF3B48"/>
</g>
</svg>
