<svg width="256" height="256" viewBox="0 0 256 256" fill="none" xmlns="http://www.w3.org/2000/svg">
<g clip-path="url(#clip0_28136_45855)">
<path d="M127.998 251.981C196.605 251.981 252.395 196.167 252.395 127.584C252.395 59.0006 196.605 3.16406 127.998 3.16406C59.3919 3.16406 3.60156 58.9544 3.60156 127.561C3.60156 196.167 59.415 251.957 127.998 251.957" fill="black"/>
<mask id="mask0_28136_45855" style="mask-type:luminance" maskUnits="userSpaceOnUse" x="6" y="6" width="244" height="243">
<path d="M6.74219 127.561C6.74219 194.528 61.0315 248.817 127.998 248.817C194.965 248.817 249.255 194.528 249.255 127.561C249.255 60.594 194.965 6.30469 127.998 6.30469C61.0315 6.30469 6.74219 60.594 6.74219 127.561Z" fill="white"/>
</mask>
<g mask="url(#mask0_28136_45855)">
<path d="M126.89 180.697C126.89 162.223 111.926 147.26 93.4529 147.26C74.9793 147.26 60.0156 162.223 60.0156 180.697C60.0156 199.171 74.9793 214.134 93.4529 214.134C111.926 214.134 126.89 199.171 126.89 180.697Z" fill="#F58545"/>
<path d="M146.357 186.401H115.275C112.458 186.401 110.148 184.092 110.148 181.275V130.472C110.148 127.655 112.458 125.346 115.275 125.346H146.357C149.174 125.346 151.483 127.655 151.483 130.472V181.275C151.483 184.092 149.174 186.401 146.357 186.401Z" fill="#FCB81A"/>
<path d="M192.149 210.046H144.025C141.208 210.046 138.898 207.736 138.898 204.919V154.117C138.898 151.299 141.208 148.99 144.025 148.99H192.149C194.966 148.99 197.275 151.299 197.275 154.117V204.919C197.275 207.736 194.966 210.046 192.149 210.046Z" fill="#F05761"/>
<path d="M69.9718 123.521C69.9718 123.521 66.1155 147.698 93.4564 147.259C93.4564 147.259 96.6431 122.505 69.9718 123.521Z" fill="#73C48F"/>
<path d="M208.915 180.373H47.1089C44.9151 180.373 43.1602 182.151 43.1602 184.322V195.36C43.1602 197.53 44.9382 199.308 47.1089 199.308H51.7735C53.2283 199.308 54.4522 200.394 54.6369 201.826L61.3798 254.314C62.2803 261.38 68.3074 266.668 75.4197 266.668H181.343C188.571 266.668 194.644 261.218 195.429 254.014L201.017 201.895C201.179 200.417 202.403 199.308 203.881 199.308H208.892C211.062 199.308 212.84 197.53 212.84 195.36V184.322C212.84 182.128 211.062 180.373 208.892 180.373" fill="#73C48F"/>
<path d="M93.9618 251.796C90.5441 251.796 87.75 249.002 87.75 245.585V215.542C87.75 212.124 90.5441 209.33 93.9618 209.33C97.3794 209.33 100.174 212.124 100.174 215.542V245.585C100.174 249.002 97.3794 251.796 93.9618 251.796Z" fill="#000005"/>
<path d="M127.493 251.796C124.075 251.796 121.281 249.002 121.281 245.585V215.542C121.281 212.124 124.075 209.33 127.493 209.33C130.911 209.33 133.705 212.124 133.705 215.542V245.585C133.705 249.002 130.911 251.796 127.493 251.796Z" fill="#000005"/>
<path d="M161.044 251.796C157.626 251.796 154.832 249.002 154.832 245.585V215.542C154.832 212.124 157.626 209.33 161.044 209.33C164.461 209.33 167.256 212.124 167.256 215.542V245.585C167.256 249.002 164.461 251.796 161.044 251.796Z" fill="#000005"/>
<path d="M121.973 193.859C118.671 190.557 118.671 185.176 121.973 181.874L173.745 130.102C177.047 126.799 182.428 126.799 185.73 130.102C189.032 133.404 189.032 138.784 185.73 142.086L133.957 193.859C130.655 197.161 125.275 197.161 121.973 193.859Z" fill="white"/>
</g>
<path d="M128.002 255.121C57.6634 255.121 0.441406 197.899 0.441406 127.56C0.441406 57.222 57.6634 0 128.002 0C198.34 0 255.562 57.222 255.562 127.56C255.562 197.899 198.34 255.121 128.002 255.121ZM128.002 6.30412C61.1503 6.30412 6.76862 60.7089 6.76862 127.56C6.76862 194.412 61.1503 248.817 128.025 248.817C194.899 248.817 249.281 194.435 249.281 127.56C249.281 60.6858 194.853 6.30412 128.002 6.30412Z" fill="#F05662"/>
<path d="M154.231 92.4831V108.07H147.673V93.2913C147.673 89.8275 145.594 88.0494 142.639 88.0494C139.429 88.0494 137.05 89.9199 137.05 94.3535V108.07H130.492V82.669H136.288L137.05 85.5093C138.574 83.2232 141.207 81.9531 144.625 81.9531C150.005 81.9531 154.231 85.7171 154.231 92.46" fill="white"/>
<path d="M176.885 92.9911C176.076 89.3426 173.328 87.8647 170.581 87.8647C167.071 87.8647 164.692 89.7351 163.93 92.9911H176.885ZM171.204 102.851C172.913 102.851 174.391 102.366 175.522 101.604C176.515 100.935 177.785 100.842 178.801 101.42C180.718 102.528 180.833 105.276 179.009 106.523C176.862 108.001 174.183 108.786 171.089 108.786C162.545 108.786 157.164 102.944 157.164 95.3696C157.164 87.7954 162.591 81.9531 170.581 81.9531C178.109 81.9531 183.443 87.8878 183.443 95.3696C183.443 96.3394 183.35 97.1939 183.189 98.0483H164.045C164.969 101.397 167.763 102.828 171.204 102.828" fill="white"/>
<path d="M193.56 64.7956C193.56 66.8508 191.898 68.5365 189.819 68.5365C187.741 68.5365 186.102 66.8739 186.102 64.7956C186.102 62.7173 187.764 61.0547 189.819 61.0547C191.875 61.0547 193.56 62.7173 193.56 64.7956Z" fill="#9B43FF"/>
<path d="M193.56 75.3952C193.56 77.4504 191.898 79.1361 189.819 79.1361C187.741 79.1361 186.102 77.4735 186.102 75.3952C186.102 73.3169 187.764 71.6543 189.819 71.6543C191.875 71.6543 193.56 73.3169 193.56 75.3952Z" fill="#73C48F"/>
<path d="M193.56 85.9714C193.56 88.0266 191.898 89.7123 189.819 89.7123C187.741 89.7123 186.102 88.0497 186.102 85.9714C186.102 83.8931 187.764 82.2305 189.819 82.2305C191.875 82.2305 193.56 83.8931 193.56 85.9714Z" fill="#F593A5"/>
<path d="M200.417 79.113C198.361 79.113 196.676 77.4504 196.676 75.3721C196.676 73.2938 198.338 71.6543 200.417 71.6543C202.495 71.6543 204.158 73.3169 204.158 75.3721C204.158 77.4273 202.495 79.113 200.417 79.113Z" fill="#2C76EC"/>
<path d="M179.241 79.113C177.186 79.113 175.5 77.4504 175.5 75.3721C175.5 73.2938 177.163 71.6543 179.241 71.6543C181.319 71.6543 182.982 73.3169 182.982 75.3721C182.982 77.4273 181.319 79.113 179.241 79.113Z" fill="#F05662"/>
<path d="M114.721 87.8647C117.469 87.8647 120.217 89.3426 121.025 92.9911H108.071C108.833 89.7351 111.211 87.8647 114.721 87.8647ZM120.771 100.611C119.617 101.928 117.7 102.851 115.345 102.851C111.881 102.851 109.087 101.42 108.186 98.0714H127.329C127.491 97.217 127.583 96.3394 127.583 95.3696C127.583 87.9109 122.249 81.9531 114.721 81.9531C106.754 81.9531 101.305 87.7954 101.305 95.3696C101.305 102.944 106.685 108.786 115.229 108.786C119.963 108.786 123.681 106.916 126.082 103.637L120.748 100.588L120.771 100.611Z" fill="white"/>
<path d="M60.7088 87.1495C55.3284 85.5331 53.9429 84.3554 53.9429 82.1616C53.9429 80.1295 55.6748 78.6055 58.6074 78.6055C62.2098 78.6055 64.1264 80.4759 65.3965 83.1546L71.3081 79.7832C68.9296 74.8184 64.4497 71.8164 58.6074 71.8164C52.7652 71.8164 46.9229 75.6728 46.9229 82.3926C46.9229 89.1123 52.211 91.4215 57.6376 93.0149C62.9257 94.539 65.3041 95.555 65.3041 98.1875C65.3041 100.173 63.4799 102.367 59.5542 102.206C55.9981 102.067 54.0121 99.8039 52.9961 98.3722C51.8877 96.802 50.8947 95.2779 48.6086 95.7859C46.3456 96.2939 45.3064 98.5339 46.3456 100.797C48.1468 104.676 52.1417 108.81 59.3926 108.81C66.6435 108.81 72.301 104.746 72.301 98.0951C72.301 90.8442 66.2971 88.9507 60.6626 87.1726" fill="white"/>
<path d="M88.4211 102.298C84.5185 102.298 81.6089 99.4114 81.6089 95.3934C81.6089 91.3754 84.4954 88.4427 88.4211 88.4427C90.9843 88.4427 93.1549 89.7358 94.171 91.791L99.8516 88.5581C97.7733 84.6556 93.4551 82 88.4672 82C80.7545 82 75.0508 87.8423 75.0508 95.4165C75.0508 102.991 80.7314 108.833 88.4672 108.833C93.4551 108.833 97.7733 106.2 99.944 102.229L94.2633 98.9726C93.2473 101.051 91.0535 102.321 88.4211 102.321" fill="white"/>
<path d="M187.207 105.67V106.039H187.946V108.071H188.385V106.039H189.124V105.67H187.207Z" fill="white"/>
<path d="M189.402 105.67H190.072L190.695 107.379L191.319 105.67H191.989V108.071H191.573V106.155H191.55L190.834 108.071H190.534L189.818 106.155H189.795V108.071H189.402V105.67Z" fill="white"/>
</g>
<defs>
<clipPath id="clip0_28136_45855">
<rect width="256" height="256" fill="white"/>
</clipPath>
</defs>
</svg>
