<svg width="163" height="48" viewBox="0 0 163 48" fill="none" xmlns="http://www.w3.org/2000/svg">
<g id="Scene+ Logo" clip-path="url(#clip0_4047_9212)">
<path id="Vector" d="M111.443 31.6022V47.2839H104.7V32.4193C104.7 28.9442 102.557 27.1584 99.5311 27.1584C96.2419 27.1584 93.7797 29.0452 93.7797 33.4889V47.2839H87.0227V21.7414H92.9809L93.7703 24.6014C95.3397 22.3061 98.0556 21.0253 101.561 21.0253C107.106 21.0253 111.443 24.808 111.443 31.6022Z" fill="white"/>
<path id="Vector_2" d="M128.899 42.023C130.479 42.0502 132.03 41.6101 133.349 40.7605C133.838 40.4223 134.415 40.226 135.014 40.1943C135.613 40.1627 136.208 40.2969 136.732 40.5815C137.187 40.8375 137.568 41.2017 137.839 41.6402C138.111 42.0787 138.265 42.5773 138.287 43.0895C138.308 43.6017 138.197 44.111 137.963 44.5698C137.729 45.0287 137.38 45.4222 136.948 45.7138C134.534 47.2744 131.689 48.0754 128.796 48.0092C120.009 48.0092 114.464 42.1331 114.464 34.5218C114.464 26.9105 120.06 21.0344 128.269 21.0344C136.013 21.0344 141.501 27.0023 141.501 34.5218C141.498 35.4306 141.41 36.3372 141.238 37.2303H121.526C122.466 40.5907 125.342 42.023 128.899 42.023ZM134.754 32.1117C133.917 28.4392 131.093 26.9518 128.269 26.9518C124.665 26.9518 122.203 28.8431 121.423 32.1117H134.754Z" fill="white"/>
<path id="Vector_3" d="M148.098 7.50115C150.219 7.50115 151.937 5.82196 151.937 3.75057C151.937 1.67919 150.219 0 148.098 0C145.978 0 144.26 1.67919 144.26 3.75057C144.26 5.82196 145.978 7.50115 148.098 7.50115Z" fill="#9B43FF"/>
<path id="Vector_4" d="M148.098 18.1515C150.219 18.1515 151.937 16.4723 151.937 14.4009C151.937 12.3295 150.219 10.6503 148.098 10.6503C145.978 10.6503 144.26 12.3295 144.26 14.4009C144.26 16.4723 145.978 18.1515 148.098 18.1515Z" fill="#23B574"/>
<path id="Vector_5" d="M148.098 28.7972C150.219 28.7972 151.937 27.118 151.937 25.0467C151.937 22.9753 150.219 21.2961 148.098 21.2961C145.978 21.2961 144.26 22.9753 144.26 25.0467C144.26 27.118 145.978 28.7972 148.098 28.7972Z" fill="#FF93AA"/>
<path id="Vector_6" d="M158.995 18.1515C161.115 18.1515 162.834 16.4723 162.834 14.4009C162.834 12.3295 161.115 10.6503 158.995 10.6503C156.875 10.6503 155.156 12.3295 155.156 14.4009C155.156 16.4723 156.875 18.1515 158.995 18.1515Z" fill="#2C76EC"/>
<path id="Vector_7" d="M137.197 18.1515C139.317 18.1515 141.036 16.4723 141.036 14.4009C141.036 12.3295 139.317 10.6503 137.197 10.6503C135.077 10.6503 133.358 12.3295 133.358 14.4009C133.358 16.4723 135.077 18.1515 137.197 18.1515Z" fill="#FF3B48"/>
<path id="Vector_8" d="M76.9861 39.7735C76.2707 40.5132 75.4028 41.0962 74.4397 41.484C73.4766 41.8718 72.4403 42.0555 71.3992 42.023C67.8421 42.023 64.9664 40.5907 64.0267 37.2211H83.7619C83.9298 36.3275 84.0162 35.4212 84.0203 34.5126C84.0203 27.0023 78.5321 21.0253 70.793 21.0253C62.5794 21.0253 56.9878 26.9013 56.9878 34.5126C56.9878 42.124 62.5277 48 71.3146 48C76.1873 48 80.0216 46.1178 82.4885 42.8309L76.9861 39.7735ZM70.7742 26.9518C73.5935 26.9518 76.4129 28.4346 77.2587 32.1117H63.9233C64.708 28.8432 67.1655 26.9518 70.7742 26.9518Z" fill="white"/>
<path id="Vector_9" d="M15.1632 26.2356C9.61852 24.6013 8.20416 23.4261 8.20416 21.2318C8.20416 19.1844 9.98502 17.6557 13.0158 17.6557C16.7138 17.6557 18.7014 19.5287 20.0077 22.2188L26.088 18.8263C23.6305 13.8225 19.0397 10.8064 13.0158 10.8064C6.74281 10.8064 0.991415 14.6901 0.991415 21.4338C0.991415 28.1775 6.428 30.5279 12.0243 32.1117C17.4609 33.645 19.9184 34.6687 19.9184 37.3221C19.9184 39.3144 18.0389 41.5271 13.9932 41.3619C10.3233 41.2104 8.27935 38.9426 7.2503 37.5103C6.12257 35.9357 5.07472 34.3932 2.73469 34.8982C0.394656 35.4032 -0.671986 37.6526 0.41345 39.9479C2.29299 43.8454 6.3763 48.0091 13.8522 48.0091C21.6476 48.0091 27.1359 43.9235 27.1359 37.2303C27.1453 29.9173 20.9757 28.026 15.1632 26.2356Z" fill="white"/>
<path id="Vector_10" d="M43.6852 41.4445C39.6583 41.4445 36.6745 38.5294 36.6745 34.4942C36.6745 30.4591 39.6583 27.4935 43.6852 27.4935C44.8984 27.4595 46.0969 27.7596 47.1439 28.3595C48.1908 28.9594 49.0439 29.8349 49.6058 30.886L55.4464 27.622C53.3037 23.6924 48.868 21.0344 43.7369 21.0344C35.7864 21.0344 29.9316 26.9105 29.9316 34.5218C29.9316 42.1331 35.7864 48.0092 43.7369 48.0092C46.1392 48.0396 48.5056 47.4382 50.5881 46.2678C52.6706 45.0975 54.3925 43.4014 55.5733 41.3573L49.7138 38.0887C48.6519 40.1821 46.4011 41.4445 43.6852 41.4445Z" fill="white"/>
<path id="Vector_11" d="M146.158 45.241H145.397V44.8646H147.356V45.241H146.595V47.2839H146.158V45.241Z" fill="white"/>
<path id="Vector_12" d="M147.643 44.8646H148.334L148.977 46.5861L149.612 44.8646H150.307V47.2839H149.87V45.342L149.118 47.2839H148.813L148.07 45.342V47.2839H147.652L147.643 44.8646Z" fill="white"/>
</g>
<defs>
<clipPath id="clip0_4047_9212">
<rect width="162.839" height="48" fill="white"/>
</clipPath>
</defs>
</svg>
