<svg width="16" height="18" viewBox="0 0 16 18" fill="none" xmlns="http://www.w3.org/2000/svg">
<path d="M8.00567 5.18877C9.16542 5.18877 10.1056 4.2486 10.1056 3.08885C10.1056 1.9291 9.16542 0.988937 8.00567 0.988937C6.84592 0.988937 5.90576 1.9291 5.90576 3.08885C5.90576 4.2486 6.84592 5.18877 8.00567 5.18877Z" fill="#9C42FF"/>
<path d="M8.00567 17.0112C9.16542 17.0112 10.1056 16.071 10.1056 14.9112C10.1056 13.7515 9.16542 12.8113 8.00567 12.8113C6.84592 12.8113 5.90576 13.7515 5.90576 14.9112C5.90576 16.071 6.84592 17.0112 8.00567 17.0112Z" fill="#FF93AA"/>
<path fill-rule="evenodd" clip-rule="evenodd" d="M2.09123 11.0814C2.50484 11.0814 2.90915 10.9588 3.25305 10.729C3.59695 10.4992 3.86499 10.1726 4.02327 9.79048C4.18155 9.40836 4.22296 8.9879 4.14227 8.58224C4.06158 8.17658 3.86241 7.80394 3.56995 7.51148C3.27749 7.21902 2.90487 7.01985 2.49922 6.93916C2.09356 6.85847 1.67307 6.89988 1.29095 7.05816C0.908831 7.21644 0.582226 7.48448 0.35244 7.82838C0.122654 8.17228 0 8.57659 0 8.9902C0 9.54482 0.220337 10.0767 0.612517 10.4689C1.0047 10.8611 1.53661 11.0814 2.09123 11.0814Z" fill="#FF3B48"/>
<path d="M8.00567 11.093C9.16542 11.093 10.1056 10.1529 10.1056 8.9931C10.1056 7.83335 9.16542 6.89319 8.00567 6.89319C6.84592 6.89319 5.90576 7.83335 5.90576 8.9931C5.90576 10.1529 6.84592 11.093 8.00567 11.093Z" fill="#23B574"/>
<path fill-rule="evenodd" clip-rule="evenodd" d="M13.9091 11.0814C14.3227 11.0814 14.727 10.9588 15.0709 10.729C15.4148 10.4992 15.6828 10.1726 15.8411 9.79048C15.9994 9.40836 16.0408 8.9879 15.9601 8.58224C15.8794 8.17658 15.6803 7.80394 15.3878 7.51148C15.0953 7.21902 14.7227 7.01985 14.3171 6.93916C13.9114 6.85847 13.4909 6.89988 13.1088 7.05816C12.7267 7.21644 12.4001 7.48448 12.1703 7.82838C11.9405 8.17228 11.8179 8.57659 11.8179 8.9902C11.8179 9.54482 12.0382 10.0767 12.4304 10.4689C12.8225 10.8611 13.3545 11.0814 13.9091 11.0814Z" fill="#2C76EC"/>
</svg>
