<svg width="185" height="80" viewBox="0 0 185 80" fill="none" xmlns="http://www.w3.org/2000/svg">
<rect x="0.5" y="0.5" width="184" height="79" rx="11.5" fill="white"/>
<rect x="0.5" y="0.5" width="184" height="79" rx="11.5" stroke="#C4C4C4"/>
<path d="M137.695 46.7464C137.695 46.7464 137.695 51.8628 137.695 52.9003C143.516 52.6865 147.547 48.7581 148.418 44.9961C148.909 41.8914 150.105 39.056 154.398 38.3511C154.62 38.2957 154.786 38.2957 155 38.2957V31.9754C154.786 31.9754 154.62 31.9754 154.398 31.9754C148.418 32.2447 144.34 36.6641 143.302 42.2715C142.7 44.8931 140.364 46.7464 137.695 46.7464ZM124.31 57.2643H130.955L144.229 32.3002H138.186L133.457 41.3449L129.537 32.2447H123.169L129.917 47.776L124.31 57.2643ZM93.1362 52.6865C98.6327 52.631 103.036 48.1086 102.981 42.6042C102.981 42.6042 102.981 42.6042 102.981 42.5487C103.036 37.0443 98.6327 32.5219 93.1362 32.411C91.7185 32.411 90.3642 32.7358 89.1128 33.2822V25.6552H83.2836V41.5667C83.2836 41.8359 83.2836 42.4933 83.2836 42.6042V42.6596C83.4499 48.3779 87.8614 52.6865 93.1362 52.6865ZM93.3025 38.3511C95.5281 38.4065 97.3259 40.2598 97.3259 42.5487C97.3814 44.7822 95.5835 46.6355 93.35 46.6355C91.1245 46.691 89.2712 44.8931 89.2712 42.6596C89.3266 40.4737 90.3642 38.3511 93.3025 38.3511ZM124.531 44.9485H118.766C118.275 45.8197 117.57 46.4692 116.746 46.9602C115.392 47.6176 113.816 47.6176 112.509 46.9048C112.342 46.8018 112.453 46.7464 112.509 46.691L113.325 46.1999L124.421 39.4995C124.096 37.5908 120.231 31.4844 113.649 32.2447C105.761 33.1159 104.232 39.9826 104.232 42.7626C104.232 45.9781 106.735 52.9003 114.79 52.9003C121.807 52.8449 124.531 46.2553 124.531 44.9485ZM111.796 38.462C113.325 37.369 115.336 37.3136 116.968 38.2957C116.318 38.6758 109.784 42.6596 109.784 42.6596C109.626 41.0202 110.442 39.3886 111.796 38.462ZM59.7293 40.7509C60.5451 36.1176 63.1032 31.5398 69.6294 30.1221C69.9541 30.0667 70.2868 30.0667 70.6115 30.0667V23.0416C70.2868 22.9861 70.0096 22.9861 69.6848 23.0416C61.1945 23.7465 54.502 29.742 53.0923 37.9155C52.221 43.0398 48.4669 46.4137 44 46.1445C44 47.673 44 51.6489 44 53.3913C54.2882 53.7161 58.8581 45.3841 59.7293 40.7509ZM62.1766 42.3824C62.1766 42.4379 62.1766 42.5487 62.1766 42.6042C62.4459 48.4334 66.8019 52.734 72.0767 52.734C77.5732 52.6865 81.9847 48.1086 81.9293 42.6042C82.1431 37.1552 77.8425 32.5774 72.4093 32.3556C66.9682 32.1418 62.3904 36.4424 62.1766 41.8914C62.1766 42.0577 62.1766 42.224 62.1766 42.3824ZM72.2985 38.3511C74.6903 38.3511 76.3219 40.5846 76.3219 42.6042C76.3773 44.8377 74.5794 46.691 72.3539 46.691C70.1204 46.691 68.2671 44.9485 68.2671 42.7071C68.2671 40.4737 69.6848 38.3511 72.2985 38.3511Z" fill="#4CA44D"/>
</svg>
