<svg width="185" height="80" viewBox="0 0 185 80" fill="none" xmlns="http://www.w3.org/2000/svg">
<rect x="0.5" y="0.5" width="184" height="79" rx="11.5" fill="white"/>
<rect x="0.5" y="0.5" width="184" height="79" rx="11.5" stroke="#C4C4C4"/>
<path d="M59.5129 58.26H56.2754V41.01H67.3477V44.09H59.5129V48.04H66.3764V51.08H59.5129V58.26ZM71.5287 49.7C71.5287 44.84 74.0169 43.63 75.7837 43.63C77.5504 43.63 80.0387 44.84 80.0387 49.7C80.0387 54.56 77.5504 55.77 75.7837 55.77C74.0169 55.77 71.5287 54.56 71.5287 49.7ZM68.2912 49.7C68.2912 57.82 73.7117 58.8 75.7837 58.8C77.8557 58.8 83.2762 57.82 83.2762 49.7C83.2762 41.57 77.8557 40.59 75.7837 40.59C73.7117 40.59 68.2912 41.57 68.2912 49.7ZM87.8827 49.7C87.8827 44.84 90.3709 43.63 92.1377 43.63C93.9044 43.63 96.3927 44.84 96.3927 49.7C96.3927 54.56 93.9044 55.77 92.1377 55.77C90.3709 55.77 87.8827 54.56 87.8827 49.7ZM84.6452 49.7C84.6452 57.82 90.0657 58.8 92.1377 58.8C94.2097 58.8 99.6302 57.82 99.6302 49.7C99.6302 41.57 94.2097 40.59 92.1377 40.59C90.0657 40.59 84.6452 41.57 84.6452 49.7ZM103.811 44.04H106.928C108.307 44.04 110.499 44.45 110.499 49.55C110.499 52.39 109.611 55.36 106.965 55.36H103.811V44.04ZM100.62 58.26H107.354C112.488 58.26 113.82 53 113.82 49.29C113.82 46.01 112.728 41.01 107.483 41.01H100.62V58.26ZM118.62 53.02C118.639 53.99 119.074 55.82 121.923 55.82C123.458 55.82 125.179 55.41 125.179 53.58C125.179 52.23 124.004 51.87 122.339 51.43L120.665 51C118.139 50.35 115.707 49.72 115.707 45.91C115.707 43.99 116.641 40.6 121.71 40.6C126.492 40.6 127.769 44.06 127.787 46.18H124.679C124.587 45.41 124.328 43.58 121.469 43.58C120.23 43.58 118.741 44.08 118.741 45.65C118.741 47 119.749 47.29 120.396 47.46L124.217 48.49C126.344 49.07 128.287 50.04 128.287 53.14C128.287 58.34 123.523 58.8 122.154 58.8C116.474 58.8 115.503 55.17 115.503 53.02H118.62ZM50.5497 28.5L51.3914 25.99L50.1149 21H36.4342L35.1484 25.99L35.9994 28.5H38.9132V27.85C38.9132 27.09 39.4867 26.47 40.1897 26.47C40.8927 26.47 41.4662 27.09 41.4662 27.85C41.4662 27.85 41.4662 31.13 41.4662 31.89C41.4662 33.1 39.9954 33.21 39.9954 33.21L38.3674 33.3L39.9584 38.26H46.5907L48.1724 33.3L46.5444 33.21C46.5444 33.21 45.0737 33.1 45.0737 31.89C45.0737 31.13 45.0737 27.85 45.0737 27.85C45.0737 27.09 45.6472 26.47 46.3502 26.47C47.0624 26.47 47.6359 27.09 47.6359 27.85V28.5H50.5497ZM130.34 28.5L131.182 25.89L129.905 21H116.225L114.948 25.89L115.79 28.5H118.704V27.85C118.704 27.09 119.277 26.47 119.98 26.47C120.692 26.47 121.266 27.09 121.266 27.85C121.266 27.85 121.266 31.13 121.266 31.89C121.266 33.1 119.786 33.21 119.786 33.21L118.167 33.3L119.749 38.26H126.381L127.963 33.3L126.344 33.21C126.344 33.21 124.864 33.1 124.864 31.89C124.864 31.13 124.864 27.85 124.864 27.85C124.864 27.09 125.438 26.47 126.15 26.47C126.853 26.47 127.426 27.09 127.426 27.85V28.5H130.34ZM67.0424 31.91C67.0424 31.48 67.0424 30.9 67.0424 30.33C67.0424 30.23 67.0424 27.84 67.0424 27.39C67.0424 25.72 68.6057 25.95 68.6057 25.95L70.2707 25.98L68.6149 21.02H62.0567L61.0762 25.98L62.7689 26.07C62.7689 26.07 63.6292 26.18 63.6292 27.39C63.6292 27.5 63.6384 27.92 63.6384 27.94C63.6384 28.26 63.3887 28.51 63.0834 28.51H58.8377C58.5509 28.49 58.3197 28.25 58.3197 27.94C58.3197 27.92 58.3197 27.5 58.3197 27.39C58.3197 26.18 59.1799 26.07 59.1799 26.07L60.8727 25.98L59.9014 21.02H53.3339L51.6782 25.98L53.3802 26.03C53.3802 26.03 54.9157 26.14 54.9157 27.34C54.9157 27.79 54.9157 31.48 54.9157 31.91C54.9157 33.12 53.3802 33.23 53.3802 33.23L51.6782 33.32L53.3339 38.28H59.9014L60.8727 33.32L59.1799 33.23C59.1799 33.23 58.3197 33.12 58.3197 31.91C58.3197 31.76 58.3197 31.38 58.3197 31.36C58.3197 31.06 58.5509 30.81 58.8377 30.79H63.0834C63.3887 30.79 63.6384 31.05 63.6384 31.36C63.6384 31.38 63.6292 31.77 63.6292 31.91C63.6292 33.12 62.7689 33.23 62.7689 33.23L61.0762 33.32L62.0567 38.28H68.6149L70.2707 33.32L68.5779 33.23C68.5779 33.23 67.0424 33.12 67.0424 31.91ZM95.9579 31.89C95.9579 31.43 95.9579 27.83 95.9579 27.37C95.9579 26.16 97.4287 26.05 97.4287 26.05L99.0567 25.96L97.4657 21H90.9999L89.4089 25.96L91.0369 26.05C91.0369 26.05 92.5077 26.16 92.5077 27.37C92.5077 27.83 92.5077 31.43 92.5077 31.89C92.5077 33.1 91.0369 33.21 91.0369 33.21L89.4089 33.3L90.9999 38.26H97.4657L99.0567 33.3L97.4287 33.21C97.4287 33.21 95.9579 33.1 95.9579 31.89ZM113.089 21H101.055L99.4637 25.96L101.092 26.05C101.092 26.05 102.572 26.16 102.572 27.37C102.572 27.82 102.572 31.45 102.572 31.89C102.572 33.1 101.092 33.21 101.092 33.21L99.4637 33.3L101.055 38.26H107.567L109.028 33.2L107.224 32.94C107.224 32.94 106.429 32.69 106.161 32.08C105.929 31.55 105.92 30.97 105.92 30.97H107.224L107.613 32.07H109.509L110.554 29.63L109.509 27.4H107.613L107.224 28.54H106.031C106.031 28.54 106.022 27.34 106.022 27.3C106.022 26.25 106.679 26.03 107.104 26.03H109.111C109.111 26.03 109.999 25.97 110.295 26.69C110.369 26.82 110.878 28.56 110.878 28.56L113.551 28.57L114.597 26.09L113.089 21ZM137.796 31.19C136.029 30.61 134.91 28.93 134.281 27.46C133.864 26.49 133.106 26.36 132.403 26.36H131.543L133.004 21.04H138.73L140.219 26.36H139.202C138.212 26.36 137.796 26.44 137.796 26.91C137.796 28.09 139.174 29.01 140.45 29.01C141.838 29.01 143.133 28.09 143.133 26.91C143.133 26.47 142.717 26.36 141.856 26.36H140.737L142.226 21.04H147.98L149.414 26.36H148.553C147.85 26.36 147.12 26.49 146.676 27.46C146.028 28.93 144.937 30.61 143.161 31.19V32.26C143.161 32.49 143.216 33.3 144.076 33.3H145.27L143.817 38.26H137.148L135.687 33.3H136.889C137.768 33.3 137.796 32.49 137.796 32.26V31.19ZM73.2584 27.17C73.2584 26.02 72.2317 26.02 71.7784 26.02H70.6592L72.0282 21.04H82.2309C85.8014 21.04 87.5127 23.13 87.5127 26.39C87.5127 29.65 85.2187 29.64 85.2187 29.64C85.2187 29.64 86.2639 29.95 86.2639 31.26V31.68C86.2639 32.86 86.9947 33.33 88.0399 33.33H89.2424L87.4664 38.26H86.0142C82.9432 38.26 81.5927 37.5 81.5927 34.01V33.33C82.1939 33.33 82.6194 32.63 82.6194 32C82.6194 31.08 81.6482 31 81.0192 31H77.1989V31.6C77.1989 32.89 77.8742 33.33 78.7992 33.33H79.8259L78.4477 38.26H72.0559L70.6592 33.33H71.7322C72.7312 33.33 73.2584 32.73 73.2584 31.6V27.17ZM80.9729 26.36H77.1989V28.56H80.9729C81.6204 28.56 82.4252 28.41 82.4252 27.52C82.4252 26.75 81.9719 26.36 80.9729 26.36Z" fill="#159B4F"/>
</svg>
