<svg width="93" height="46" viewBox="0 0 93 46" fill="none" xmlns="http://www.w3.org/2000/svg">
<g clip-path="url(#clip0_10179_874)">
<path d="M11.5076 22.8732H11.5086V19.73H0V22.8732C0.262453 35.3537 10.3393 45.4223 22.833 45.6903V34.196C16.6926 33.9358 11.7625 29.0078 11.5076 22.8732Z" fill="white"/>
<path d="M11.5076 0H0C0.262453 12.4804 10.3393 22.5491 22.833 22.817V11.3228C16.6926 11.0625 11.7625 6.13459 11.5076 0Z" fill="#00A5D0"/>
<path d="M86.591 11.7806L80.3832 5.58008H64.2952L65.4991 6.78261L78.547 19.8151C80.1938 21.4599 81.0171 23.4646 81.0171 25.8252C81.0171 28.1878 80.1937 30.1905 78.5469 31.8353L78.5469 31.8353H78.5469C76.9001 33.4801 74.8951 34.3026 72.5297 34.3026C70.1663 34.3026 68.1593 33.4802 66.5125 31.8354L53.4646 18.8029L50.6285 15.9701L50.5735 16.025V31.9843L58.4685 39.8699C62.3539 43.7508 67.041 45.6902 72.5297 45.6902C77.9482 45.6902 82.5825 43.7992 86.4367 40.0207C86.4881 39.9703 86.5399 39.921 86.591 39.8699C86.6421 39.8189 86.6915 39.7671 86.742 39.7158C90.5249 35.8662 92.4182 31.2373 92.4182 25.8252C92.4182 20.343 90.4765 15.6614 86.591 11.7806Z" fill="white"/>
<path d="M40.4486 5.59521C33.9693 8.62124 29.1092 14.5289 27.5276 21.6698C27.2022 23.1392 27.0154 24.6606 26.9819 26.2198V46H38.4835V26.2198H38.4898C38.7496 20.1036 43.6571 15.1906 49.7753 14.911L40.4486 5.59521H40.4486Z" fill="white"/>
</g>
<defs>
<clipPath id="clip0_10179_874">
<rect width="92.4182" height="46" fill="white"/>
</clipPath>
</defs>
</svg>
