<svg width="17" height="17" viewBox="0 0 17 17" fill="none" xmlns="http://www.w3.org/2000/svg">
<path fill-rule="evenodd" clip-rule="evenodd" d="M15.658 4.76C15.568 4.42 15.388 4.11 15.138 3.86C14.888 3.61 14.578 3.43 14.238 3.34C12.998 3 7.99797 3 7.99797 3C7.99797 3 2.99797 3.01 1.75797 3.35C1.41797 3.44 1.10797 3.62 0.857972 3.87C0.607972 4.12 0.427972 4.43 0.337972 4.77C-0.042028 6.98 -0.182028 10.34 0.347972 12.46C0.437972 12.8 0.617972 13.11 0.867972 13.36C1.11797 13.61 1.42797 13.79 1.76797 13.88C3.00797 14.22 8.00797 14.22 8.00797 14.22C8.00797 14.22 13.008 14.22 14.248 13.88C14.588 13.79 14.898 13.61 15.148 13.36C15.398 13.11 15.578 12.8 15.668 12.46C16.068 10.25 16.188 6.89 15.658 4.76ZM6.40797 11.01V6.21L10.558 8.61L6.40797 11.01Z" fill="white"/>
</svg>
